<svg width="550" height="944" viewBox="0 0 550 944" fill="none" xmlns="http://www.w3.org/2000/svg">
<g clip-path="url(#clip0_53_42)">
<path d="M607.016 170.366C661.751 242.842 696.934 343.337 738.761 423.553C765.295 474.08 820.953 546.003 822.224 606.662C823.126 668.796 756.182 720.215 696.447 714.665C634.315 709.298 612.946 650.66 588.071 602.9C529.108 487.832 431.42 395.983 367.294 282.757C333.574 220.244 319.586 144.646 401.825 116.648C457.328 98.4125 571.078 122.971 607.016 170.366Z" fill="#F4FAFF"/>
<path d="M695.096 325.637C700.255 336.332 706.336 346.475 709.468 355.879C684.772 323.053 650.669 305.895 650.669 305.895C648.088 303.682 644.586 302.021 642.558 300.73L485.677 235.596L483.613 347.141C483.613 347.141 481.58 364.656 488.762 389.18C488.762 389.18 485.431 427.528 504.407 473.812C484.318 450.759 472.894 427.524 472.894 427.524C462.759 408.531 452.258 384.743 447.472 360.036C440.293 322.974 447.139 248.674 451.023 211.248L438.118 206.45C436.09 205.158 434.616 204.789 432.588 203.498C431.668 197.782 430.379 193.541 429.828 186.35C432.78 180.82 435.915 177.687 439.05 174.553C441.078 175.845 442.553 176.214 444.581 177.505L473.523 190.236C499.151 191.166 524.96 200.762 524.96 200.762C643.312 247.631 658.981 257.039 695.096 325.637Z" fill="#BFDBF7"/>
<path d="M709.468 355.879C711.31 361.042 714.074 365.652 715.916 370.815C721.995 387.227 725.494 401.424 727.886 413.778C731.567 436.642 728.794 457.106 722.52 475.91C709.601 514.993 687.308 463.177 687.308 463.177C688.418 452.484 686.764 437.18 684.373 418.558C681.615 395.142 675.723 368.59 671.674 347.201C670.385 342.96 670.017 338.167 668.728 333.926C665.966 323.047 659.885 312.904 650.669 305.895C651.591 305.342 684.772 323.053 709.468 355.879ZM607.264 545.013C577.583 535.232 556.754 521.397 541.27 508.118C527.077 499.079 514.543 486.537 504.96 474.734C485.984 428.451 489.315 390.102 489.315 390.102C495.208 410.385 508.291 436.386 534.649 459.441C534.649 459.441 534.649 459.441 535.201 460.363C542.39 466.081 549.579 471.799 557.137 476.042C578.519 490.798 595.479 498.179 595.479 498.179C633.626 555.531 607.264 545.013 607.264 545.013Z" fill="#2196F3"/>
<path d="M142.489 451.386C181.55 533.261 253.984 610.167 305.954 684.302C338.942 730.959 376.158 813.939 429.433 842.165C483.814 872.235 561.078 835.939 583.774 779.712C607.761 721.458 565.738 676.457 533.856 631.644C459.219 525.975 422.754 396.164 351.252 287.361C313.105 230.009 252.646 183.527 189.755 243.797C147.521 284.161 117.063 396.435 142.489 451.386Z" fill="#F4FAFF"/>
<path d="M239.238 600.207C246.241 609.797 253.244 619.387 259.141 627.132C241.822 589.883 241.834 552.271 241.834 552.271C241.098 548.952 241.283 545.08 241.1 542.684L255.166 373.802L354.896 423.062C354.896 423.062 371.304 429.52 390.473 446.857C390.473 446.857 425.868 461.987 458.674 499.979C446.883 471.95 432.693 450.374 432.693 450.374C420.715 432.486 403.759 412.568 384.22 396.706C354.912 372.912 285.228 344.496 250.939 331.211L251.682 315.723C252.604 315.171 252.42 312.774 252.237 310.377C247.628 306.872 244.495 303.737 238.412 299.863C232.143 299.861 227.902 301.15 223.661 302.44C223.845 304.836 223.476 306.311 223.659 308.708L221.252 340.235C210.92 362.726 206.855 391.486 206.855 391.486C193.908 518.331 195.746 536.032 239.238 600.207Z" fill="#BFDBF7"/>
<path d="M259.141 627.132C262.827 631.189 265.592 635.799 269.278 639.857C280.889 652.951 291.764 662.726 302.455 670.104C321.81 683.57 340.245 691.32 359.787 694.644C399.794 700.742 364.224 658.14 364.224 658.14C354.822 655.003 340.628 645.964 326.251 634.528C306.896 621.063 285.33 603.909 268.372 590.26C264.316 587.677 261.183 584.542 258.05 581.407C248.833 574.398 243.674 563.702 240.912 552.823C241.834 552.271 241.822 589.883 259.141 627.132ZM473.937 623.697C478.741 591.987 475.43 567.648 471.564 548.657C470.279 531.878 465.122 514.914 459.227 500.9C427.342 462.356 391.026 447.779 391.026 447.779C406.139 462.533 423.832 485.77 431.749 519.882C431.749 519.882 431.749 519.882 432.302 520.804C433.958 529.839 435.615 538.873 436.718 546.986C439.66 572.799 438.732 592.158 438.732 592.158C472.269 652.275 473.937 623.697 473.937 623.697Z" fill="#2196F3"/>
</g>
<defs>
<clipPath id="clip0_53_42">
<rect width="688.046" height="688.046" fill="white" transform="translate(0 353.808) rotate(-30.9454)"/>
</clipPath>
</defs>
</svg>
