<svg width="211" height="201" viewBox="0 0 211 201" fill="none" xmlns="http://www.w3.org/2000/svg">
<path fill-rule="evenodd" clip-rule="evenodd" d="M85.0348 0H185.829C191.293 0 195.75 4.47213 195.749 9.95564V13.9378C195.749 19.4213 191.293 23.8939 185.828 23.8934H85.0343L67.9701 14.0067C67.2166 13.5699 66.7852 12.8201 66.7852 11.9469C66.7852 11.0738 67.2166 10.324 67.9701 9.88716L85.0348 0Z" fill="#FBE158"/>
<path fill-rule="evenodd" clip-rule="evenodd" d="M195.413 16.5088C194.279 20.7534 190.409 23.8943 185.83 23.8943H85.0355L72.2891 16.5088H195.413Z" fill="#F3B607"/>
<path fill-rule="evenodd" clip-rule="evenodd" d="M67.9701 9.88716L85.0348 0V23.8939L67.9701 14.0067C67.2166 13.5699 66.7852 12.8201 66.7852 11.9469C66.7852 11.0738 67.2166 10.324 67.9701 9.88716Z" fill="#57565C"/>
<path fill-rule="evenodd" clip-rule="evenodd" d="M35.3799 200.323C15.8403 200.323 0 184.427 0 164.818V46.2148H203.311C207.11 46.2148 210.209 49.3247 210.209 53.1376V193.4C210.209 197.213 207.11 200.323 203.311 200.323H35.3799V200.323Z" fill="#41A8FC"/>
<path fill-rule="evenodd" clip-rule="evenodd" d="M27.3746 199.41C11.6907 195.769 0 181.664 0 164.818V46.2148H27.3746V199.41Z" fill="#60B7FF"/>
<path fill-rule="evenodd" clip-rule="evenodd" d="M0 164.818V46.2147C0 29.9041 18.6196 16.6816 29.4288 16.6816C36.5683 16.6816 38.8115 17.3107 40.7602 18.4633C42.9237 19.743 44.1558 21.907 44.1558 24.4274V129.212C44.1558 131.381 43.2645 133.248 41.5798 134.608C39.8952 135.967 37.8868 136.439 35.7758 135.973C33.7318 135.522 31.6081 135.284 29.4288 135.284C13.1758 135.285 0 148.507 0 164.818Z" fill="#8AC9FE"/>
<path fill-rule="evenodd" clip-rule="evenodd" d="M54.7967 159.86C52.9243 159.86 51.4062 158.336 51.4062 156.457C51.4062 154.578 52.9243 153.055 54.7967 153.055H65.0028C66.8752 153.055 68.3933 154.578 68.3933 156.457C68.3933 158.336 66.8752 159.86 65.0028 159.86H54.7967Z" fill="#FFE177"/>
<path fill-rule="evenodd" clip-rule="evenodd" d="M77.0116 159.86C75.1392 159.86 73.6211 158.336 73.6211 156.457C73.6211 154.578 75.1392 153.055 77.0116 153.055H115.335C117.207 153.055 118.725 154.578 118.725 156.457C118.725 158.336 117.207 159.86 115.335 159.86H77.0116Z" fill="#ECEFF1"/>
<path fill-rule="evenodd" clip-rule="evenodd" d="M54.7967 174.427C52.9243 174.427 51.4062 172.904 51.4062 171.025C51.4062 169.146 52.9243 167.622 54.7967 167.622H65.0028C66.8752 167.622 68.3933 169.146 68.3933 171.025C68.3933 172.904 66.8752 174.427 65.0028 174.427H54.7967Z" fill="#6CF5C2"/>
<path fill-rule="evenodd" clip-rule="evenodd" d="M77.0116 174.427C75.1392 174.427 73.6211 172.903 73.6211 171.024C73.6211 169.145 75.1392 167.622 77.0116 167.622H115.335C117.207 167.622 118.725 169.145 118.725 171.024C118.725 172.903 117.207 174.427 115.335 174.427H77.0116ZM134.407 93.2454C132.535 93.2454 131.017 91.7219 131.017 89.8429C131.017 87.9639 132.535 86.4404 134.407 86.4404H164.127C165.999 86.4404 167.517 87.9639 167.517 89.8429C167.517 91.7219 165.999 93.2454 164.127 93.2454H134.407Z" fill="#ECEFF1"/>
<path fill-rule="evenodd" clip-rule="evenodd" d="M134.408 79.1507C132.536 79.1507 131.018 77.6272 131.018 75.7482C131.018 73.8692 132.536 72.3457 134.408 72.3457H193.847C195.72 72.3457 197.238 73.8692 197.238 75.7482C197.238 77.6272 195.72 79.1507 193.847 79.1507H134.408Z" fill="#FFE177"/>
<path fill-rule="evenodd" clip-rule="evenodd" d="M184.389 116.903H191.728C192.895 116.903 193.847 117.859 193.847 119.03V172.885C193.847 174.056 192.895 175.012 191.728 175.012H184.389C183.221 175.012 182.27 174.056 182.27 172.885V119.029C182.27 117.859 183.221 116.903 184.389 116.903Z" fill="#6CF5C2"/>
<path fill-rule="evenodd" clip-rule="evenodd" d="M159.484 130.775C161.931 130.775 164.377 130.775 166.823 130.775C167.991 130.775 168.942 131.731 168.942 132.902C168.942 146.23 168.942 159.557 168.942 172.885C168.942 174.056 167.991 175.011 166.823 175.011C164.377 175.011 161.931 175.011 159.484 175.011C158.318 175.011 157.365 174.056 157.365 172.885C157.365 159.557 157.365 146.229 157.365 132.902C157.366 131.731 158.318 130.775 159.484 130.775Z" fill="#FFE177"/>
<path fill-rule="evenodd" clip-rule="evenodd" d="M134.58 143.056C137.026 143.056 139.473 143.056 141.919 143.056C143.086 143.056 144.038 144.011 144.038 145.182C144.038 154.416 144.038 163.65 144.038 172.884C144.038 174.056 143.086 175.011 141.919 175.011C139.473 175.011 137.026 175.011 134.58 175.011C133.413 175.011 132.461 174.056 132.461 172.884C132.461 163.65 132.461 154.416 132.461 145.182C132.461 144.011 133.413 143.056 134.58 143.056Z" fill="#FE646F"/>
<path d="M91.0121 131.756C108.567 131.756 122.798 117.475 122.798 99.8582C122.798 82.2413 108.567 67.96 91.0121 67.96C73.4575 67.96 59.2266 82.2413 59.2266 99.8582C59.2266 117.475 73.4574 131.756 91.0121 131.756Z" fill="#57565C"/>
<mask id="mask0_158_43" style="mask-type:alpha" maskUnits="userSpaceOnUse" x="59" y="67" width="64" height="65">
<path d="M91.0121 131.756C108.567 131.756 122.798 117.475 122.798 99.8582C122.798 82.2413 108.567 67.96 91.0121 67.96C73.4575 67.96 59.2266 82.2413 59.2266 99.8582C59.2266 117.475 73.4574 131.756 91.0121 131.756Z" fill="#837683"/>
</mask>
<g mask="url(#mask0_158_43)">
<path d="M112.75 114.654C111.994 115.968 108.354 115.676 107.342 116.804C106.33 117.932 107 121.535 105.776 122.427C104.552 123.319 101.345 121.566 99.9633 122.184C98.5814 122.801 97.7334 126.366 96.2539 126.681C94.7743 126.997 92.5549 124.087 91.0423 124.087C89.5297 124.087 87.3102 126.997 85.8307 126.681C84.3511 126.366 83.5031 122.801 82.1213 122.184C80.7395 121.566 77.5324 123.319 76.3086 122.427C75.0849 121.535 75.755 117.932 74.7428 116.804C73.7307 115.676 70.0905 115.968 69.3342 114.654C68.5779 113.339 70.6501 110.321 70.1827 108.878C69.7153 107.434 66.2713 106.215 66.1132 104.705C65.9551 103.196 69.0713 101.285 69.2294 99.7753C69.3875 98.2656 66.7353 95.7463 67.2028 94.3027C67.6702 92.859 71.2914 92.3852 72.0477 91.0707C72.804 89.7561 71.4022 86.372 72.4143 85.244C73.4265 84.1159 76.9266 85.1612 78.1504 84.269C79.3741 83.3767 79.465 79.7131 80.8469 79.0957C82.2287 78.4783 85.0026 80.8619 86.4821 80.5463C87.9617 80.2307 89.5297 76.9209 91.0423 76.9209C92.5549 76.9209 94.1229 80.2307 95.6024 80.5463C97.082 80.8619 99.8558 78.4783 101.238 79.0957C102.619 79.7131 102.71 83.3767 103.934 84.269C105.158 85.1612 108.658 84.1159 109.67 85.244C110.682 86.372 109.281 89.7561 110.037 91.0707C110.793 92.3852 114.414 92.859 114.882 94.3027C115.349 95.7463 112.697 98.2656 112.855 99.7753C113.013 101.285 116.129 103.196 115.971 104.705C115.813 106.215 112.369 107.434 111.902 108.878C111.434 110.321 113.507 113.339 112.75 114.654V114.654Z" fill="#FFE177"/>
<path d="M91.0437 84.8721C93.2603 84.8721 95.4553 85.3102 97.5032 86.1615C99.5511 87.0128 101.412 88.2605 102.979 89.8335C104.547 91.4065 105.79 93.2739 106.638 95.3291C107.487 97.3842 107.923 99.587 107.923 101.811C107.923 106.304 106.145 110.613 102.979 113.789C99.8138 116.966 95.5204 118.751 91.0437 118.751C88.827 118.751 86.6321 118.313 84.5841 117.461C82.5362 116.61 80.6754 115.362 79.108 113.789C77.5406 112.216 76.2972 110.349 75.4489 108.294C74.6007 106.239 74.1641 104.036 74.1641 101.811C74.1641 99.587 74.6007 97.3842 75.4489 95.329C76.2972 93.2739 77.5406 91.4065 79.108 89.8335C80.6754 88.2605 82.5362 87.0128 84.5841 86.1615C86.632 85.3102 88.827 84.8721 91.0437 84.8721V84.8721Z" fill="#F9B22A"/>
<path d="M65.9486 108.849C63.4391 108.849 60.9297 111.095 60.9297 113.885V127.268C60.9297 130.058 63.1681 132.305 65.9486 132.305H91.0429H116.137C118.918 132.305 121.156 130.058 121.156 127.268V113.885C121.156 111.095 118.647 108.849 116.137 108.849C111.24 108.849 109.737 113.888 104.937 113.888C100.137 113.888 95.6945 109.081 91.0586 109.081C86.4227 109.081 81.9486 113.888 77.1489 113.888C72.3491 113.888 70.8459 108.849 65.9486 108.849V108.849Z" fill="#D2E6FF"/>
<path d="M65.9486 116.685C63.4391 116.685 60.9297 118.931 60.9297 121.721V127.269C60.9297 130.059 63.1681 132.306 65.9486 132.306H91.0429H116.137C118.918 132.306 121.156 130.059 121.156 127.269V121.721C121.156 118.931 118.647 116.685 116.137 116.685C111.24 116.685 109.737 121.724 104.937 121.724C100.137 121.724 95.6945 116.917 91.0586 116.917C86.4227 116.917 81.9486 121.724 77.1489 121.724C72.3491 121.724 70.8459 116.685 65.9486 116.685V116.685Z" fill="#5EA7FF"/>
</g>
</svg>
