<svg width="3821" height="1301" viewBox="0 0 3821 1301" fill="none" xmlns="http://www.w3.org/2000/svg">
<path d="M1770 1157.77C2046.14 1157.77 2270 933.118 2270 655.998C2270 378.877 2046.14 154.227 1770 154.227C1493.86 154.227 1270 378.877 1270 655.998C1270 933.118 1493.86 1157.77 1770 1157.77Z" fill="#B2E4FA"/>
<path d="M1845.01 635.748C1834.91 671.74 1828.78 708.739 1826.74 746.077L1824.62 782.97C1837.67 786.655 1856.88 791.367 1871.71 795.556L1925.93 591.277C1941.51 532.544 1946.81 526.826 1946.81 526.826L1943.98 520.811L1943.22 521.107C1919.51 531.879 1898.44 547.721 1881.48 567.524C1864.51 587.327 1852.07 610.612 1845.01 635.748Z" fill="#FED32F"/>
<path d="M1973.14 669.991C1964.07 706.259 1951.04 741.416 1934.31 774.825L1917.86 807.89C1904.72 804.576 1885.71 799.072 1870.77 795.304L1924.98 591.026C1940.57 532.293 1939.82 523.919 1939.82 523.919L1944.24 520.88L1944.76 521.519C1959.99 542.696 1970.42 566.957 1975.32 592.604C1980.22 618.251 1979.48 644.663 1973.14 669.991Z" fill="#FED32F"/>
<path d="M1876.13 779.243C1873.38 778.519 1871.04 776.731 1869.61 774.271C1868.18 771.811 1867.78 768.881 1868.5 766.126L1892.96 672.627C1893.68 669.871 1895.47 667.516 1897.92 666.08C1900.37 664.643 1903.29 664.242 1906.03 664.966C1908.78 665.689 1911.13 667.478 1912.56 669.938C1913.99 672.398 1914.39 675.327 1913.67 678.083L1889.2 771.582C1888.48 774.337 1886.7 776.692 1884.25 778.129C1881.8 779.566 1878.88 779.966 1876.13 779.243Z" fill="#F9B22A"/>
<path d="M1662.23 569.288L1713.19 783.393L1696.05 787.5L1645.09 573.395L1662.23 569.288Z" fill="#57565C"/>
<path d="M1616.84 416.097C1701.87 395.746 1786.98 443.643 1808.55 534.305C1809.7 539.068 1806.79 543.885 1802.04 545.041L1509.57 615.106C1504.82 616.227 1500.05 613.247 1498.94 608.476C1477.37 517.813 1531.75 436.499 1616.77 416.113L1618.78 424.577C1618.81 424.572 1618.83 424.567 1618.85 424.561L1616.84 416.097Z" fill="#E83030"/>
<path d="M1616.77 416.113C1616.77 416.113 1723.68 445.072 1750.37 557.295L1561.12 602.632C1534.43 490.408 1616.77 416.113 1616.77 416.113Z" fill="#FEF9E6"/>
<path d="M1497.42 877.16H2079.24C2015.75 765.648 1640.07 654.465 1497.42 877.16Z" fill="#F8E1C2"/>
<path d="M1497.42 877.16H1671.64L1798.35 750.002C1684.36 741.28 1564.85 771.879 1497.42 877.16Z" fill="#FCF1E2"/>
<g clip-path="url(#clip0_20_124)">
<path d="M1782.54 814.011C1782.14 813.904 1781.78 813.717 1781.46 813.462C1778.39 811.278 1774.65 810.231 1770.89 810.501C1770.37 810.558 1769.84 810.474 1769.36 810.258C1768.88 810.042 1768.47 809.702 1768.16 809.273C1767.72 808.44 1768.25 807.635 1769.37 807.487C1774.76 807.063 1780.12 808.566 1784.5 811.728C1785.38 812.436 1785.42 813.401 1784.61 813.882C1784.29 814.042 1783.94 814.136 1783.58 814.158C1783.23 814.18 1782.87 814.13 1782.54 814.011ZM1809.3 820.156L1804.27 818.748C1803.9 818.642 1803.58 818.39 1803.38 818.047C1803.19 817.704 1803.14 817.299 1803.25 816.92C1803.35 816.542 1803.61 816.221 1803.95 816.028C1804.29 815.835 1804.7 815.787 1805.07 815.893L1810.1 817.301C1810.48 817.407 1810.8 817.659 1810.99 818.002C1811.19 818.345 1811.23 818.75 1811.13 819.129C1811.02 819.508 1810.77 819.828 1810.43 820.021C1810.08 820.214 1809.68 820.262 1809.3 820.156ZM1748.66 803.16L1743.63 801.751C1743.25 801.645 1742.93 801.393 1742.74 801.05C1742.55 800.708 1742.5 800.302 1742.6 799.924C1742.71 799.545 1742.96 799.224 1743.3 799.031C1743.65 798.839 1744.05 798.79 1744.43 798.896L1749.46 800.305C1749.83 800.411 1750.16 800.663 1750.35 801.006C1750.54 801.348 1750.59 801.754 1750.48 802.132C1750.38 802.511 1750.13 802.832 1749.78 803.025C1749.44 803.217 1749.03 803.266 1748.66 803.16ZM1795.2 810.045L1760.93 800.442C1760.56 800.336 1760.23 800.084 1760.04 799.741C1759.85 799.398 1759.8 798.993 1759.91 798.614C1760.01 798.236 1760.27 797.915 1760.61 797.722C1760.95 797.529 1761.36 797.481 1761.73 797.587L1796 807.19C1796.38 807.296 1796.7 807.548 1796.89 807.891C1797.08 808.233 1797.13 808.639 1797.02 809.017C1796.92 809.396 1796.67 809.717 1796.32 809.91C1795.98 810.102 1795.58 810.151 1795.2 810.045Z" fill="#E83030"/>
<path d="M1772.45 808.783C1770.36 816.263 1758.4 825.969 1751.26 823.968C1744.12 821.968 1742.97 815.086 1745.07 807.605C1745.5 805.852 1746.28 804.201 1747.35 802.748C1748.42 801.295 1749.77 800.068 1751.32 799.137C1752.87 798.206 1754.59 797.59 1756.37 797.324C1758.16 797.058 1759.98 797.148 1761.73 797.587C1768.84 799.579 1774.58 801.188 1772.45 808.783ZM1805.02 824.438C1802.92 831.919 1798.36 837.2 1791.23 835.2C1784.09 833.199 1778.92 818.692 1781.01 811.212C1783.11 803.731 1788.92 805.205 1796 807.189C1797.72 807.725 1799.33 808.598 1800.72 809.756C1802.11 810.914 1803.26 812.335 1804.09 813.938C1804.93 815.541 1805.45 817.294 1805.6 819.096C1805.76 820.898 1805.57 822.713 1805.02 824.438Z" fill="#3C3B41"/>
<path d="M1810.1 817.301L1805.76 816.085C1804.93 813.939 1803.61 812.017 1801.9 810.47C1800.2 808.923 1798.16 807.795 1795.94 807.174L1761.68 797.571C1759.46 796.95 1757.13 796.853 1754.87 797.289C1752.61 797.724 1750.48 798.68 1748.66 800.08L1744.43 798.896C1744.05 798.79 1743.65 798.839 1743.3 799.031C1742.96 799.224 1742.71 799.545 1742.6 799.924C1742.5 800.302 1742.55 800.708 1742.74 801.05C1742.93 801.393 1743.25 801.645 1743.63 801.751L1746.26 802.488C1744.96 804.067 1744.01 805.897 1743.46 807.862C1740.95 816.799 1743.74 823.338 1750.88 825.339C1758.59 827.499 1770.67 818.567 1773.42 810.839C1774.43 810.705 1775.46 810.778 1776.44 811.053C1777.42 811.329 1778.33 811.8 1779.13 812.439C1777.41 820.456 1783.08 834.365 1790.85 836.542C1797.99 838.542 1803.77 834.403 1806.27 825.467C1806.82 823.5 1806.96 821.442 1806.67 819.42L1809.3 820.156C1809.68 820.262 1810.08 820.214 1810.43 820.021C1810.77 819.828 1811.02 819.508 1811.13 819.129C1811.23 818.75 1811.19 818.345 1810.99 818.002C1810.8 817.659 1810.48 817.407 1810.1 817.301ZM1751.68 822.483C1744.23 820.395 1745.12 812.916 1746.31 808.662C1747.16 805.633 1749.18 803.065 1751.92 801.524C1754.66 799.982 1757.91 799.593 1760.93 800.442C1769.21 802.763 1772.22 804.128 1770.75 809.353C1768.95 815.778 1757.84 824.212 1751.68 822.483ZM1780.15 809.554C1778.31 808.381 1776.17 807.78 1773.99 807.826C1774.15 806.497 1773.94 805.148 1773.38 803.931L1782.78 806.564C1781.64 807.293 1780.73 808.33 1780.15 809.554ZM1791.65 833.687C1785.48 831.958 1780.39 818.921 1782.18 812.554C1783.64 807.329 1786.92 807.724 1795.2 810.045C1798.23 810.894 1800.79 812.911 1802.33 815.653C1803.88 818.395 1804.27 821.637 1803.42 824.666C1802.2 829.006 1799.1 835.775 1791.65 833.687Z" fill="#E83030"/>
</g>
<mask id="mask0_20_124" style="mask-type:alpha" maskUnits="userSpaceOnUse" x="1270" y="154" width="1000" height="1004">
<path d="M1770 1157.77C2046.14 1157.77 2270 933.118 2270 655.998C2270 378.877 2046.14 154.227 1770 154.227C1493.86 154.227 1270 378.877 1270 655.998C1270 933.118 1493.86 1157.77 1770 1157.77Z" fill="#B2E4FA"/>
</mask>
<g mask="url(#mask0_20_124)">
<rect x="1276" y="839" width="977" height="322" fill="#5EA7FF"/>
<path d="M1910.44 1023.73C1902.66 1023.78 1894.96 1022.05 1887.95 1018.66C1880.94 1015.27 1874.79 1010.32 1869.98 1004.18C1865.26 998.206 1861.96 991.225 1860.35 983.774C1859.62 980.968 1860.04 977.988 1861.51 975.491C1862.97 972.993 1865.36 971.181 1868.16 970.455C1870.96 969.729 1873.93 970.147 1876.41 971.617C1878.9 973.088 1880.71 975.49 1881.43 978.296C1882.4 982.683 1884.34 986.795 1887.11 990.326C1890.65 994.835 1895.4 998.238 1900.8 1000.14C1906.2 1002.04 1912.03 1002.36 1917.61 1001.07C1923.11 999.946 1928.16 997.232 1932.13 993.261C1936.11 989.29 1938.84 984.237 1939.98 978.726C1940.48 976.263 1941.82 974.054 1943.78 972.484C1945.74 970.914 1948.18 970.082 1950.68 970.133C1953.52 970.133 1956.24 971.264 1958.25 973.279C1960.26 975.293 1961.39 978.025 1961.39 980.874C1961.49 981.694 1961.49 982.524 1961.39 983.344C1959.36 992.854 1954.61 1001.57 1947.73 1008.41C1940.85 1015.26 1932.13 1019.95 1922.64 1021.9C1918.66 1023.01 1914.56 1023.62 1910.44 1023.73Z" fill="#D2E6FF"/>
<path d="M1991.44 1023.73C1983.66 1023.78 1975.96 1022.05 1968.95 1018.66C1961.94 1015.27 1955.79 1010.32 1950.98 1004.18C1946.26 998.206 1942.96 991.225 1941.35 983.774C1940.62 980.968 1941.04 977.988 1942.51 975.491C1943.97 972.993 1946.36 971.181 1949.16 970.455C1951.96 969.729 1954.93 970.147 1957.41 971.617C1959.9 973.088 1961.71 975.49 1962.43 978.296C1963.4 982.683 1965.34 986.795 1968.11 990.326C1971.65 994.835 1976.4 998.238 1981.8 1000.14C1987.2 1002.04 1993.03 1002.36 1998.61 1001.07C2004.11 999.946 2009.16 997.232 2013.13 993.261C2017.11 989.29 2019.84 984.237 2020.98 978.726C2021.48 976.263 2022.82 974.054 2024.78 972.484C2026.74 970.914 2029.18 970.082 2031.68 970.133C2034.52 970.133 2037.24 971.264 2039.25 973.279C2041.26 975.293 2042.39 978.025 2042.39 980.874C2042.49 981.694 2042.49 982.524 2042.39 983.344C2040.36 992.854 2035.61 1001.57 2028.73 1008.41C2021.85 1015.26 2013.13 1019.95 2003.64 1021.9C1999.66 1023.01 1995.56 1023.62 1991.44 1023.73Z" fill="#D2E6FF"/>
<path d="M1505.44 970.543C1497.66 970.595 1489.96 968.86 1482.95 965.472C1475.94 962.084 1469.79 957.132 1464.98 950.994C1460.26 945.019 1456.96 938.038 1455.35 930.586C1454.62 927.78 1455.04 924.801 1456.51 922.303C1457.97 919.805 1460.36 917.994 1463.16 917.267C1465.96 916.541 1468.93 916.959 1471.41 918.429C1473.9 919.9 1475.71 922.302 1476.43 925.108C1477.4 929.495 1479.34 933.608 1482.11 937.138C1485.65 941.647 1490.4 945.051 1495.8 946.953C1501.2 948.854 1507.03 949.176 1512.61 947.879C1518.11 946.758 1523.16 944.044 1527.13 940.073C1531.11 936.103 1533.84 931.049 1534.98 925.538C1535.48 923.075 1536.82 920.867 1538.78 919.297C1540.74 917.726 1543.18 916.894 1545.68 916.945C1548.52 916.945 1551.24 918.077 1553.25 920.091C1555.26 922.105 1556.39 924.837 1556.39 927.686C1556.49 928.506 1556.49 929.336 1556.39 930.157C1554.36 939.666 1549.61 948.378 1542.73 955.226C1535.85 962.074 1527.13 966.762 1517.64 968.717C1513.66 969.824 1509.56 970.437 1505.44 970.543Z" fill="#D2E6FF"/>
<path d="M1586.44 970.543C1578.66 970.595 1570.96 968.86 1563.95 965.472C1556.94 962.084 1550.79 957.132 1545.98 950.994C1541.26 945.019 1537.96 938.038 1536.35 930.586C1535.62 927.78 1536.04 924.801 1537.51 922.303C1538.97 919.805 1541.36 917.994 1544.16 917.267C1546.96 916.541 1549.93 916.959 1552.41 918.429C1554.9 919.9 1556.71 922.302 1557.43 925.108C1558.4 929.495 1560.34 933.608 1563.11 937.138C1566.65 941.647 1571.4 945.051 1576.8 946.953C1582.2 948.854 1588.03 949.176 1593.61 947.879C1599.11 946.758 1604.16 944.044 1608.13 940.073C1612.11 936.103 1614.84 931.049 1615.98 925.538C1616.48 923.075 1617.82 920.867 1619.78 919.297C1621.74 917.726 1624.18 916.894 1626.68 916.945C1629.52 916.945 1632.24 918.077 1634.25 920.091C1636.26 922.105 1637.39 924.837 1637.39 927.686C1637.49 928.506 1637.49 929.336 1637.39 930.157C1635.36 939.666 1630.61 948.378 1623.73 955.226C1616.85 962.074 1608.13 966.762 1598.64 968.717C1594.66 969.824 1590.56 970.437 1586.44 970.543Z" fill="#D2E6FF"/>
<path d="M2042.48 860C2038.7 859.979 2034.94 859.583 2031.24 858.818C2019.9 856.462 2009.73 850.237 2002.45 841.203C1997.58 847.008 1991.52 851.676 1984.67 854.878C1977.81 858.08 1970.35 859.739 1962.79 859.739C1955.24 859.739 1947.77 858.08 1940.92 854.878C1934.07 851.676 1928 847.008 1923.14 841.203C1918.35 847.126 1912.29 851.892 1905.42 855.146C1898.54 858.4 1891.03 860.059 1883.43 860C1875.85 860.085 1868.34 858.459 1861.47 855.243C1854.59 852.027 1848.53 847.302 1843.72 841.418C1838.91 847.302 1832.85 852.027 1825.97 855.243C1819.1 858.459 1811.59 860.085 1804.01 860C1792.36 860.125 1781.02 856.222 1771.9 848.946C1762.78 841.669 1756.43 831.463 1753.92 820.043C1753.51 817.373 1754.11 814.644 1755.62 812.402C1757.12 810.159 1759.41 808.568 1762.03 807.944C1764.65 807.321 1767.41 807.711 1769.75 809.038C1772.1 810.365 1773.86 812.53 1774.68 815.102C1776.1 821.816 1779.8 827.826 1785.15 832.099C1790.51 836.372 1797.17 838.642 1804.01 838.518C1810.84 838.637 1817.49 836.364 1822.82 832.089C1828.16 827.815 1831.84 821.808 1833.23 815.102C1833.38 814.321 1833.63 813.563 1833.98 812.847C1834.91 810.525 1836.61 808.6 1838.8 807.404C1840.99 806.208 1843.52 805.816 1845.97 806.295C1848.06 806.764 1849.97 807.855 1851.44 809.425C1852.91 810.996 1853.87 812.974 1854.21 815.102C1855.62 821.78 1859.29 827.761 1864.6 832.03C1869.9 836.299 1876.52 838.591 1883.32 838.518C1890.15 838.637 1896.8 836.364 1902.13 832.089C1907.47 827.815 1911.15 821.808 1912.54 815.102C1912.69 814.321 1912.94 813.563 1913.29 812.847C1914.22 810.482 1915.96 808.525 1918.19 807.326C1920.43 806.126 1923.01 805.76 1925.49 806.295C1927.59 806.764 1929.49 807.855 1930.96 809.425C1932.43 810.996 1933.4 812.974 1933.73 815.102C1935.41 821.652 1939.23 827.446 1944.58 831.556C1949.94 835.666 1956.51 837.853 1963.25 837.766C1969.99 837.679 1976.5 835.324 1981.74 831.078C1986.99 826.832 1990.66 820.941 1992.17 814.35C1992.32 813.569 1992.58 812.811 1992.92 812.095C1993.88 810.112 1995.41 808.472 1997.33 807.396C1999.24 806.32 2001.44 805.86 2003.62 806.08C2005.84 806.313 2007.93 807.236 2009.6 808.719C2011.27 810.202 2012.44 812.17 2012.94 814.35C2013.99 820.002 2016.71 825.208 2020.73 829.303C2024.75 833.398 2029.9 836.195 2035.52 837.336C2041.1 838.606 2046.92 838.272 2052.31 836.372C2057.71 834.472 2062.46 831.084 2066.02 826.595C2068.6 823.119 2070.49 819.182 2071.59 814.995C2072.2 812.22 2073.89 809.802 2076.28 808.272C2078.66 806.742 2081.56 806.224 2084.33 806.832C2087.08 807.331 2089.53 808.892 2091.15 811.18C2092.77 813.469 2093.43 816.303 2093 819.076V819.613C2091.33 826.987 2088.16 833.935 2083.68 840.021C2078.83 846.327 2072.58 851.414 2065.42 854.881C2058.27 858.348 2050.42 860.1 2042.48 860Z" fill="#5EA7FF"/>
<path d="M1724.38 860C1712.94 860.102 1701.81 856.314 1692.79 849.253C1683.77 842.192 1677.4 832.275 1674.72 821.117C1674.31 819.98 1674.09 818.782 1674.07 817.572C1673.75 814.724 1674.56 811.862 1676.34 809.616C1678.12 807.37 1680.71 805.924 1683.55 805.596C1686.39 805.269 1689.24 806.086 1691.48 807.869C1693.71 809.651 1695.15 812.253 1695.48 815.102C1696.86 821.734 1700.48 827.686 1705.72 831.952C1710.97 836.218 1717.52 838.537 1724.27 838.517C1731.07 838.677 1737.71 836.461 1743.06 832.249C1748.41 828.036 1752.14 822.089 1753.6 815.424C1754.1 812.962 1755.44 810.753 1757.4 809.183C1759.36 807.613 1761.8 806.781 1764.3 806.831C1767.14 806.831 1769.86 807.963 1771.87 809.977C1773.88 811.992 1775 814.724 1775 817.572C1775.12 818.428 1775.12 819.295 1775 820.15C1772.46 831.642 1766.02 841.893 1756.79 849.159C1747.56 856.424 1736.11 860.255 1724.38 860Z" fill="#5EA7FF"/>
<path d="M1644.85 860C1633.19 860.166 1621.83 856.277 1612.7 848.994C1603.57 841.711 1597.23 831.482 1594.76 820.043C1594.35 817.373 1594.96 814.644 1596.46 812.402C1597.96 810.159 1600.25 808.568 1602.87 807.944C1605.49 807.321 1608.25 807.711 1610.6 809.038C1612.94 810.365 1614.7 812.53 1615.53 815.102C1617.08 821.721 1620.82 827.619 1626.13 831.84C1631.45 836.061 1638.02 838.358 1644.8 838.358C1651.58 838.358 1658.16 836.061 1663.47 831.84C1668.78 827.619 1672.52 821.721 1674.07 815.102C1674.57 812.639 1675.92 810.431 1677.88 808.861C1679.83 807.291 1682.27 806.459 1684.78 806.509C1687.62 806.509 1690.34 807.641 1692.35 809.655C1694.35 811.67 1695.48 814.402 1695.48 817.25C1695.58 818.07 1695.58 818.901 1695.48 819.721C1693.06 831.311 1686.67 841.686 1677.42 849.043C1668.18 856.4 1656.65 860.277 1644.85 860Z" fill="#5EA7FF"/>
<path d="M1565.44 860C1557.66 860.051 1549.96 858.317 1542.95 854.929C1535.94 851.54 1529.79 846.588 1524.98 840.451C1520.26 834.476 1516.96 827.495 1515.35 820.043C1514.62 817.237 1515.04 814.258 1516.51 811.76C1517.97 809.262 1520.36 807.451 1523.16 806.724C1525.96 805.998 1528.93 806.416 1531.41 807.886C1533.9 809.357 1535.71 811.759 1536.43 814.565C1537.4 818.952 1539.34 823.064 1542.11 826.595C1545.65 831.104 1550.4 834.508 1555.8 836.409C1561.2 838.311 1567.03 838.633 1572.61 837.336C1578.11 836.215 1583.16 833.501 1587.13 829.53C1591.11 825.559 1593.84 820.506 1594.98 814.995C1595.48 812.532 1596.82 810.324 1598.78 808.754C1600.74 807.184 1603.18 806.351 1605.68 806.402C1608.52 806.402 1611.24 807.534 1613.25 809.548C1615.26 811.562 1616.39 814.294 1616.39 817.143C1616.49 817.963 1616.49 818.793 1616.39 819.614C1614.36 829.123 1609.61 837.835 1602.73 844.682C1595.85 851.53 1587.13 856.218 1577.64 858.174C1573.66 859.28 1569.56 859.893 1565.44 860Z" fill="#5EA7FF"/>
<path d="M2121.44 860.153C2113.66 860.205 2105.96 858.47 2098.95 855.082C2091.94 851.694 2085.79 846.742 2080.98 840.605C2076.26 834.629 2072.96 827.648 2071.35 820.197C2070.62 817.391 2071.04 814.411 2072.51 811.913C2073.97 809.416 2076.36 807.604 2079.16 806.878C2081.96 806.151 2084.93 806.569 2087.41 808.04C2089.9 809.51 2091.71 811.913 2092.43 814.719C2093.4 819.106 2095.34 823.218 2098.11 826.749C2101.65 831.257 2106.4 834.661 2111.8 836.563C2117.2 838.465 2123.03 838.786 2128.61 837.49C2134.11 836.369 2139.16 833.655 2143.13 829.684C2147.11 825.713 2149.84 820.659 2150.98 815.148C2151.48 812.686 2152.82 810.477 2154.78 808.907C2156.74 807.337 2159.18 806.505 2161.68 806.556C2164.52 806.556 2167.24 807.687 2169.25 809.702C2171.26 811.716 2172.39 814.448 2172.39 817.297C2172.49 818.117 2172.49 818.947 2172.39 819.767C2170.36 829.277 2165.61 837.988 2158.73 844.836C2151.85 851.684 2143.13 856.372 2133.64 858.327C2129.66 859.434 2125.56 860.047 2121.44 860.153Z" fill="#5EA7FF"/>
<path d="M2202.44 860.153C2194.66 860.205 2186.96 858.47 2179.95 855.082C2172.94 851.694 2166.79 846.742 2161.98 840.605C2157.26 834.629 2153.96 827.648 2152.35 820.197C2151.62 817.391 2152.04 814.411 2153.51 811.913C2154.97 809.416 2157.36 807.604 2160.16 806.878C2162.96 806.151 2165.93 806.569 2168.41 808.04C2170.9 809.51 2172.71 811.913 2173.43 814.719C2174.4 819.106 2176.34 823.218 2179.11 826.749C2182.65 831.257 2187.4 834.661 2192.8 836.563C2198.2 838.465 2204.03 838.786 2209.61 837.49C2215.11 836.369 2220.16 833.655 2224.13 829.684C2228.11 825.713 2230.84 820.659 2231.98 815.148C2232.48 812.686 2233.82 810.477 2235.78 808.907C2237.74 807.337 2240.18 806.505 2242.68 806.556C2245.52 806.556 2248.24 807.687 2250.25 809.702C2252.26 811.716 2253.39 814.448 2253.39 817.297C2253.49 818.117 2253.49 818.947 2253.39 819.767C2251.36 829.277 2246.61 837.988 2239.73 844.836C2232.85 851.684 2224.13 856.372 2214.64 858.327C2210.66 859.434 2206.56 860.047 2202.44 860.153Z" fill="#5EA7FF"/>
<path d="M1405.44 860C1397.66 860.051 1389.96 858.317 1382.95 854.929C1375.94 851.54 1369.79 846.588 1364.98 840.451C1360.26 834.476 1356.96 827.495 1355.35 820.043C1354.62 817.237 1355.04 814.258 1356.51 811.76C1357.97 809.262 1360.36 807.451 1363.16 806.724C1365.96 805.998 1368.93 806.416 1371.41 807.886C1373.9 809.357 1375.71 811.759 1376.43 814.565C1377.4 818.952 1379.34 823.064 1382.11 826.595C1385.65 831.104 1390.4 834.508 1395.8 836.409C1401.2 838.311 1407.03 838.633 1412.61 837.336C1418.11 836.215 1423.16 833.501 1427.13 829.53C1431.11 825.559 1433.84 820.506 1434.98 814.995C1435.48 812.532 1436.82 810.324 1438.78 808.754C1440.74 807.184 1443.18 806.351 1445.68 806.402C1448.52 806.402 1451.24 807.534 1453.25 809.548C1455.26 811.562 1456.39 814.294 1456.39 817.143C1456.49 817.963 1456.49 818.793 1456.39 819.614C1454.36 829.123 1449.61 837.835 1442.73 844.682C1435.85 851.53 1427.13 856.218 1417.64 858.174C1413.66 859.28 1409.56 859.893 1405.44 860Z" fill="#5EA7FF"/>
<path d="M1326.44 860C1318.66 860.051 1310.96 858.317 1303.95 854.929C1296.94 851.54 1290.79 846.588 1285.98 840.451C1281.26 834.476 1277.96 827.495 1276.35 820.043C1275.62 817.237 1276.04 814.258 1277.51 811.76C1278.97 809.262 1281.36 807.451 1284.16 806.724C1286.96 805.998 1289.93 806.416 1292.41 807.886C1294.9 809.357 1296.71 811.759 1297.43 814.565C1298.4 818.952 1300.34 823.064 1303.11 826.595C1306.65 831.104 1311.4 834.508 1316.8 836.409C1322.2 838.311 1328.03 838.633 1333.61 837.336C1339.11 836.215 1344.16 833.501 1348.13 829.53C1352.11 825.559 1354.84 820.506 1355.98 814.995C1356.48 812.532 1357.82 810.324 1359.78 808.754C1361.74 807.184 1364.18 806.351 1366.68 806.402C1369.52 806.402 1372.24 807.534 1374.25 809.548C1376.26 811.562 1377.39 814.294 1377.39 817.143C1377.49 817.963 1377.49 818.793 1377.39 819.614C1375.36 829.123 1370.61 837.835 1363.73 844.682C1356.85 851.53 1348.13 856.218 1338.64 858.174C1334.66 859.28 1330.56 859.893 1326.44 860Z" fill="#5EA7FF"/>
<path d="M1485.44 860C1477.66 860.051 1469.96 858.317 1462.95 854.929C1455.94 851.54 1449.79 846.588 1444.98 840.451C1440.26 834.476 1436.96 827.495 1435.35 820.043C1434.62 817.237 1435.04 814.258 1436.51 811.76C1437.97 809.262 1440.36 807.451 1443.16 806.724C1445.96 805.998 1448.93 806.416 1451.41 807.886C1453.9 809.357 1455.71 811.759 1456.43 814.565C1457.4 818.952 1459.34 823.064 1462.11 826.595C1465.65 831.104 1470.4 834.508 1475.8 836.409C1481.2 838.311 1487.03 838.633 1492.61 837.336C1498.11 836.215 1503.16 833.501 1507.13 829.53C1511.11 825.559 1513.84 820.506 1514.98 814.995C1515.48 812.532 1516.82 810.324 1518.78 808.754C1520.74 807.184 1523.18 806.351 1525.68 806.402C1528.52 806.402 1531.24 807.534 1533.25 809.548C1535.26 811.562 1536.39 814.294 1536.39 817.143C1536.49 817.963 1536.49 818.793 1536.39 819.614C1534.36 829.123 1529.61 837.835 1522.73 844.682C1515.85 851.53 1507.13 856.218 1497.64 858.174C1493.66 859.28 1489.56 859.893 1485.44 860Z" fill="#5EA7FF"/>
</g>
<path d="M735 1129.54C735 1181.87 776.98 1224 829.125 1224L2711.62 1224C2763.77 1224 2805.75 1181.87 2805.75 1129.54V184.96C2805.75 132.63 2763.77 90.5014 2711.62 90.5014L829.125 90.5014C776.98 90.5014 735 132.63 735 184.96L735 1129.54ZM782.062 1129.54V964.242C782.056 963.472 782.086 962.702 782.154 961.935C782.236 961.13 782.358 960.33 782.522 959.537C782.67 958.791 782.854 958.052 783.073 957.323C783.312 956.572 783.588 955.833 783.901 955.11C784.199 954.355 784.537 953.616 784.912 952.896C785.309 952.23 785.738 951.583 786.199 950.959C786.625 950.29 787.086 949.644 787.577 949.022C788.101 948.441 788.653 947.887 789.232 947.361C789.788 946.809 790.371 946.286 790.978 945.793C791.598 945.299 792.242 944.838 792.909 944.409C793.562 943.976 794.237 943.576 794.931 943.21C795.62 942.868 796.326 942.56 797.045 942.288C797.798 942.002 798.565 941.756 799.343 941.549C800.099 941.326 800.866 941.142 801.641 940.996C802.402 940.865 803.169 940.772 803.939 940.717C804.489 940.668 805.041 940.638 805.594 940.627H829.125C855.198 940.627 876.188 919.563 876.188 893.398V421.106C876.188 394.941 855.198 373.877 829.125 373.877H807.34C807.31 373.877 807.279 373.877 807.248 373.877H805.594C804.827 373.883 804.06 373.851 803.296 373.782C802.493 373.701 801.696 373.578 800.906 373.414C800.131 373.268 799.364 373.083 798.608 372.86C797.859 372.621 797.123 372.343 796.402 372.03C795.681 371.727 794.975 371.389 794.288 371.016C793.624 370.617 792.979 370.186 792.357 369.724C791.691 369.296 791.047 368.834 790.427 368.34C789.819 367.847 789.237 367.324 788.681 366.772C788.16 366.183 787.669 365.567 787.21 364.928C786.721 364.336 786.261 363.72 785.831 363.083C785.397 362.397 784.998 361.689 784.636 360.961C784.264 360.271 783.927 359.563 783.625 358.84C783.344 358.115 783.098 357.376 782.89 356.626C782.698 355.866 782.545 355.096 782.43 354.32C782.297 353.526 782.205 352.725 782.154 351.922C782.104 351.37 782.074 350.816 782.062 350.262L782.063 184.96C782.063 158.795 803.052 137.731 829.125 137.731L2711.62 137.731C2737.7 137.731 2758.69 158.795 2758.69 184.96V1129.54C2758.69 1155.71 2737.7 1176.77 2711.62 1176.77L829.125 1176.77C803.052 1176.77 782.062 1155.71 782.062 1129.54Z" fill="#57565C"/>
<path d="M2664.56 869.783V444.72C2664.56 431.638 2675.06 421.106 2688.09 421.106C2701.13 421.106 2711.63 431.638 2711.63 444.72V869.783C2711.63 882.865 2701.13 893.397 2688.09 893.397C2675.06 893.397 2664.56 882.865 2664.56 869.783Z" fill="#57565C"/>
<defs>
<clipPath id="clip0_20_124">
<rect width="71.1651" height="71.1651" fill="white" transform="translate(1751.21 770) rotate(15.6565)"/>
</clipPath>
</defs>
</svg>
