<svg width="3823" height="1700" viewBox="0 0 3823 1700" fill="none" xmlns="http://www.w3.org/2000/svg">
<path d="M1772 1067.77C2048.14 1067.77 2272 843.118 2272 565.998C2272 288.877 2048.14 64.2266 1772 64.2266C1495.86 64.2266 1272 288.877 1272 565.998C1272 843.118 1495.86 1067.77 1772 1067.77Z" fill="#B2E4FA"/>
<path d="M1847.01 545.748C1836.91 581.74 1830.78 618.739 1828.74 656.077L1826.62 692.97C1839.67 696.655 1858.88 701.367 1873.71 705.555L1927.93 501.277C1943.51 442.544 1948.81 436.825 1948.81 436.825L1945.98 430.81L1945.22 431.107C1921.51 441.878 1900.44 457.72 1883.48 477.523C1866.51 497.326 1854.07 520.611 1847.01 545.748Z" fill="#FED32F"/>
<path d="M1975.14 579.99C1966.07 616.259 1953.04 651.416 1936.31 684.825L1919.86 717.889C1906.72 714.576 1887.71 709.072 1872.77 705.304L1926.98 501.026C1942.57 442.292 1941.82 433.919 1941.82 433.919L1946.24 430.88L1946.76 431.519C1961.99 452.695 1972.42 476.957 1977.32 502.604C1982.22 528.25 1981.48 554.663 1975.14 579.99Z" fill="#FED32F"/>
<path d="M1878.13 689.243C1875.38 688.519 1873.04 686.731 1871.61 684.271C1870.18 681.811 1869.78 678.881 1870.5 676.126L1894.96 582.627C1895.68 579.871 1897.47 577.516 1899.92 576.08C1902.37 574.643 1905.29 574.242 1908.03 574.966C1910.78 575.689 1913.13 577.478 1914.56 579.938C1915.99 582.398 1916.39 585.327 1915.67 588.083L1891.2 681.582C1890.48 684.337 1888.7 686.692 1886.25 688.129C1883.8 689.566 1880.88 689.966 1878.13 689.243Z" fill="#F9B22A"/>
<path d="M1664.23 479.288L1715.19 693.393L1698.05 697.501L1647.09 483.396L1664.23 479.288Z" fill="#57565C"/>
<path d="M1618.84 326.097C1703.87 305.746 1788.98 353.643 1810.55 444.305C1811.7 449.068 1808.79 453.885 1804.04 455.041L1511.57 525.106C1506.82 526.227 1502.05 523.247 1500.94 518.476C1479.37 427.813 1533.75 346.499 1618.77 326.113L1620.78 334.577C1620.81 334.572 1620.83 334.567 1620.85 334.561L1618.84 326.097Z" fill="#E83030"/>
<path d="M1618.77 326.113C1618.77 326.113 1725.68 355.072 1752.37 467.296L1563.12 512.632C1536.43 400.408 1618.77 326.113 1618.77 326.113Z" fill="#FEF9E6"/>
<path d="M1499.42 787.16H2081.24C2017.75 675.648 1642.07 564.465 1499.42 787.16V787.16Z" fill="#F8E1C2"/>
<path d="M1499.42 787.16H1673.64L1800.35 660.002C1686.36 651.28 1566.85 681.879 1499.42 787.16V787.16Z" fill="#FCF1E2"/>
<g clip-path="url(#clip0_19_2)">
<path d="M1784.54 724.011C1784.14 723.904 1783.78 723.717 1783.46 723.462C1780.39 721.278 1776.65 720.231 1772.89 720.501C1772.37 720.558 1771.84 720.474 1771.36 720.258C1770.88 720.042 1770.47 719.702 1770.16 719.273C1769.72 718.44 1770.25 717.635 1771.37 717.487C1776.76 717.063 1782.12 718.566 1786.5 721.728C1787.38 722.436 1787.42 723.401 1786.61 723.882C1786.29 724.042 1785.94 724.136 1785.58 724.158C1785.23 724.18 1784.87 724.13 1784.54 724.011V724.011ZM1811.3 730.156L1806.27 728.748C1805.9 728.642 1805.58 728.39 1805.38 728.047C1805.19 727.704 1805.14 727.299 1805.25 726.92C1805.35 726.542 1805.61 726.221 1805.95 726.028C1806.29 725.835 1806.7 725.787 1807.07 725.893L1812.1 727.301C1812.48 727.407 1812.8 727.659 1812.99 728.002C1813.19 728.345 1813.23 728.75 1813.13 729.129C1813.02 729.508 1812.77 729.828 1812.43 730.021C1812.08 730.214 1811.68 730.262 1811.3 730.156V730.156ZM1750.66 713.16L1745.63 711.751C1745.25 711.645 1744.93 711.393 1744.74 711.05C1744.55 710.708 1744.5 710.302 1744.6 709.924C1744.71 709.545 1744.96 709.224 1745.3 709.031C1745.65 708.839 1746.05 708.79 1746.43 708.896L1751.46 710.305C1751.83 710.411 1752.16 710.663 1752.35 711.006C1752.54 711.348 1752.59 711.754 1752.48 712.132C1752.38 712.511 1752.13 712.832 1751.78 713.025C1751.44 713.217 1751.03 713.266 1750.66 713.16ZM1797.2 720.045L1762.93 710.442C1762.56 710.336 1762.23 710.084 1762.04 709.741C1761.85 709.398 1761.8 708.993 1761.91 708.614C1762.01 708.236 1762.27 707.915 1762.61 707.722C1762.95 707.529 1763.36 707.481 1763.73 707.587L1798 717.19C1798.38 717.296 1798.7 717.548 1798.89 717.891C1799.08 718.233 1799.13 718.639 1799.02 719.017C1798.92 719.396 1798.67 719.717 1798.32 719.91C1797.98 720.102 1797.58 720.151 1797.2 720.045Z" fill="#E83030"/>
<path d="M1774.45 718.782C1772.36 726.263 1760.4 735.968 1753.26 733.968C1746.12 731.967 1744.97 725.086 1747.07 717.605C1747.5 715.851 1748.28 714.201 1749.35 712.748C1750.42 711.295 1751.77 710.068 1753.32 709.137C1754.87 708.206 1756.59 707.59 1758.37 707.324C1760.16 707.058 1761.98 707.147 1763.73 707.587C1770.84 709.579 1776.58 711.188 1774.45 718.782ZM1807.02 734.438C1804.92 741.919 1800.36 747.2 1793.23 745.199C1786.09 743.199 1780.92 728.692 1783.01 721.212C1785.11 713.731 1790.92 715.205 1798 717.189C1799.72 717.725 1801.33 718.597 1802.72 719.756C1804.11 720.914 1805.26 722.335 1806.09 723.938C1806.93 725.541 1807.45 727.294 1807.6 729.096C1807.76 730.898 1807.57 732.713 1807.02 734.438V734.438Z" fill="#3C3B41"/>
<path d="M1812.1 727.301L1807.76 726.085C1806.93 723.939 1805.61 722.017 1803.9 720.47C1802.2 718.923 1800.16 717.795 1797.94 717.174L1763.68 707.571C1761.46 706.95 1759.13 706.853 1756.87 707.289C1754.61 707.724 1752.48 708.68 1750.66 710.08L1746.43 708.896C1746.05 708.79 1745.65 708.839 1745.3 709.031C1744.96 709.224 1744.71 709.545 1744.6 709.924C1744.5 710.302 1744.55 710.708 1744.74 711.05C1744.93 711.393 1745.25 711.645 1745.63 711.751L1748.26 712.488C1746.96 714.067 1746.01 715.897 1745.46 717.862C1742.95 726.799 1745.74 733.338 1752.88 735.339C1760.59 737.499 1772.67 728.567 1775.42 720.839C1776.43 720.705 1777.46 720.778 1778.44 721.053C1779.42 721.329 1780.33 721.8 1781.13 722.439C1779.41 730.456 1785.08 744.365 1792.85 746.542C1799.99 748.542 1805.77 744.403 1808.27 735.467C1808.82 733.5 1808.96 731.442 1808.67 729.42L1811.3 730.156C1811.68 730.262 1812.08 730.214 1812.43 730.021C1812.77 729.828 1813.02 729.508 1813.13 729.129C1813.23 728.75 1813.19 728.345 1812.99 728.002C1812.8 727.659 1812.48 727.407 1812.1 727.301ZM1753.68 732.483C1746.23 730.395 1747.12 722.916 1748.31 718.662C1749.16 715.633 1751.18 713.065 1753.92 711.524C1756.66 709.982 1759.91 709.593 1762.93 710.442C1771.21 712.763 1774.22 714.128 1772.75 719.353C1770.95 725.778 1759.84 734.212 1753.68 732.483ZM1782.15 719.554C1780.31 718.381 1778.17 717.78 1775.99 717.826C1776.15 716.497 1775.94 715.148 1775.38 713.931L1784.78 716.564C1783.64 717.293 1782.73 718.33 1782.15 719.554V719.554ZM1793.65 743.687C1787.48 741.958 1782.39 728.921 1784.18 722.554C1785.64 717.329 1788.92 717.724 1797.2 720.045C1800.23 720.894 1802.79 722.911 1804.33 725.653C1805.88 728.395 1806.27 731.637 1805.42 734.666C1804.2 739.006 1801.1 745.775 1793.65 743.687Z" fill="#E83030"/>
</g>
<mask id="mask0_19_2" style="mask-type:alpha" maskUnits="userSpaceOnUse" x="1272" y="64" width="1000" height="1004">
<path d="M1772 1067.77C2048.14 1067.77 2272 843.118 2272 565.998C2272 288.877 2048.14 64.2266 1772 64.2266C1495.86 64.2266 1272 288.877 1272 565.998C1272 843.118 1495.86 1067.77 1772 1067.77Z" fill="#B2E4FA"/>
</mask>
<g mask="url(#mask0_19_2)">
<rect x="1278" y="749" width="977" height="322" fill="#5EA7FF"/>
<path d="M1912.44 933.731C1904.66 933.782 1896.96 932.048 1889.95 928.66C1882.94 925.272 1876.79 920.32 1871.98 914.182C1867.26 908.207 1863.96 901.226 1862.35 893.774C1861.62 890.968 1862.04 887.989 1863.51 885.491C1864.97 882.993 1867.36 881.182 1870.16 880.455C1872.96 879.729 1875.93 880.147 1878.41 881.617C1880.9 883.088 1882.71 885.49 1883.43 888.296C1884.4 892.683 1886.34 896.796 1889.11 900.326C1892.65 904.835 1897.4 908.239 1902.8 910.141C1908.2 912.042 1914.03 912.364 1919.61 911.067C1925.11 909.946 1930.16 907.232 1934.13 903.261C1938.11 899.29 1940.84 894.237 1941.98 888.726C1942.48 886.263 1943.82 884.055 1945.78 882.485C1947.74 880.914 1950.18 880.082 1952.68 880.133C1955.52 880.133 1958.24 881.265 1960.25 883.279C1962.26 885.293 1963.39 888.025 1963.39 890.874C1963.49 891.694 1963.49 892.524 1963.39 893.345C1961.36 902.854 1956.61 911.566 1949.73 918.414C1942.85 925.262 1934.13 929.95 1924.64 931.905C1920.66 933.011 1916.56 933.625 1912.44 933.731V933.731Z" fill="#D2E6FF"/>
<path d="M1993.44 933.731C1985.66 933.782 1977.96 932.048 1970.95 928.66C1963.94 925.272 1957.79 920.32 1952.98 914.182C1948.26 908.207 1944.96 901.226 1943.35 893.774C1942.62 890.968 1943.04 887.989 1944.51 885.491C1945.97 882.993 1948.36 881.182 1951.16 880.455C1953.96 879.729 1956.93 880.147 1959.41 881.617C1961.9 883.088 1963.71 885.49 1964.43 888.296C1965.4 892.683 1967.34 896.796 1970.11 900.326C1973.65 904.835 1978.4 908.239 1983.8 910.141C1989.2 912.042 1995.03 912.364 2000.61 911.067C2006.11 909.946 2011.16 907.232 2015.13 903.261C2019.11 899.29 2021.84 894.237 2022.98 888.726C2023.48 886.263 2024.82 884.055 2026.78 882.485C2028.74 880.914 2031.18 880.082 2033.68 880.133C2036.52 880.133 2039.24 881.265 2041.25 883.279C2043.26 885.293 2044.39 888.025 2044.39 890.874C2044.49 891.694 2044.49 892.524 2044.39 893.345C2042.36 902.854 2037.61 911.566 2030.73 918.414C2023.85 925.262 2015.13 929.95 2005.64 931.905C2001.66 933.011 1997.56 933.625 1993.44 933.731V933.731Z" fill="#D2E6FF"/>
<path d="M1507.44 880.543C1499.66 880.595 1491.96 878.86 1484.95 875.472C1477.94 872.084 1471.79 867.132 1466.98 860.994C1462.26 855.019 1458.96 848.038 1457.35 840.586C1456.62 837.78 1457.04 834.801 1458.51 832.303C1459.97 829.805 1462.36 827.994 1465.16 827.267C1467.96 826.541 1470.93 826.959 1473.41 828.429C1475.9 829.9 1477.71 832.302 1478.43 835.108C1479.4 839.495 1481.34 843.608 1484.11 847.138C1487.65 851.647 1492.4 855.051 1497.8 856.953C1503.2 858.854 1509.03 859.176 1514.61 857.879C1520.11 856.758 1525.16 854.044 1529.13 850.073C1533.11 846.103 1535.84 841.049 1536.98 835.538C1537.48 833.075 1538.82 830.867 1540.78 829.297C1542.74 827.726 1545.18 826.894 1547.68 826.945C1550.52 826.945 1553.24 828.077 1555.25 830.091C1557.26 832.105 1558.39 834.837 1558.39 837.686C1558.49 838.506 1558.49 839.336 1558.39 840.157C1556.36 849.666 1551.61 858.378 1544.73 865.226C1537.85 872.074 1529.13 876.762 1519.64 878.717C1515.66 879.824 1511.56 880.437 1507.44 880.543V880.543Z" fill="#D2E6FF"/>
<path d="M1588.44 880.543C1580.66 880.595 1572.96 878.86 1565.95 875.472C1558.94 872.084 1552.79 867.132 1547.98 860.994C1543.26 855.019 1539.96 848.038 1538.35 840.586C1537.62 837.78 1538.04 834.801 1539.51 832.303C1540.97 829.805 1543.36 827.994 1546.16 827.267C1548.96 826.541 1551.93 826.959 1554.41 828.429C1556.9 829.9 1558.71 832.302 1559.43 835.108C1560.4 839.495 1562.34 843.608 1565.11 847.138C1568.65 851.647 1573.4 855.051 1578.8 856.953C1584.2 858.854 1590.03 859.176 1595.61 857.879C1601.11 856.758 1606.16 854.044 1610.13 850.073C1614.11 846.103 1616.84 841.049 1617.98 835.538C1618.48 833.075 1619.82 830.867 1621.78 829.297C1623.74 827.726 1626.18 826.894 1628.68 826.945C1631.52 826.945 1634.24 828.077 1636.25 830.091C1638.26 832.105 1639.39 834.837 1639.39 837.686C1639.49 838.506 1639.49 839.336 1639.39 840.157C1637.36 849.666 1632.61 858.378 1625.73 865.226C1618.85 872.074 1610.13 876.762 1600.64 878.717C1596.66 879.824 1592.56 880.437 1588.44 880.543V880.543Z" fill="#D2E6FF"/>
<path d="M2044.48 770C2040.7 769.979 2036.94 769.583 2033.24 768.818C2021.9 766.462 2011.73 760.237 2004.45 751.203C1999.58 757.008 1993.52 761.676 1986.67 764.878C1979.81 768.08 1972.35 769.739 1964.79 769.739C1957.24 769.739 1949.77 768.08 1942.92 764.878C1936.07 761.676 1930 757.008 1925.14 751.203C1920.35 757.126 1914.29 761.892 1907.42 765.146C1900.54 768.4 1893.03 770.059 1885.43 770V770C1877.85 770.085 1870.34 768.459 1863.47 765.243C1856.59 762.027 1850.53 757.302 1845.72 751.418C1840.91 757.302 1834.85 762.027 1827.97 765.243C1821.1 768.459 1813.59 770.085 1806.01 770V770C1794.36 770.125 1783.02 766.222 1773.9 758.946C1764.78 751.669 1758.43 741.463 1755.92 730.043C1755.51 727.373 1756.11 724.644 1757.62 722.402C1759.12 720.159 1761.41 718.568 1764.03 717.944C1766.65 717.321 1769.41 717.711 1771.75 719.038C1774.1 720.365 1775.86 722.53 1776.68 725.102C1778.1 731.816 1781.8 737.826 1787.15 742.099C1792.51 746.372 1799.17 748.642 1806.01 748.518V748.518C1812.84 748.637 1819.49 746.364 1824.82 742.089C1830.16 737.815 1833.84 731.808 1835.23 725.102C1835.38 724.321 1835.63 723.563 1835.98 722.847C1836.91 720.525 1838.61 718.6 1840.8 717.404C1842.99 716.208 1845.52 715.816 1847.97 716.295C1850.06 716.764 1851.97 717.855 1853.44 719.425C1854.91 720.996 1855.87 722.974 1856.21 725.102C1857.62 731.78 1861.29 737.761 1866.6 742.03C1871.9 746.299 1878.52 748.591 1885.32 748.518V748.518C1892.15 748.637 1898.8 746.364 1904.13 742.089C1909.47 737.815 1913.15 731.808 1914.54 725.102C1914.69 724.321 1914.94 723.563 1915.29 722.847C1916.22 720.482 1917.96 718.525 1920.19 717.326C1922.43 716.126 1925.01 715.76 1927.49 716.295C1929.59 716.764 1931.49 717.855 1932.96 719.425C1934.43 720.996 1935.4 722.974 1935.73 725.102C1937.41 731.652 1941.23 737.446 1946.58 741.556C1951.94 745.666 1958.51 747.853 1965.25 747.766C1971.99 747.679 1978.5 745.324 1983.74 741.078C1988.99 736.832 1992.66 730.941 1994.17 724.35C1994.32 723.569 1994.58 722.811 1994.92 722.095C1995.88 720.112 1997.41 718.472 1999.33 717.396C2001.24 716.32 2003.44 715.86 2005.62 716.08C2007.84 716.313 2009.93 717.236 2011.6 718.719C2013.27 720.202 2014.44 722.17 2014.94 724.35C2015.99 730.002 2018.71 735.208 2022.73 739.303C2026.75 743.398 2031.9 746.195 2037.52 747.336C2043.1 748.606 2048.92 748.272 2054.31 746.372C2059.71 744.472 2064.46 741.084 2068.02 736.595C2070.6 733.119 2072.49 729.182 2073.59 724.995C2074.2 722.22 2075.89 719.802 2078.28 718.272C2080.66 716.742 2083.56 716.224 2086.33 716.832C2089.08 717.331 2091.53 718.892 2093.15 721.18C2094.77 723.469 2095.43 726.303 2095 729.076V729.613C2093.33 736.987 2090.16 743.935 2085.68 750.021C2080.83 756.327 2074.58 761.414 2067.42 764.881C2060.27 768.348 2052.42 770.1 2044.48 770V770Z" fill="#5EA7FF"/>
<path d="M1726.38 770C1714.94 770.102 1703.81 766.314 1694.79 759.253C1685.77 752.192 1679.4 742.275 1676.72 731.117C1676.31 729.98 1676.09 728.782 1676.07 727.572C1675.75 724.724 1676.56 721.862 1678.34 719.616C1680.12 717.37 1682.71 715.924 1685.55 715.596C1688.39 715.269 1691.24 716.086 1693.48 717.869C1695.71 719.651 1697.15 722.253 1697.48 725.102C1698.86 731.734 1702.48 737.686 1707.72 741.952C1712.97 746.218 1719.52 748.537 1726.27 748.517C1733.07 748.677 1739.71 746.461 1745.06 742.249C1750.41 738.036 1754.14 732.089 1755.6 725.424C1756.1 722.962 1757.44 720.753 1759.4 719.183C1761.36 717.613 1763.8 716.781 1766.3 716.831C1769.14 716.831 1771.86 717.963 1773.87 719.977C1775.88 721.992 1777 724.724 1777 727.572C1777.12 728.428 1777.12 729.295 1777 730.15C1774.46 741.642 1768.02 751.893 1758.79 759.159C1749.56 766.424 1738.11 770.255 1726.38 770V770Z" fill="#5EA7FF"/>
<path d="M1646.85 769.999C1635.19 770.166 1623.83 766.277 1614.7 758.994C1605.57 751.711 1599.23 741.482 1596.76 730.043C1596.35 727.372 1596.96 724.644 1598.46 722.402C1599.96 720.159 1602.25 718.567 1604.87 717.944C1607.49 717.321 1610.25 717.711 1612.6 719.038C1614.94 720.364 1616.7 722.53 1617.53 725.102C1619.08 731.721 1622.82 737.619 1628.13 741.84C1633.45 746.061 1640.02 748.357 1646.8 748.357C1653.58 748.357 1660.16 746.061 1665.47 741.84C1670.78 737.619 1674.52 731.721 1676.07 725.102C1676.57 722.639 1677.92 720.431 1679.88 718.861C1681.83 717.29 1684.27 716.458 1686.78 716.509C1689.62 716.509 1692.34 717.641 1694.35 719.655C1696.35 721.669 1697.48 724.401 1697.48 727.25C1697.58 728.07 1697.58 728.9 1697.48 729.72C1695.06 741.311 1688.67 751.685 1679.42 759.043C1670.18 766.4 1658.65 770.277 1646.85 769.999V769.999Z" fill="#5EA7FF"/>
<path d="M1567.44 770C1559.66 770.051 1551.96 768.317 1544.95 764.929C1537.94 761.54 1531.79 756.588 1526.98 750.451C1522.26 744.476 1518.96 737.495 1517.35 730.043C1516.62 727.237 1517.04 724.258 1518.51 721.76C1519.97 719.262 1522.36 717.451 1525.16 716.724C1527.96 715.998 1530.93 716.416 1533.41 717.886C1535.9 719.357 1537.71 721.759 1538.43 724.565C1539.4 728.952 1541.34 733.064 1544.11 736.595C1547.65 741.104 1552.4 744.508 1557.8 746.409C1563.2 748.311 1569.03 748.633 1574.61 747.336C1580.11 746.215 1585.16 743.501 1589.13 739.53C1593.11 735.559 1595.84 730.506 1596.98 724.995C1597.48 722.532 1598.82 720.324 1600.78 718.754C1602.74 717.184 1605.18 716.351 1607.68 716.402C1610.52 716.402 1613.24 717.534 1615.25 719.548C1617.26 721.562 1618.39 724.294 1618.39 727.143C1618.49 727.963 1618.49 728.793 1618.39 729.614C1616.36 739.123 1611.61 747.835 1604.73 754.682C1597.85 761.53 1589.13 766.218 1579.64 768.174C1575.66 769.28 1571.56 769.893 1567.44 770V770Z" fill="#5EA7FF"/>
<path d="M2123.44 770.153C2115.66 770.205 2107.96 768.47 2100.95 765.082C2093.94 761.694 2087.79 756.742 2082.98 750.604C2078.26 744.629 2074.96 737.648 2073.35 730.196C2072.62 727.391 2073.04 724.411 2074.51 721.913C2075.97 719.415 2078.36 717.604 2081.16 716.878C2083.96 716.151 2086.93 716.569 2089.41 718.04C2091.9 719.51 2093.71 721.913 2094.43 724.719C2095.4 729.106 2097.34 733.218 2100.11 736.749C2103.65 741.257 2108.4 744.661 2113.8 746.563C2119.2 748.465 2125.03 748.786 2130.61 747.49C2136.11 746.368 2141.16 743.655 2145.13 739.684C2149.11 735.713 2151.84 730.659 2152.98 725.148C2153.48 722.686 2154.82 720.477 2156.78 718.907C2158.74 717.337 2161.18 716.505 2163.68 716.555C2166.52 716.555 2169.24 717.687 2171.25 719.701C2173.26 721.716 2174.39 724.448 2174.39 727.296C2174.49 728.117 2174.49 728.947 2174.39 729.767C2172.36 739.277 2167.61 747.988 2160.73 754.836C2153.85 761.684 2145.13 766.372 2135.64 768.327C2131.66 769.434 2127.56 770.047 2123.44 770.153V770.153Z" fill="#5EA7FF"/>
<path d="M2204.44 770.153C2196.66 770.205 2188.96 768.47 2181.95 765.082C2174.94 761.694 2168.79 756.742 2163.98 750.604C2159.26 744.629 2155.96 737.648 2154.35 730.196C2153.62 727.391 2154.04 724.411 2155.51 721.913C2156.97 719.415 2159.36 717.604 2162.16 716.878C2164.96 716.151 2167.93 716.569 2170.41 718.04C2172.9 719.51 2174.71 721.913 2175.43 724.719C2176.4 729.106 2178.34 733.218 2181.11 736.749C2184.65 741.257 2189.4 744.661 2194.8 746.563C2200.2 748.465 2206.03 748.786 2211.61 747.49C2217.11 746.368 2222.16 743.655 2226.13 739.684C2230.11 735.713 2232.84 730.659 2233.98 725.148C2234.48 722.686 2235.82 720.477 2237.78 718.907C2239.74 717.337 2242.18 716.505 2244.68 716.555C2247.52 716.555 2250.24 717.687 2252.25 719.701C2254.26 721.716 2255.39 724.448 2255.39 727.296C2255.49 728.117 2255.49 728.947 2255.39 729.767C2253.36 739.277 2248.61 747.988 2241.73 754.836C2234.85 761.684 2226.13 766.372 2216.64 768.327C2212.66 769.434 2208.56 770.047 2204.44 770.153V770.153Z" fill="#5EA7FF"/>
<path d="M1407.44 770C1399.66 770.051 1391.96 768.317 1384.95 764.929C1377.94 761.54 1371.79 756.588 1366.98 750.451C1362.26 744.476 1358.96 737.495 1357.35 730.043C1356.62 727.237 1357.04 724.258 1358.51 721.76C1359.97 719.262 1362.36 717.451 1365.16 716.724C1367.96 715.998 1370.93 716.416 1373.41 717.886C1375.9 719.357 1377.71 721.759 1378.43 724.565C1379.4 728.952 1381.34 733.064 1384.11 736.595C1387.65 741.104 1392.4 744.508 1397.8 746.409C1403.2 748.311 1409.03 748.633 1414.61 747.336C1420.11 746.215 1425.16 743.501 1429.13 739.53C1433.11 735.559 1435.84 730.506 1436.98 724.995C1437.48 722.532 1438.82 720.324 1440.78 718.754C1442.74 717.184 1445.18 716.351 1447.68 716.402C1450.52 716.402 1453.24 717.534 1455.25 719.548C1457.26 721.562 1458.39 724.294 1458.39 727.143C1458.49 727.963 1458.49 728.793 1458.39 729.614C1456.36 739.123 1451.61 747.835 1444.73 754.682C1437.85 761.53 1429.13 766.218 1419.64 768.174C1415.66 769.28 1411.56 769.893 1407.44 770V770Z" fill="#5EA7FF"/>
<path d="M1328.44 770C1320.66 770.051 1312.96 768.317 1305.95 764.929C1298.94 761.54 1292.79 756.588 1287.98 750.451C1283.26 744.476 1279.96 737.495 1278.35 730.043C1277.62 727.237 1278.04 724.258 1279.51 721.76C1280.97 719.262 1283.36 717.451 1286.16 716.724C1288.96 715.998 1291.93 716.416 1294.41 717.886C1296.9 719.357 1298.71 721.759 1299.43 724.565C1300.4 728.952 1302.34 733.064 1305.11 736.595C1308.65 741.104 1313.4 744.508 1318.8 746.409C1324.2 748.311 1330.03 748.633 1335.61 747.336C1341.11 746.215 1346.16 743.501 1350.13 739.53C1354.11 735.559 1356.84 730.506 1357.98 724.995C1358.48 722.532 1359.82 720.324 1361.78 718.754C1363.74 717.184 1366.18 716.351 1368.68 716.402C1371.52 716.402 1374.24 717.534 1376.25 719.548C1378.26 721.562 1379.39 724.294 1379.39 727.143C1379.49 727.963 1379.49 728.793 1379.39 729.614C1377.36 739.123 1372.61 747.835 1365.73 754.682C1358.85 761.53 1350.13 766.218 1340.64 768.174C1336.66 769.28 1332.56 769.893 1328.44 770V770Z" fill="#5EA7FF"/>
<path d="M1487.44 770C1479.66 770.051 1471.96 768.317 1464.95 764.929C1457.94 761.54 1451.79 756.588 1446.98 750.451C1442.26 744.476 1438.96 737.495 1437.35 730.043C1436.62 727.237 1437.04 724.258 1438.51 721.76C1439.97 719.262 1442.36 717.451 1445.16 716.724C1447.96 715.998 1450.93 716.416 1453.41 717.886C1455.9 719.357 1457.71 721.759 1458.43 724.565C1459.4 728.952 1461.34 733.064 1464.11 736.595C1467.65 741.104 1472.4 744.508 1477.8 746.409C1483.2 748.311 1489.03 748.633 1494.61 747.336C1500.11 746.215 1505.16 743.501 1509.13 739.53C1513.11 735.559 1515.84 730.506 1516.98 724.995C1517.48 722.532 1518.82 720.324 1520.78 718.754C1522.74 717.184 1525.18 716.351 1527.68 716.402C1530.52 716.402 1533.24 717.534 1535.25 719.548C1537.26 721.562 1538.39 724.294 1538.39 727.143C1538.49 727.963 1538.49 728.793 1538.39 729.614C1536.36 739.123 1531.61 747.835 1524.73 754.682C1517.85 761.53 1509.13 766.218 1499.64 768.174C1495.66 769.28 1491.56 769.893 1487.44 770V770Z" fill="#5EA7FF"/>
</g>
<path d="M737 1039.54C737 1091.87 778.98 1134 831.125 1134L2713.62 1134C2765.77 1134 2807.75 1091.87 2807.75 1039.54V94.9596C2807.75 42.6296 2765.77 0.50119 2713.62 0.50119L831.125 0.50119C778.98 0.50119 737 42.6296 737 94.9596L737 1039.54ZM784.062 1039.54V874.241C784.056 873.472 784.086 872.702 784.154 871.935C784.236 871.13 784.358 870.329 784.522 869.537C784.67 868.791 784.854 868.052 785.073 867.323C785.312 866.572 785.588 865.833 785.901 865.11C786.199 864.355 786.537 863.616 786.912 862.896C787.309 862.229 787.738 861.583 788.199 860.959C788.625 860.29 789.086 859.643 789.577 859.021C790.101 858.441 790.653 857.886 791.232 857.361C791.788 856.809 792.371 856.286 792.978 855.793C793.598 855.299 794.242 854.837 794.909 854.409C795.562 853.976 796.237 853.575 796.931 853.21C797.62 852.868 798.326 852.56 799.045 852.287C799.798 852.002 800.565 851.756 801.343 851.549C802.099 851.326 802.866 851.141 803.641 850.996C804.402 850.865 805.169 850.772 805.939 850.717C806.489 850.667 807.041 850.637 807.594 850.627H831.125C857.198 850.627 878.188 829.563 878.188 803.398V331.106C878.188 304.941 857.198 283.876 831.125 283.876H809.34C809.31 283.876 809.279 283.876 809.248 283.876H807.594C806.827 283.883 806.06 283.851 805.296 283.782C804.493 283.7 803.696 283.577 802.906 283.414C802.131 283.268 801.364 283.083 800.608 282.86C799.859 282.62 799.123 282.343 798.402 282.03C797.681 281.727 796.975 281.388 796.288 281.015C795.624 280.617 794.979 280.186 794.357 279.724C793.691 279.296 793.047 278.834 792.427 278.34C791.819 277.847 791.237 277.324 790.681 276.772C790.16 276.182 789.669 275.567 789.21 274.927C788.721 274.335 788.261 273.72 787.831 273.083C787.397 272.397 786.998 271.688 786.636 270.961C786.264 270.271 785.927 269.563 785.625 268.84C785.344 268.114 785.098 267.376 784.89 266.626C784.698 265.865 784.545 265.096 784.43 264.32C784.297 263.526 784.205 262.725 784.154 261.921C784.104 261.369 784.074 260.816 784.062 260.262L784.063 94.9596C784.063 68.7946 805.052 47.7304 831.125 47.7304L2713.62 47.7304C2739.7 47.7304 2760.69 68.7946 2760.69 94.9596V1039.54C2760.69 1065.71 2739.7 1086.77 2713.62 1086.77L831.125 1086.77C805.052 1086.77 784.062 1065.71 784.062 1039.54Z" fill="#57565C"/>
<path d="M2666.56 779.783V354.72C2666.56 341.638 2677.06 331.106 2690.09 331.106C2703.13 331.106 2713.63 341.638 2713.63 354.72V779.783C2713.63 792.865 2703.13 803.397 2690.09 803.397C2677.06 803.397 2666.56 792.865 2666.56 779.783Z" fill="#57565C"/>
<path d="M1167.47 1638C1165.04 1635.41 1163.77 1632.02 1163.89 1628.47C1164.36 1614.63 1166.18 1603.61 1168.69 1594.8C1160.48 1596.07 1151.07 1596.95 1140.5 1597.08V1676.79C1140.5 1685.7 1147.72 1692.91 1156.62 1692.91C1165.52 1692.91 1172.74 1685.7 1172.74 1676.79V1641.46C1170.75 1640.75 1168.95 1639.59 1167.47 1638ZM1135.13 1597.08C1122.79 1596.92 1112.03 1595.75 1102.9 1594.11V1676.79C1102.9 1685.69 1110.12 1692.91 1119.02 1692.91C1127.92 1692.91 1135.13 1685.69 1135.13 1676.79V1597.08ZM1053.11 1541.94C1058.84 1542.69 1064.1 1538.65 1064.86 1532.92C1071.53 1482.37 1084.54 1455.7 1095.66 1441.7L1067.97 1577.76C1067.97 1577.76 1092.17 1592.27 1137.82 1592.27C1150.28 1592.27 1161.12 1591.18 1170.33 1589.61C1177.31 1569.66 1187.82 1563.22 1191.37 1561.56C1192.59 1560.74 1193.91 1560.17 1195.3 1559.87C1189.99 1554.28 1186.71 1546.76 1186.71 1538.46C1186.71 1530.16 1190 1522.63 1195.31 1517.04L1180 1441.77C1189.22 1453.43 1199.78 1473.86 1206.9 1509.37C1209.4 1508.43 1212.03 1507.78 1214.79 1507.51C1214.68 1492.38 1215.32 1478.62 1216.72 1466.27C1197.62 1414.55 1170.42 1406.97 1164.11 1405.89C1161.35 1405.2 1149.68 1402.47 1137.82 1402.47C1125.97 1402.47 1114.29 1405.2 1111.53 1405.89C1103.22 1407.31 1058.62 1420.01 1044.09 1530.18C1043.33 1535.92 1047.37 1541.18 1053.11 1541.94Z" fill="#41A8FC"/>
<path d="M1137.82 1395.23C1156.96 1395.23 1172.47 1379.71 1172.47 1360.58C1172.47 1341.44 1156.96 1325.92 1137.82 1325.92C1118.68 1325.92 1103.17 1341.44 1103.17 1360.58C1103.17 1379.71 1118.68 1395.23 1137.82 1395.23Z" fill="#41A8FC"/>
<path d="M1744.09 1467.81C1741.31 1470.37 1738.14 1472.51 1734.67 1474.13C1738.39 1474.69 1741.4 1475.43 1743.82 1476.22C1743.82 1476.09 1743.81 1475.96 1743.81 1475.82C1743.81 1473.16 1743.91 1470.49 1744.09 1467.81ZM1753.43 1426.77C1754.19 1424.84 1754.98 1422.92 1755.82 1421.02H1761.16C1759.08 1425.52 1757.25 1430.15 1755.66 1434.86C1755.94 1436.71 1756.09 1438.61 1756.09 1440.53C1756.09 1448.32 1753.67 1455.55 1749.55 1461.53C1748.98 1466.28 1748.65 1471.06 1748.65 1475.82C1748.65 1476.61 1748.69 1477.38 1748.71 1478.16C1760.8 1483.78 1781.08 1499.97 1792.73 1546.43C1808.14 1553.16 1826.32 1556.09 1845.1 1556.09C1851.27 1556.09 1857.38 1555.77 1863.35 1555.11C1858.03 1551.38 1854.61 1545.14 1854.81 1538.16C1856.66 1473.36 1869.34 1429.7 1892.49 1408.4C1902.89 1398.83 1912.88 1396.09 1918.89 1395.37C1912.31 1387.66 1908.32 1377.66 1908.32 1366.74C1908.32 1359.24 1910.2 1352.17 1913.52 1345.98C1903.76 1339.69 1894.83 1336.79 1888.92 1335.45C1879.32 1349.39 1863.26 1358.54 1845.1 1358.54C1826.94 1358.54 1810.88 1349.39 1801.28 1335.45C1791.24 1337.72 1772.48 1344.5 1755.76 1364.74C1746.27 1376.22 1738.92 1390.17 1733.74 1406.51C1742.67 1410.39 1749.79 1417.7 1753.43 1426.77ZM1798.18 1575.38C1799.23 1583.09 1793.8 1590.2 1786.1 1591.24C1785.47 1591.33 1784.83 1591.37 1784.2 1591.37H1784.2C1781.19 1591.37 1778.38 1590.41 1776.07 1588.76L1793.19 1675.09C1793.19 1685.72 1803.83 1694.34 1816.96 1694.34C1830.09 1694.34 1840.74 1685.72 1840.74 1675.09V1560.87C1823.27 1560.45 1807.51 1557.51 1794.09 1552.22C1795.66 1559.27 1797.05 1566.97 1798.18 1575.38ZM1859.41 1643.46L1874.26 1558.71C1874.23 1558.71 1874.21 1558.71 1874.18 1558.71C1873.75 1558.7 1873.34 1558.65 1872.92 1558.61C1865.52 1559.91 1857.68 1560.67 1849.45 1560.87V1675.1C1849.45 1685.72 1860.1 1694.34 1873.23 1694.34C1886.36 1694.34 1897.01 1685.72 1897.01 1675.1L1900.01 1659.94C1876.38 1654.03 1863.35 1645.96 1862.51 1645.42L1859.41 1643.46Z" fill="#41A8FC"/>
<path d="M1845.1 1353.71C1871.8 1353.71 1893.45 1332.06 1893.45 1305.35C1893.45 1278.65 1871.8 1257 1845.1 1257C1818.39 1257 1796.74 1278.65 1796.74 1305.35C1796.74 1332.06 1818.39 1353.71 1845.1 1353.71Z" fill="#41A8FC"/>
<path d="M1617.51 1338.51C1637.54 1338.51 1653.78 1322.28 1653.78 1302.25C1653.78 1282.22 1637.54 1265.98 1617.51 1265.98C1597.48 1265.98 1581.25 1282.22 1581.25 1302.25C1581.25 1322.28 1597.48 1338.51 1617.51 1338.51Z" fill="#41A8FC"/>
<path d="M1561.83 1520.74C1562.63 1519.44 1563.2 1517.98 1563.49 1516.43C1560.44 1499.54 1556.63 1485.97 1552.54 1475.08L1561.83 1520.74Z" fill="#41A8FC"/>
<path d="M1566.22 1432.64C1568.21 1416.66 1570.99 1404.92 1573.92 1396.33V1445.92C1583.53 1464.82 1592.16 1491.58 1597.16 1529.51C1598.29 1538.05 1592.25 1545.92 1583.7 1547.05C1583.02 1547.14 1582.33 1547.19 1581.65 1547.19C1578.85 1547.19 1576.21 1546.43 1573.92 1545.11V1580.17L1573.95 1580.31L1573.92 1580.33V1673.03C1573.92 1684.04 1582.84 1692.96 1593.84 1692.96C1604.85 1692.96 1613.77 1684.04 1613.77 1673.03V1510.88H1621.24V1673.03C1621.24 1684.04 1630.17 1692.96 1641.17 1692.96C1652.17 1692.96 1661.1 1684.04 1661.1 1673.03V1589.34C1658.96 1590.63 1656.47 1591.37 1653.84 1591.37C1653.21 1591.37 1652.57 1591.33 1651.95 1591.24C1644.23 1590.2 1638.81 1583.08 1639.85 1575.38C1644.25 1542.84 1652.31 1520.86 1661.1 1506.02V1395.99C1666.83 1412.75 1672.06 1441.72 1671.75 1491.48C1679.26 1483.3 1686.46 1479.21 1691.6 1477.18C1693.18 1476.53 1695.11 1475.88 1697.44 1475.29C1697.41 1473.71 1697.38 1472.13 1697.34 1470.57C1688.02 1463.83 1681.95 1452.88 1681.95 1440.53C1681.95 1430.59 1685.88 1421.56 1692.27 1414.9C1687.58 1388.32 1679.78 1369.33 1668.88 1358.12C1662.26 1351.32 1655.93 1348.95 1651.91 1348.15C1650.87 1347.86 1649.77 1347.7 1648.64 1347.7H1586.37C1585.23 1347.7 1584.13 1347.86 1583.08 1348.15C1579.05 1348.96 1572.75 1351.32 1566.13 1358.12C1556.07 1368.48 1548.64 1385.47 1543.86 1408.95C1550.69 1413.67 1558.54 1421.07 1566.22 1432.64Z" fill="#41A8FC"/>
<path d="M2269.21 1338.51C2289.24 1338.51 2305.47 1322.28 2305.47 1302.25C2305.47 1282.22 2289.24 1265.98 2269.21 1265.98C2249.18 1265.98 2232.94 1282.22 2232.94 1302.25C2232.94 1322.28 2249.18 1338.51 2269.21 1338.51Z" fill="#41A8FC"/>
<path d="M2206.4 1428.24C2206.4 1441.3 2199.81 1452.85 2189.77 1459.74C2189.74 1460.41 2189.72 1461.09 2189.69 1461.76H2192.39C2192.87 1461.72 2193.34 1461.69 2193.82 1461.69C2194.22 1461.69 2194.62 1461.72 2195.01 1461.75L2195.29 1461.76C2195.87 1461.76 2196.44 1461.8 2197 1461.87C2203.53 1462.48 2209.76 1465.14 2215.22 1469.57C2216.33 1433.26 2220.79 1410.51 2225.61 1396.33V1481.68C2237.26 1500.63 2242.3 1532.3 2240.22 1574.34C2239.83 1582.34 2233.49 1588.66 2225.61 1589.15V1673.03C2225.61 1684.04 2234.54 1692.96 2245.54 1692.96C2256.55 1692.96 2265.47 1684.04 2265.47 1673.03V1510.88H2272.94V1673.03C2272.94 1684.04 2281.87 1692.96 2292.87 1692.96C2303.87 1692.96 2312.8 1684.04 2312.8 1673.03V1550.37C2310.58 1551.48 2308.15 1552.15 2305.61 1552.3C2305.24 1552.32 2304.88 1552.33 2304.52 1552.33C2294.81 1552.33 2286.76 1544.73 2286.19 1535.03C2282.13 1465.69 2291.09 1419.97 2312.8 1399.09V1395.99C2313.06 1396.75 2313.31 1397.55 2313.57 1398.36C2322.55 1390.08 2331.48 1387.78 2337.05 1387.26C2332.71 1374.69 2327.22 1364.96 2320.58 1358.12C2313.96 1351.32 2307.63 1348.95 2303.61 1348.15C2302.56 1347.86 2301.47 1347.7 2300.34 1347.7H2238.07C2236.93 1347.7 2235.83 1347.86 2234.78 1348.15C2230.75 1348.96 2224.45 1351.32 2217.83 1358.12C2208.64 1367.58 2201.64 1382.6 2196.86 1403.03C2202.79 1409.76 2206.4 1418.58 2206.4 1428.24ZM1220.26 1507.48C1232.18 1508.41 1242.24 1516.08 1246.59 1526.7C1244.13 1474.24 1250.32 1445.79 1257.24 1431.39V1573.41C1263.97 1583.01 1270.76 1599.72 1271.73 1628.47C1271.85 1632.02 1270.58 1635.41 1268.16 1638C1265.73 1640.6 1262.44 1642.09 1258.89 1642.21L1258.44 1642.22C1258.03 1642.22 1257.63 1642.2 1257.24 1642.16V1673.2C1257.24 1684.21 1266.16 1693.13 1277.17 1693.13C1288.17 1693.13 1297.1 1684.21 1297.1 1673.2V1527.71H1304.57V1673.2C1304.57 1684.21 1313.49 1693.13 1324.49 1693.13C1335.5 1693.13 1344.42 1684.21 1344.42 1673.2V1588.37C1338.49 1586.37 1334.13 1580.93 1333.8 1574.34C1331.98 1537.45 1335.63 1508.54 1344.42 1489.21V1431.39C1348.52 1439.92 1352.36 1453.37 1354.31 1473.8C1354.5 1473.58 1354.69 1473.36 1354.89 1473.16C1361.19 1466.54 1368.88 1462.63 1377.14 1461.86C1377.59 1461.8 1378.16 1461.76 1378.74 1461.76L1378.92 1461.75C1378.57 1459.14 1378.19 1456.59 1377.76 1454.12C1371.48 1447.31 1367.63 1438.21 1367.63 1428.24C1367.63 1425.94 1367.84 1423.7 1368.23 1421.52C1364.62 1413.75 1360.26 1407.46 1355.17 1402.67C1346.12 1394.17 1337.29 1392.71 1332.75 1392.6C1332.49 1392.58 1332.23 1392.56 1331.97 1392.56H1269.7C1269.43 1392.56 1269.16 1392.59 1268.89 1392.6C1264.35 1392.72 1255.53 1394.18 1246.5 1402.67C1228.63 1419.45 1219.84 1454.66 1220.26 1507.48Z" fill="#41A8FC"/>
<path d="M1300.83 1383.37C1320.86 1383.37 1337.1 1367.14 1337.1 1347.11C1337.1 1327.08 1320.86 1310.84 1300.83 1310.84C1280.8 1310.84 1264.57 1327.08 1264.57 1347.11C1264.57 1367.14 1280.8 1383.37 1300.83 1383.37Z" fill="#41A8FC"/>
<path d="M1501.01 1597.08V1676.79C1501.01 1685.7 1508.23 1692.91 1517.13 1692.91C1526.03 1692.91 1533.24 1685.7 1533.24 1676.79V1594.11C1524.12 1595.75 1513.36 1596.92 1501.01 1597.08ZM1495.64 1597.08C1483.29 1596.92 1472.53 1595.75 1463.4 1594.11V1676.79C1463.4 1685.7 1470.62 1692.91 1479.52 1692.91C1488.42 1692.91 1495.64 1685.7 1495.64 1676.79V1597.08ZM1447.75 1579.44V1585.45C1449.95 1586.1 1452.34 1586.75 1454.91 1587.37C1451.68 1585.65 1449.13 1582.83 1447.75 1579.44ZM1424.12 1461.76H1430.02C1430.49 1461.72 1430.97 1461.69 1431.45 1461.69C1431.85 1461.69 1432.24 1461.72 1432.64 1461.75L1432.92 1461.76C1433.5 1461.76 1434.07 1461.8 1434.63 1461.87C1437.52 1462.14 1440.34 1462.82 1443.07 1463.86C1447.41 1454.22 1451.92 1447.04 1456.16 1441.7L1450.81 1468.02C1452.9 1469.5 1454.9 1471.19 1456.77 1473.16C1472.99 1490.2 1480.28 1525.19 1477.85 1574.34C1477.46 1582.33 1471.13 1588.65 1463.25 1589.15C1472.98 1590.97 1484.69 1592.27 1498.32 1592.27C1543.97 1592.27 1568.17 1577.76 1568.17 1577.76L1540.5 1441.77C1551.59 1455.8 1564.63 1482.5 1571.28 1532.92C1571.97 1538.19 1576.47 1542.03 1581.65 1542.03C1582.11 1542.03 1582.57 1542 1583.03 1541.93C1588.77 1541.18 1592.8 1535.91 1592.05 1530.18C1577.52 1420.01 1532.93 1407.31 1524.61 1405.89C1521.85 1405.2 1510.18 1402.47 1498.32 1402.47C1486.47 1402.47 1474.79 1405.2 1472.03 1405.89C1468.18 1406.55 1456.56 1409.63 1443.75 1423.66C1443.93 1425.16 1444.03 1426.69 1444.03 1428.24C1444.03 1442.68 1435.97 1455.27 1424.12 1461.76Z" fill="#41A8FC"/>
<path d="M1498.32 1395.23C1517.46 1395.23 1532.97 1379.71 1532.97 1360.58C1532.97 1341.44 1517.46 1325.92 1498.32 1325.92C1479.18 1325.92 1463.67 1341.44 1463.67 1360.58C1463.67 1379.71 1479.18 1395.23 1498.32 1395.23Z" fill="#41A8FC"/>
<path d="M1369.07 1498.28V1559.93H1442.59V1498.28C1447.68 1508.38 1453.91 1529.84 1451.77 1573.05C1451.49 1578.83 1455.94 1583.74 1461.72 1584.03C1461.9 1584.04 1462.07 1584.04 1462.24 1584.04C1467.79 1584.04 1472.42 1579.69 1472.7 1574.08C1475.06 1526.38 1468.25 1492.71 1453.03 1476.71C1447.56 1470.96 1441.04 1467.65 1434.04 1466.99C1433.67 1466.95 1433.3 1466.92 1432.92 1466.92H1432.74C1432.31 1466.9 1431.88 1466.85 1431.45 1466.85C1431.05 1466.85 1430.67 1466.88 1430.28 1466.92H1381.37C1380.99 1466.88 1380.6 1466.85 1380.2 1466.85C1379.77 1466.85 1379.34 1466.9 1378.91 1466.92H1378.73C1378.35 1466.92 1377.98 1466.95 1377.62 1466.99C1370.62 1467.65 1364.09 1470.96 1358.62 1476.71C1343.4 1492.7 1336.6 1526.38 1338.95 1574.08C1339.23 1579.69 1343.86 1584.04 1349.41 1584.04C1349.58 1584.04 1349.76 1584.04 1349.93 1584.03C1355.71 1583.74 1360.17 1578.83 1359.88 1573.05C1357.75 1529.84 1363.98 1508.38 1369.07 1498.28Z" fill="#41A8FC"/>
<path d="M1442.59 1564.77H1369.07V1676.25C1369.07 1685.49 1376.55 1692.97 1385.79 1692.97C1395.02 1692.97 1402.51 1685.49 1402.51 1676.25V1596.6H1409.14V1676.25C1409.14 1685.49 1416.63 1692.97 1425.87 1692.97C1435.1 1692.97 1442.59 1685.49 1442.59 1676.25V1564.77V1564.77Z" fill="#41A8FC"/>
<path d="M1405.83 1461.28C1424.08 1461.28 1438.87 1446.49 1438.87 1428.24C1438.87 1409.99 1424.08 1395.2 1405.83 1395.2C1387.58 1395.2 1372.79 1409.99 1372.79 1428.24C1372.79 1446.49 1387.58 1461.28 1405.83 1461.28Z" fill="#41A8FC"/>
<path d="M1714.48 1629.97C1704.31 1629.66 1695.51 1628.33 1688.26 1626.67V1679.46C1688.26 1686.7 1694.13 1692.57 1701.37 1692.57C1708.61 1692.57 1714.48 1686.7 1714.48 1679.46V1629.97V1629.97ZM1723.56 1629.97V1679.46C1723.56 1686.7 1729.43 1692.57 1736.67 1692.57C1743.91 1692.57 1749.78 1686.7 1749.78 1679.46V1626.67C1742.53 1628.33 1733.73 1629.66 1723.56 1629.97Z" fill="#41A8FC"/>
<path d="M1719.02 1472.77C1736.82 1472.77 1751.26 1458.34 1751.26 1440.53C1751.26 1422.73 1736.82 1408.3 1719.02 1408.3C1701.22 1408.3 1686.78 1422.73 1686.78 1440.53C1686.78 1458.34 1701.22 1472.77 1719.02 1472.77Z" fill="#41A8FC"/>
<path d="M1743.64 1481.27C1740.98 1480.28 1737.18 1479.27 1731.86 1478.62C1728.18 1478.02 1723.62 1477.49 1719.02 1477.49C1714.42 1477.49 1709.86 1478.02 1706.19 1478.62C1700.85 1479.27 1697.05 1480.28 1694.39 1481.28C1682.46 1485.46 1654.52 1502.99 1644.65 1576.03C1643.96 1581.1 1647.52 1585.77 1652.59 1586.45C1657.68 1587.13 1662.33 1583.58 1663.02 1578.51C1667.01 1548.99 1673.96 1530.29 1680.9 1518.45C1674.59 1547.65 1666.77 1589 1666.77 1614.82C1666.77 1614.82 1686.22 1626.02 1719.02 1626.02C1751.82 1626.02 1771.28 1614.82 1771.28 1614.82C1771.28 1589 1763.46 1547.65 1757.14 1518.45C1764.08 1530.28 1771.04 1548.99 1775.03 1578.51C1775.66 1583.16 1779.63 1586.54 1784.2 1586.53C1784.61 1586.53 1785.03 1586.51 1785.45 1586.45C1790.52 1585.77 1794.08 1581.1 1793.4 1576.03C1783.52 1502.95 1755.55 1485.44 1743.64 1481.27ZM1258.44 1637.38C1258.53 1637.38 1258.63 1637.38 1258.73 1637.38C1263.4 1637.22 1267.06 1633.31 1266.9 1628.63C1265.16 1577.19 1244.26 1566.81 1241.88 1565.8C1241.87 1565.79 1241.86 1565.79 1241.85 1565.79C1240.76 1564.96 1239.42 1564.44 1237.96 1564.44H1234.87C1229.96 1567.67 1224.11 1569.57 1217.81 1569.57C1211.52 1569.57 1205.66 1567.67 1200.76 1564.44H1197.67C1196.19 1564.44 1194.84 1564.97 1193.75 1565.81L1193.74 1565.8C1191.36 1566.81 1170.47 1577.19 1168.73 1628.64C1168.57 1633.31 1172.22 1637.22 1176.9 1637.38C1176.99 1637.38 1177.09 1637.39 1177.19 1637.39C1181.73 1637.39 1185.48 1633.78 1185.64 1629.21C1186.16 1613.74 1188.52 1603.08 1191.22 1595.81V1681.17C1191.22 1687.85 1196.63 1693.26 1203.31 1693.26C1209.98 1693.26 1215.39 1687.85 1215.39 1681.17V1642.49H1220.23V1681.17C1220.23 1687.85 1225.64 1693.26 1232.32 1693.26C1239 1693.26 1244.41 1687.85 1244.41 1681.17V1595.67C1247.09 1602.94 1249.46 1613.63 1249.99 1629.21C1250.14 1633.78 1253.9 1637.38 1258.44 1637.38Z" fill="#41A8FC"/>
<path d="M1217.81 1563.12C1231.43 1563.12 1242.47 1552.08 1242.47 1538.46C1242.47 1524.84 1231.43 1513.8 1217.81 1513.8C1204.19 1513.8 1193.15 1524.84 1193.15 1538.46C1193.15 1552.08 1204.19 1563.12 1217.81 1563.12Z" fill="#41A8FC"/>
<path d="M1874.36 1553.23C1874.51 1553.24 1874.65 1553.24 1874.79 1553.24C1875.16 1553.24 1875.52 1553.21 1875.88 1553.19L1887.87 1484.77C1885.98 1477.47 1886.67 1469.49 1890.45 1462.31C1892.09 1459.2 1894.19 1456.5 1896.6 1454.2C1896.01 1455.1 1895.46 1456.03 1894.95 1457C1886.55 1472.95 1892.67 1492.69 1908.62 1501.09C1917.82 1505.93 1928.27 1505.92 1937.08 1502.01C1927.68 1509.06 1914.7 1510.56 1903.61 1504.71C1898.32 1501.93 1894.18 1497.83 1891.32 1493.05L1865.44 1640.79C1865.44 1640.79 1896.86 1660.67 1952.48 1660.67C1981.3 1660.67 2003.61 1655.33 2018.43 1650.19V1538.92C2017.69 1541.57 2016.34 1544.05 2014.46 1546.17C2011.2 1549.84 2006.7 1552.02 2001.8 1552.3C2001.44 1552.32 2001.07 1552.33 2000.71 1552.33C1991 1552.34 1982.95 1544.74 1982.38 1535.03C1981.83 1525.52 1981.52 1516.47 1981.46 1507.86C1976.55 1507.02 1971.89 1505.03 1967.87 1502.01C1972.12 1503.9 1976.75 1504.87 1981.44 1504.83C1981.38 1459.35 1988.29 1426.65 2002.06 1407.21C1991.85 1400.52 1983.32 1400.54 1981.44 1400.64C1981.1 1400.65 1980.77 1400.7 1980.45 1400.74C1980.36 1400.74 1980.28 1400.73 1980.2 1400.73H1978.31C1971.13 1406.2 1962.18 1409.46 1952.47 1409.46C1942.77 1409.46 1933.81 1406.2 1926.63 1400.73H1924.75C1924.66 1400.73 1924.58 1400.74 1924.5 1400.74C1924.17 1400.7 1923.84 1400.65 1923.51 1400.64C1921.22 1400.51 1909.17 1400.49 1896.19 1412.44C1874.18 1432.7 1862.09 1475.05 1860.28 1538.32C1860.05 1546.33 1866.36 1553.01 1874.36 1553.23ZM1949.09 1665.47C1934.26 1665.26 1921.18 1663.69 1909.99 1661.5L1912.15 1678.79C1912.15 1687.04 1920.42 1693.74 1930.62 1693.74C1940.82 1693.74 1949.09 1687.04 1949.09 1678.79V1665.47ZM1955.86 1665.47V1678.79C1955.86 1687.04 1964.13 1693.74 1974.34 1693.74C1984.53 1693.74 1992.81 1687.04 1992.81 1678.79L1994.96 1661.5C1983.77 1663.69 1970.7 1665.26 1955.86 1665.47Z" fill="#41A8FC"/>
<path d="M1952.48 1405.43C1973.84 1405.43 1991.16 1388.11 1991.16 1366.74C1991.16 1345.38 1973.84 1328.06 1952.48 1328.06C1931.11 1328.06 1913.79 1345.38 1913.79 1366.74C1913.79 1388.11 1931.11 1405.43 1952.48 1405.43Z" fill="#41A8FC"/>
<path d="M1987.86 1534.71C1988.26 1541.56 1993.94 1546.85 2000.72 1546.85C2000.97 1546.85 2001.23 1546.84 2001.48 1546.83C2008.59 1546.41 2014.02 1540.31 2013.6 1533.2C2010.29 1476.56 2016.71 1446.37 2023.91 1431.39V1673.2C2023.91 1684.21 2032.84 1693.13 2043.84 1693.13C2054.85 1693.13 2063.77 1684.21 2063.77 1673.2V1527.71H2071.24V1673.2C2071.24 1684.21 2080.16 1693.13 2091.17 1693.13C2102.17 1693.13 2111.1 1684.21 2111.1 1673.2V1589.17C2103.07 1588.82 2096.58 1582.44 2096.18 1574.34C2094.08 1531.93 2099.23 1500.08 2111.1 1481.19V1431.39C2114.94 1439.39 2118.56 1451.71 2120.59 1470.05C2126.2 1465.33 2132.65 1462.5 2139.51 1461.86C2139.96 1461.8 2140.53 1461.76 2141.11 1461.76L2141.39 1461.75C2141.78 1461.72 2142.18 1461.69 2142.58 1461.69C2143.06 1461.69 2143.54 1461.72 2144.01 1461.76H2145.59C2145.45 1460.73 2145.31 1459.7 2145.16 1458.69C2135.96 1451.7 2130 1440.66 2130 1428.24C2130 1423.94 2130.72 1419.81 2132.04 1415.95C2129.05 1410.69 2125.65 1406.25 2121.84 1402.67C2112.79 1394.17 2103.96 1392.71 2099.42 1392.6C2099.16 1392.58 2098.9 1392.56 2098.64 1392.56H2036.37C2036.1 1392.56 2035.83 1392.59 2035.56 1392.6C2031.02 1392.72 2022.2 1394.18 2013.17 1402.67C1992.39 1422.19 1983.87 1466.62 1987.86 1534.71Z" fill="#41A8FC"/>
<path d="M2067.5 1383.37C2087.53 1383.37 2103.77 1367.14 2103.77 1347.11C2103.77 1327.08 2087.53 1310.84 2067.5 1310.84C2047.47 1310.84 2031.24 1327.08 2031.24 1347.11C2031.24 1367.14 2047.47 1383.37 2067.5 1383.37Z" fill="#41A8FC"/>
<path d="M2339.37 1392.6C2334.82 1392.71 2326 1394.18 2316.97 1402.66C2296.19 1422.19 2287.68 1466.62 2291.66 1534.71C2292.06 1541.56 2297.74 1546.85 2304.52 1546.85C2304.77 1546.85 2305.03 1546.85 2305.29 1546.83C2312.4 1546.41 2317.82 1540.31 2317.41 1533.2C2314.09 1476.57 2320.51 1446.38 2327.72 1431.39V1673.21C2327.72 1684.21 2336.64 1693.13 2347.64 1693.13C2358.65 1693.13 2367.57 1684.21 2367.57 1673.21V1527.71H2375.05V1673.21C2375.05 1684.21 2383.97 1693.13 2394.97 1693.13C2405.98 1693.13 2414.9 1684.21 2414.9 1673.21V1641.62C2413.65 1642.01 2412.32 1642.22 2410.94 1642.22L2410.5 1642.21C2406.94 1642.09 2403.65 1640.6 2401.22 1638C2398.8 1635.41 2397.53 1632.02 2397.65 1628.47C2398.76 1595.76 2407.39 1578.64 2414.9 1569.84V1431.39C2421.57 1445.27 2427.56 1472.2 2425.78 1521.08C2431.38 1512.81 2440.85 1507.35 2451.57 1507.35C2451.68 1507.35 2451.78 1507.37 2451.89 1507.37C2452.29 1454.61 2443.49 1419.44 2425.64 1402.66C2416.6 1394.17 2407.76 1392.71 2403.23 1392.6C2402.97 1392.58 2402.71 1392.56 2402.44 1392.56H2340.17C2339.9 1392.56 2339.63 1392.58 2339.37 1392.6Z" fill="#41A8FC"/>
<path d="M2371.31 1383.37C2391.34 1383.37 2407.57 1367.14 2407.57 1347.11C2407.57 1327.08 2391.34 1310.84 2371.31 1310.84C2351.28 1310.84 2335.04 1327.08 2335.04 1347.11C2335.04 1367.14 2351.28 1383.37 2371.31 1383.37Z" fill="#41A8FC"/>
<path d="M2131.44 1564.77V1676.25C2131.44 1685.49 2138.93 1692.97 2148.17 1692.97C2157.4 1692.97 2164.88 1685.49 2164.88 1676.25V1596.6H2171.51V1676.25C2171.51 1685.49 2179 1692.97 2188.24 1692.97C2197.47 1692.97 2204.96 1685.49 2204.96 1676.25V1564.77H2131.44V1564.77Z" fill="#41A8FC"/>
<path d="M2224.62 1584.04C2230.17 1584.04 2234.79 1579.69 2235.07 1574.08C2237.43 1526.38 2230.63 1492.71 2215.41 1476.71C2209.93 1470.96 2203.41 1467.65 2196.41 1466.99C2196.04 1466.95 2195.67 1466.92 2195.29 1466.92H2195.11C2194.68 1466.9 2194.26 1466.85 2193.82 1466.85C2193.43 1466.85 2193.04 1466.88 2192.65 1466.92H2143.74C2143.36 1466.88 2142.97 1466.85 2142.57 1466.85C2142.14 1466.85 2141.72 1466.9 2141.29 1466.92H2141.11C2140.73 1466.92 2140.35 1466.95 2139.99 1466.99C2132.99 1467.65 2126.46 1470.96 2120.99 1476.71C2105.77 1492.7 2098.97 1526.38 2101.33 1574.08C2101.6 1579.69 2106.23 1584.04 2111.78 1584.04C2111.95 1584.04 2112.13 1584.04 2112.31 1584.03C2118.09 1583.74 2122.54 1578.83 2122.25 1573.05C2120.12 1529.84 2126.35 1508.38 2131.44 1498.28V1559.93H2204.96V1498.28C2210.05 1508.38 2216.28 1529.84 2214.14 1573.05C2213.86 1578.83 2218.31 1583.74 2224.09 1584.03C2224.27 1584.04 2224.44 1584.04 2224.62 1584.04Z" fill="#41A8FC"/>
<path d="M2168.2 1461.28C2186.45 1461.28 2201.24 1446.49 2201.24 1428.24C2201.24 1409.99 2186.45 1395.2 2168.2 1395.2C2149.95 1395.2 2135.16 1409.99 2135.16 1428.24C2135.16 1446.49 2149.95 1461.28 2168.2 1461.28Z" fill="#41A8FC"/>
<path d="M2468.62 1564.44C2463.72 1567.67 2457.86 1569.57 2451.57 1569.57C2445.27 1569.57 2439.42 1567.67 2434.52 1564.44H2431.42C2429.94 1564.44 2428.6 1564.97 2427.5 1565.81L2427.5 1565.8C2425.12 1566.81 2404.23 1577.19 2402.48 1628.64C2402.32 1633.31 2405.98 1637.22 2410.65 1637.38C2410.75 1637.38 2410.85 1637.38 2410.94 1637.38C2415.48 1637.38 2419.24 1633.78 2419.4 1629.21C2419.92 1613.74 2422.28 1603.08 2424.97 1595.81V1681.17C2424.97 1687.85 2430.39 1693.26 2437.06 1693.26C2443.74 1693.26 2449.15 1687.85 2449.15 1681.17V1642.49H2453.99V1681.17C2453.99 1687.85 2459.4 1693.26 2466.08 1693.26C2472.75 1693.26 2478.16 1687.85 2478.16 1681.17V1595.67C2480.85 1602.94 2483.21 1613.63 2483.74 1629.21C2483.9 1633.78 2487.65 1637.38 2492.19 1637.38C2492.29 1637.38 2492.39 1637.38 2492.49 1637.38C2497.16 1637.22 2500.82 1633.31 2500.66 1628.64C2498.91 1577.19 2478.02 1566.81 2475.64 1565.8C2475.63 1565.8 2475.62 1565.79 2475.6 1565.79C2474.52 1564.96 2473.18 1564.45 2471.72 1564.45H2468.62V1564.44Z" fill="#41A8FC"/>
<path d="M2451.57 1563.12C2465.19 1563.12 2476.23 1552.08 2476.23 1538.46C2476.23 1524.84 2465.19 1513.8 2451.57 1513.8C2437.95 1513.8 2426.91 1524.84 2426.91 1538.46C2426.91 1552.08 2437.95 1563.12 2451.57 1563.12Z" fill="#41A8FC"/>
<path fill-rule="evenodd" clip-rule="evenodd" d="M3368.7 203.719H3734.27C3754.09 203.719 3770.25 219.939 3770.25 239.827V254.27C3770.25 274.158 3754.09 290.38 3734.27 290.378H3368.7L3306.81 254.52C3304.08 252.936 3302.51 250.216 3302.51 247.05C3302.51 243.883 3304.08 241.163 3306.81 239.579L3368.7 203.719Z" fill="#FBE158"/>
<path fill-rule="evenodd" clip-rule="evenodd" d="M3769.03 263.595C3764.92 278.99 3750.88 290.382 3734.27 290.382H3368.7L3322.47 263.595H3769.03Z" fill="#F3B607"/>
<path fill-rule="evenodd" clip-rule="evenodd" d="M3306.81 239.579L3368.7 203.719V290.38L3306.81 254.52C3304.08 252.936 3302.51 250.216 3302.51 247.05C3302.51 243.883 3304.08 241.163 3306.81 239.579Z" fill="#57565C"/>
<path fill-rule="evenodd" clip-rule="evenodd" d="M3188.62 930.271C3117.75 930.271 3060.3 872.617 3060.3 801.498V371.336H3797.68C3811.46 371.336 3822.7 382.616 3822.7 396.445V905.162C3822.7 918.991 3811.46 930.27 3797.68 930.27H3188.62V930.271Z" fill="#41A8FC"/>
<path fill-rule="evenodd" clip-rule="evenodd" d="M3159.58 926.96C3102.7 913.756 3060.3 862.597 3060.3 801.498V371.336H3159.58V926.96Z" fill="#60B7FF"/>
<path fill-rule="evenodd" clip-rule="evenodd" d="M3060.3 801.497V371.336C3060.3 312.179 3127.83 264.223 3167.03 264.223C3192.93 264.223 3201.06 266.504 3208.13 270.684C3215.98 275.326 3220.45 283.174 3220.45 292.316V672.359C3220.45 680.226 3217.21 686.998 3211.1 691.928C3204.99 696.858 3197.71 698.572 3190.05 696.881C3182.64 695.245 3174.94 694.382 3167.03 694.382C3108.08 694.384 3060.3 742.34 3060.3 801.497Z" fill="#8AC9FE"/>
<path fill-rule="evenodd" clip-rule="evenodd" d="M3259.04 783.516C3252.25 783.516 3246.75 777.99 3246.75 771.175C3246.75 764.36 3252.25 758.835 3259.04 758.835H3296.06C3302.85 758.835 3308.36 764.36 3308.36 771.175C3308.36 777.99 3302.85 783.516 3296.06 783.516H3259.04Z" fill="#FFE177"/>
<path fill-rule="evenodd" clip-rule="evenodd" d="M3339.61 783.516C3332.82 783.516 3327.31 777.99 3327.31 771.175C3327.31 764.36 3332.82 758.835 3339.61 758.835H3478.61C3485.4 758.835 3490.9 764.36 3490.9 771.175C3490.9 777.99 3485.4 783.516 3478.61 783.516H3339.61Z" fill="#ECEFF1"/>
<path fill-rule="evenodd" clip-rule="evenodd" d="M3259.04 836.348C3252.25 836.348 3246.75 830.823 3246.75 824.008C3246.75 817.193 3252.25 811.667 3259.04 811.667H3296.06C3302.85 811.667 3308.36 817.193 3308.36 824.008C3308.36 830.823 3302.85 836.348 3296.06 836.348H3259.04Z" fill="#6CF5C2"/>
<path fill-rule="evenodd" clip-rule="evenodd" d="M3339.61 836.348C3332.82 836.348 3327.31 830.823 3327.31 824.008C3327.31 817.193 3332.82 811.667 3339.61 811.667H3478.61C3485.4 811.667 3490.9 817.193 3490.9 824.008C3490.9 830.823 3485.4 836.348 3478.61 836.348H3339.61ZM3547.78 541.912C3540.99 541.912 3535.48 536.386 3535.48 529.571C3535.48 522.756 3540.99 517.231 3547.78 517.231H3655.57C3662.36 517.231 3667.87 522.756 3667.87 529.571C3667.87 536.386 3662.36 541.912 3655.57 541.912H3547.78Z" fill="#ECEFF1"/>
<path fill-rule="evenodd" clip-rule="evenodd" d="M3547.78 490.792C3540.99 490.792 3535.48 485.266 3535.48 478.451C3535.48 471.636 3540.99 466.111 3547.78 466.111H3763.36C3770.15 466.111 3775.66 471.636 3775.66 478.451C3775.66 485.266 3770.15 490.792 3763.36 490.792H3547.78Z" fill="#FFE177"/>
<path fill-rule="evenodd" clip-rule="evenodd" d="M3729.05 627.718H3755.67C3759.91 627.718 3763.36 631.182 3763.36 635.431V830.758C3763.36 835.006 3759.91 838.471 3755.67 838.471H3729.05C3724.82 838.471 3721.37 835.006 3721.37 830.758V635.429C3721.37 631.182 3724.82 627.718 3729.05 627.718Z" fill="#6CF5C2"/>
<path fill-rule="evenodd" clip-rule="evenodd" d="M3638.73 678.031C3647.6 678.031 3656.47 678.031 3665.35 678.031C3669.58 678.031 3673.03 681.496 3673.03 685.744C3673.03 734.083 3673.03 782.419 3673.03 830.758C3673.03 835.006 3669.58 838.471 3665.35 838.471C3656.47 838.471 3647.6 838.471 3638.73 838.471C3634.5 838.471 3631.04 835.006 3631.04 830.758C3631.04 782.419 3631.04 734.081 3631.04 685.744C3631.04 681.496 3634.5 678.031 3638.73 678.031Z" fill="#FFE177"/>
<path fill-rule="evenodd" clip-rule="evenodd" d="M3548.4 722.572C3557.27 722.572 3566.15 722.572 3575.02 722.572C3579.25 722.572 3582.71 726.037 3582.71 730.285C3582.71 763.775 3582.71 797.267 3582.71 830.758C3582.71 835.006 3579.25 838.471 3575.02 838.471C3566.15 838.471 3557.27 838.471 3548.4 838.471C3544.17 838.471 3540.72 835.006 3540.72 830.758C3540.72 797.266 3540.72 763.775 3540.72 730.285C3540.72 726.037 3544.17 722.572 3548.4 722.572Z" fill="#FE646F"/>
<path d="M3390.39 681.585C3454.06 681.585 3505.67 629.788 3505.67 565.893C3505.67 501.999 3454.06 450.202 3390.39 450.202C3326.72 450.202 3275.11 501.999 3275.11 565.893C3275.11 629.788 3326.72 681.585 3390.39 681.585Z" fill="#57565C"/>
<mask id="mask1_19_2" style="mask-type:alpha" maskUnits="userSpaceOnUse" x="3275" y="450" width="231" height="232">
<path d="M3390.39 681.585C3454.06 681.585 3505.67 629.788 3505.67 565.893C3505.67 501.999 3454.06 450.202 3390.39 450.202C3326.72 450.202 3275.11 501.999 3275.11 565.893C3275.11 629.788 3326.72 681.585 3390.39 681.585Z" fill="#837683"/>
</mask>
<g mask="url(#mask1_19_2)">
<path d="M3469.23 619.553C3466.49 624.321 3453.29 623.262 3449.62 627.353C3445.94 631.444 3448.37 644.51 3443.94 647.747C3439.5 650.983 3427.87 644.625 3422.85 646.865C3417.84 649.104 3414.77 662.033 3409.4 663.177C3404.03 664.322 3395.98 653.766 3390.5 653.767C3385.01 653.767 3376.96 664.322 3371.6 663.177C3366.23 662.033 3363.15 649.104 3358.14 646.865C3353.13 644.625 3341.5 650.983 3337.06 647.747C3332.62 644.511 3335.05 631.444 3331.38 627.353C3327.71 623.262 3314.51 624.321 3311.77 619.553C3309.02 614.785 3316.54 603.841 3314.84 598.605C3313.15 593.369 3300.66 588.948 3300.08 583.472C3299.51 577.997 3310.81 571.066 3311.39 565.591C3311.96 560.116 3302.34 550.979 3304.04 545.743C3305.73 540.507 3318.86 538.788 3321.61 534.02C3324.35 529.253 3319.27 516.979 3322.94 512.888C3326.61 508.796 3339.3 512.587 3343.74 509.351C3348.18 506.115 3348.51 492.828 3353.52 490.588C3358.53 488.349 3368.59 496.994 3373.96 495.85C3379.33 494.705 3385.01 482.701 3390.5 482.701C3395.98 482.701 3401.67 494.705 3407.04 495.85C3412.4 496.994 3422.46 488.349 3427.48 490.588C3432.49 492.828 3432.82 506.115 3437.26 509.351C3441.69 512.587 3454.39 508.796 3458.06 512.888C3461.73 516.979 3456.65 529.253 3459.39 534.02C3462.13 538.788 3475.27 540.507 3476.96 545.743C3478.66 550.979 3469.04 560.116 3469.61 565.591C3470.19 571.066 3481.49 577.997 3480.91 583.472C3480.34 588.948 3467.85 593.369 3466.15 598.605C3464.46 603.841 3471.97 614.785 3469.23 619.553V619.553Z" fill="#FED32F"/>
<path d="M3390.5 511.542C3398.54 511.542 3406.5 513.131 3413.93 516.218C3421.35 519.306 3428.1 523.831 3433.79 529.536C3439.47 535.241 3443.98 542.014 3447.06 549.468C3450.14 556.922 3451.72 564.911 3451.72 572.979C3451.72 589.273 3445.27 604.9 3433.79 616.422C3422.31 627.944 3406.73 634.417 3390.5 634.417C3382.46 634.417 3374.5 632.827 3367.07 629.74C3359.64 626.652 3352.89 622.127 3347.21 616.422C3341.52 610.717 3337.01 603.944 3333.94 596.49C3330.86 589.036 3329.28 581.047 3329.28 572.979C3329.28 564.911 3330.86 556.922 3333.94 549.468C3337.01 542.014 3341.52 535.241 3347.21 529.536C3352.89 523.831 3359.64 519.306 3367.07 516.218C3374.5 513.131 3382.46 511.541 3390.5 511.542V511.542Z" fill="#F9B22A"/>
<path d="M3299.48 598.501C3290.38 598.501 3281.28 606.648 3281.28 616.768V665.307C3281.28 675.427 3289.4 683.574 3299.48 683.574H3390.5H3481.51C3491.6 683.574 3499.72 675.427 3499.72 665.307V616.768C3499.72 606.648 3490.62 598.501 3481.51 598.501C3463.75 598.501 3458.3 616.779 3440.89 616.779C3423.48 616.779 3407.37 599.343 3390.56 599.343C3373.74 599.343 3357.51 616.779 3340.11 616.779C3322.7 616.779 3317.25 598.501 3299.48 598.501V598.501Z" fill="#D2E6FF"/>
<path d="M3299.48 626.918C3290.38 626.918 3281.28 635.066 3281.28 645.186V665.307C3281.28 675.427 3289.4 683.574 3299.48 683.574H3390.5H3481.51C3491.6 683.574 3499.72 675.427 3499.72 665.307V645.186C3499.72 635.066 3490.62 626.918 3481.51 626.918C3463.75 626.918 3458.3 645.197 3440.89 645.197C3423.48 645.197 3407.37 627.76 3390.56 627.76C3373.74 627.76 3357.51 645.197 3340.11 645.197C3322.7 645.197 3317.25 626.918 3299.48 626.918V626.918Z" fill="#5EA7FF"/>
</g>
<path fill-rule="evenodd" clip-rule="evenodd" d="M450 415.424C450 408.796 444.627 403.424 438 403.424H369C362.373 403.424 357 408.796 357 415.424V791.837C357 798.464 362.373 803.837 369 803.837H438C444.627 803.837 450 798.464 450 791.837V415.424Z" fill="#6CF5C2"/>
<path fill-rule="evenodd" clip-rule="evenodd" d="M311 587.03C311 580.402 305.627 575.03 299 575.03H229C222.373 575.03 217 580.402 217 587.03V791.837C217 798.465 222.373 803.837 229 803.837H299C305.627 803.837 311 798.465 311 791.837V587.03Z" fill="#FFE177"/>
<path d="M78 673.334C78 666.707 83.3726 661.334 90 661.334H159C165.627 661.334 171 666.707 171 673.334V791.837C171 798.465 165.627 803.837 159 803.837H90C83.3726 803.837 78 798.465 78 791.837V673.334Z" fill="#FE646F"/>
<path d="M31.0625 785.711V333.709C31.0625 329.576 29.4262 325.611 26.5135 322.688C23.6008 319.765 19.6504 318.123 15.5312 318.123C11.4121 318.123 7.46168 319.765 4.549 322.688C1.63633 325.611 0 329.576 0 333.709V816.883H481.469C485.588 816.883 489.538 815.241 492.451 812.318C495.364 809.395 497 805.431 497 801.297C497 797.163 495.364 793.199 492.451 790.276C489.538 787.353 485.588 785.711 481.469 785.711H31.0625Z" fill="#57565C"/>
<path d="M367.089 486.961C370.219 415.958 315.409 355.85 244.656 352.709C173.904 349.568 114.008 404.572 110.878 475.576C109.907 496.906 114.264 518.141 123.551 537.352L12.5264 649.058C21.4568 675.812 39.2556 693.635 65.9383 702.527L175.053 592.745C192.819 603.063 212.804 608.926 233.311 609.836C304.063 612.968 363.96 557.964 367.089 486.961V486.961Z" fill="#B2E4FA"/>
<path d="M244.656 352.709C173.904 349.56 114.008 404.572 110.878 475.575C109.908 496.905 114.264 518.141 123.551 537.351L12.5264 649.058C17.4964 663.966 25.3319 675.991 35.8155 685.351L329.651 390.474C307.775 368.459 278.041 354.189 244.656 352.709Z" fill="#D2E6FF"/>
<path d="M238.987 573.185C289.574 573.185 330.583 532.031 330.583 481.265C330.583 430.499 289.574 389.345 238.987 389.345C188.4 389.345 147.392 430.499 147.392 481.265C147.392 532.031 188.4 573.185 238.987 573.185Z" fill="#5EA7FF"/>
<path d="M243.033 389.438C192.494 387.193 149.713 426.486 147.477 477.196C146.289 504.067 156.796 528.678 174.385 546.282L303.768 416.433C287.627 400.088 265.941 390.449 243.033 389.438V389.438Z" fill="#B2E4FA"/>
<path d="M123.551 537.352L12.5264 649.058C21.4568 675.812 39.2556 693.635 65.9383 702.527L175.053 592.745C152.759 579.856 134.821 560.563 123.551 537.352V537.352Z" fill="#84462D"/>
<path d="M123.551 537.352L12.5264 649.059C17.4964 663.967 25.3319 675.992 35.8155 685.351L148.51 572.257C138.299 562.109 129.862 550.309 123.551 537.352V537.352Z" fill="#9C6144"/>
<path d="M151.476 616.452L175.045 592.737C152.75 579.856 134.814 560.564 123.551 537.352L98.0645 562.991L151.476 616.452Z" fill="#F3B607"/>
<path d="M123.551 537.352L98.0645 562.991L127.939 592.901L148.502 572.265C138.298 562.11 129.863 550.308 123.551 537.352Z" fill="#FBE158"/>
<defs>
<clipPath id="clip0_19_2">
<rect width="71.1651" height="71.1651" fill="white" transform="translate(1753.21 680) rotate(15.6565)"/>
</clipPath>
</defs>
</svg>
