<svg width="3823" height="1700" viewBox="0 0 3823 1700" fill="none" xmlns="http://www.w3.org/2000/svg">
<mask id="mask0_8_194" style="mask-type:alpha" maskUnits="userSpaceOnUse" x="1272" y="64" width="1000" height="1004">
<path d="M1772 1067.77C2048.14 1067.77 2272 843.118 2272 565.998C2272 288.877 2048.14 64.2267 1772 64.2267C1495.86 64.2267 1272 288.877 1272 565.998C1272 843.118 1495.86 1067.77 1772 1067.77Z" fill="#B2E4FA"/>
</mask>
<g mask="url(#mask0_8_194)">
<rect x="1278" y="749" width="977" height="322" fill="#5EA7FF"/>
<path d="M1912.44 933.731C1904.66 933.782 1896.96 932.048 1889.95 928.66C1882.94 925.271 1876.79 920.319 1871.98 914.182C1867.26 908.206 1863.96 901.225 1862.35 893.774C1861.62 890.968 1862.04 887.988 1863.51 885.491C1864.97 882.993 1867.36 881.182 1870.16 880.455C1872.96 879.729 1875.93 880.147 1878.41 881.617C1880.9 883.088 1882.71 885.49 1883.43 888.296C1884.4 892.683 1886.34 896.795 1889.11 900.326C1892.65 904.835 1897.4 908.239 1902.8 910.14C1908.2 912.042 1914.03 912.364 1919.61 911.067C1925.11 909.946 1930.16 907.232 1934.13 903.261C1938.11 899.29 1940.84 894.237 1941.98 888.726C1942.48 886.263 1943.82 884.054 1945.78 882.484C1947.74 880.914 1950.18 880.082 1952.68 880.133C1955.52 880.133 1958.24 881.265 1960.25 883.279C1962.26 885.293 1963.39 888.025 1963.39 890.874C1963.49 891.694 1963.49 892.524 1963.39 893.344C1961.36 902.854 1956.61 911.565 1949.73 918.413C1942.85 925.261 1934.13 929.949 1924.64 931.905C1920.66 933.011 1916.56 933.624 1912.44 933.731V933.731Z" fill="#D2E6FF"/>
<path d="M1993.44 933.731C1985.66 933.782 1977.96 932.048 1970.95 928.66C1963.94 925.271 1957.79 920.319 1952.98 914.182C1948.26 908.206 1944.96 901.225 1943.35 893.774C1942.62 890.968 1943.04 887.988 1944.51 885.491C1945.97 882.993 1948.36 881.182 1951.16 880.455C1953.96 879.729 1956.93 880.147 1959.41 881.617C1961.9 883.088 1963.71 885.49 1964.43 888.296C1965.4 892.683 1967.34 896.795 1970.11 900.326C1973.65 904.835 1978.4 908.239 1983.8 910.14C1989.2 912.042 1995.03 912.364 2000.61 911.067C2006.11 909.946 2011.16 907.232 2015.13 903.261C2019.11 899.29 2021.84 894.237 2022.98 888.726C2023.48 886.263 2024.82 884.054 2026.78 882.484C2028.74 880.914 2031.18 880.082 2033.68 880.133C2036.52 880.133 2039.24 881.265 2041.25 883.279C2043.26 885.293 2044.39 888.025 2044.39 890.874C2044.49 891.694 2044.49 892.524 2044.39 893.344C2042.36 902.854 2037.61 911.565 2030.73 918.413C2023.85 925.261 2015.13 929.949 2005.64 931.905C2001.66 933.011 1997.56 933.624 1993.44 933.731V933.731Z" fill="#D2E6FF"/>
<path d="M1507.44 880.543C1499.66 880.595 1491.96 878.86 1484.95 875.472C1477.94 872.084 1471.79 867.132 1466.98 860.994C1462.26 855.019 1458.96 848.038 1457.35 840.586C1456.62 837.78 1457.04 834.801 1458.51 832.303C1459.97 829.805 1462.36 827.994 1465.16 827.267C1467.96 826.541 1470.93 826.959 1473.41 828.429C1475.9 829.9 1477.71 832.302 1478.43 835.108C1479.4 839.495 1481.34 843.608 1484.11 847.138C1487.65 851.647 1492.4 855.051 1497.8 856.953C1503.2 858.854 1509.03 859.176 1514.61 857.879C1520.11 856.758 1525.16 854.044 1529.13 850.073C1533.11 846.103 1535.84 841.049 1536.98 835.538C1537.48 833.075 1538.82 830.867 1540.78 829.297C1542.74 827.726 1545.18 826.894 1547.68 826.945C1550.52 826.945 1553.24 828.077 1555.25 830.091C1557.26 832.105 1558.39 834.837 1558.39 837.686C1558.49 838.506 1558.49 839.336 1558.39 840.157C1556.36 849.666 1551.61 858.378 1544.73 865.226C1537.85 872.074 1529.13 876.762 1519.64 878.717C1515.66 879.824 1511.56 880.437 1507.44 880.543V880.543Z" fill="#D2E6FF"/>
<path d="M1588.44 880.543C1580.66 880.595 1572.96 878.86 1565.95 875.472C1558.94 872.084 1552.79 867.132 1547.98 860.994C1543.26 855.019 1539.96 848.038 1538.35 840.586C1537.62 837.78 1538.04 834.801 1539.51 832.303C1540.97 829.805 1543.36 827.994 1546.16 827.267C1548.96 826.541 1551.93 826.959 1554.41 828.429C1556.9 829.9 1558.71 832.302 1559.43 835.108C1560.4 839.495 1562.34 843.608 1565.11 847.138C1568.65 851.647 1573.4 855.051 1578.8 856.953C1584.2 858.854 1590.03 859.176 1595.61 857.879C1601.11 856.758 1606.16 854.044 1610.13 850.073C1614.11 846.103 1616.84 841.049 1617.98 835.538C1618.48 833.075 1619.82 830.867 1621.78 829.297C1623.74 827.726 1626.18 826.894 1628.68 826.945C1631.52 826.945 1634.24 828.077 1636.25 830.091C1638.26 832.105 1639.39 834.837 1639.39 837.686C1639.49 838.506 1639.49 839.336 1639.39 840.157C1637.36 849.666 1632.61 858.378 1625.73 865.226C1618.85 872.074 1610.13 876.762 1600.64 878.717C1596.66 879.824 1592.56 880.437 1588.44 880.543V880.543Z" fill="#D2E6FF"/>
<path d="M2044.48 770C2040.7 769.979 2036.94 769.583 2033.24 768.818C2021.9 766.462 2011.73 760.237 2004.45 751.203C1999.58 757.008 1993.52 761.676 1986.67 764.878C1979.81 768.08 1972.35 769.739 1964.79 769.739C1957.24 769.739 1949.77 768.08 1942.92 764.878C1936.07 761.676 1930 757.008 1925.14 751.203C1920.35 757.126 1914.29 761.892 1907.42 765.146C1900.54 768.4 1893.03 770.059 1885.43 770V770C1877.85 770.085 1870.34 768.459 1863.47 765.243C1856.59 762.026 1850.53 757.302 1845.72 751.418C1840.91 757.302 1834.85 762.026 1827.97 765.243C1821.1 768.459 1813.59 770.085 1806.01 770V770C1794.36 770.125 1783.02 766.222 1773.9 758.946C1764.78 751.669 1758.43 741.463 1755.92 730.043C1755.51 727.373 1756.11 724.644 1757.62 722.402C1759.12 720.159 1761.41 718.568 1764.03 717.944C1766.65 717.321 1769.41 717.711 1771.75 719.038C1774.1 720.365 1775.86 722.53 1776.68 725.102C1778.1 731.816 1781.8 737.826 1787.15 742.099C1792.51 746.372 1799.17 748.641 1806.01 748.518V748.518C1812.84 748.637 1819.49 746.364 1824.82 742.089C1830.16 737.815 1833.84 731.808 1835.23 725.102C1835.38 724.321 1835.63 723.563 1835.98 722.846C1836.91 720.525 1838.61 718.6 1840.8 717.404C1842.99 716.208 1845.52 715.815 1847.97 716.294C1850.06 716.764 1851.97 717.854 1853.44 719.425C1854.91 720.996 1855.87 722.974 1856.21 725.102C1857.62 731.78 1861.29 737.761 1866.6 742.03C1871.9 746.299 1878.52 748.591 1885.32 748.518V748.518C1892.15 748.637 1898.8 746.364 1904.13 742.089C1909.47 737.815 1913.15 731.808 1914.54 725.102C1914.69 724.321 1914.94 723.563 1915.29 722.846C1916.22 720.482 1917.96 718.525 1920.19 717.325C1922.43 716.126 1925.01 715.76 1927.49 716.294C1929.59 716.764 1931.49 717.854 1932.96 719.425C1934.43 720.996 1935.4 722.974 1935.73 725.102C1937.41 731.652 1941.23 737.446 1946.58 741.556C1951.94 745.666 1958.51 747.852 1965.25 747.766C1971.99 747.679 1978.5 745.324 1983.74 741.078C1988.99 736.832 1992.66 730.941 1994.17 724.35C1994.32 723.569 1994.58 722.811 1994.92 722.095C1995.88 720.112 1997.41 718.472 1999.33 717.396C2001.24 716.32 2003.44 715.86 2005.62 716.08C2007.84 716.313 2009.93 717.236 2011.6 718.719C2013.27 720.201 2014.44 722.17 2014.94 724.35C2015.99 730.002 2018.71 735.208 2022.73 739.303C2026.75 743.398 2031.9 746.195 2037.52 747.336C2043.1 748.606 2048.92 748.272 2054.31 746.372C2059.71 744.472 2064.46 741.083 2068.02 736.595C2070.6 733.119 2072.49 729.181 2073.59 724.995C2074.2 722.22 2075.89 719.802 2078.28 718.272C2080.66 716.742 2083.56 716.224 2086.33 716.832C2089.08 717.331 2091.53 718.892 2093.15 721.18C2094.77 723.469 2095.43 726.303 2095 729.076V729.613C2093.33 736.987 2090.16 743.935 2085.68 750.021C2080.83 756.327 2074.58 761.414 2067.42 764.881C2060.27 768.348 2052.42 770.1 2044.48 770V770Z" fill="#5EA7FF"/>
<path d="M1726.38 770C1714.94 770.102 1703.81 766.314 1694.79 759.253C1685.77 752.192 1679.4 742.275 1676.72 731.117C1676.31 729.98 1676.09 728.782 1676.07 727.572C1675.75 724.724 1676.56 721.862 1678.34 719.616C1680.12 717.37 1682.71 715.924 1685.55 715.596C1688.39 715.269 1691.24 716.086 1693.48 717.869C1695.71 719.651 1697.15 722.253 1697.48 725.102C1698.86 731.734 1702.48 737.686 1707.72 741.952C1712.97 746.218 1719.52 748.537 1726.27 748.517C1733.07 748.677 1739.71 746.461 1745.06 742.249C1750.41 738.036 1754.14 732.089 1755.6 725.424C1756.1 722.962 1757.44 720.753 1759.4 719.183C1761.36 717.613 1763.8 716.781 1766.3 716.831C1769.14 716.831 1771.86 717.963 1773.87 719.977C1775.88 721.992 1777 724.724 1777 727.572C1777.12 728.428 1777.12 729.295 1777 730.15C1774.46 741.642 1768.02 751.893 1758.79 759.159C1749.56 766.424 1738.11 770.255 1726.38 770V770Z" fill="#5EA7FF"/>
<path d="M1646.85 770C1635.19 770.166 1623.83 766.277 1614.7 758.994C1605.57 751.711 1599.23 741.482 1596.76 730.043C1596.35 727.373 1596.96 724.644 1598.46 722.402C1599.96 720.159 1602.25 718.568 1604.87 717.944C1607.49 717.321 1610.25 717.711 1612.6 719.038C1614.94 720.365 1616.7 722.53 1617.53 725.102C1619.08 731.721 1622.82 737.619 1628.13 741.84C1633.45 746.061 1640.02 748.358 1646.8 748.358C1653.58 748.358 1660.16 746.061 1665.47 741.84C1670.78 737.619 1674.52 731.721 1676.07 725.102C1676.57 722.639 1677.92 720.431 1679.88 718.861C1681.83 717.291 1684.27 716.459 1686.78 716.509C1689.62 716.509 1692.34 717.641 1694.35 719.655C1696.35 721.67 1697.48 724.402 1697.48 727.25C1697.58 728.07 1697.58 728.901 1697.48 729.721C1695.06 741.311 1688.67 751.686 1679.42 759.043C1670.18 766.4 1658.65 770.277 1646.85 770V770Z" fill="#5EA7FF"/>
<path d="M1567.44 770C1559.66 770.051 1551.96 768.317 1544.95 764.929C1537.94 761.54 1531.79 756.588 1526.98 750.451C1522.26 744.476 1518.96 737.495 1517.35 730.043C1516.62 727.237 1517.04 724.258 1518.51 721.76C1519.97 719.262 1522.36 717.451 1525.16 716.724C1527.96 715.998 1530.93 716.416 1533.41 717.886C1535.9 719.357 1537.71 721.759 1538.43 724.565C1539.4 728.952 1541.34 733.064 1544.11 736.595C1547.65 741.104 1552.4 744.508 1557.8 746.409C1563.2 748.311 1569.03 748.633 1574.61 747.336C1580.11 746.215 1585.16 743.501 1589.13 739.53C1593.11 735.559 1595.84 730.506 1596.98 724.995C1597.48 722.532 1598.82 720.324 1600.78 718.754C1602.74 717.184 1605.18 716.351 1607.68 716.402C1610.52 716.402 1613.24 717.534 1615.25 719.548C1617.26 721.562 1618.39 724.294 1618.39 727.143C1618.49 727.963 1618.49 728.793 1618.39 729.614C1616.36 739.123 1611.61 747.835 1604.73 754.682C1597.85 761.53 1589.13 766.218 1579.64 768.174C1575.66 769.28 1571.56 769.893 1567.44 770V770Z" fill="#5EA7FF"/>
<path d="M2123.44 770.153C2115.66 770.205 2107.96 768.47 2100.95 765.082C2093.94 761.694 2087.79 756.742 2082.98 750.605C2078.26 744.629 2074.96 737.648 2073.35 730.197C2072.62 727.391 2073.04 724.411 2074.51 721.913C2075.97 719.416 2078.36 717.604 2081.16 716.878C2083.96 716.151 2086.93 716.569 2089.41 718.04C2091.9 719.51 2093.71 721.913 2094.43 724.719C2095.4 729.106 2097.34 733.218 2100.11 736.749C2103.65 741.257 2108.4 744.661 2113.8 746.563C2119.2 748.465 2125.03 748.786 2130.61 747.49C2136.11 746.369 2141.16 743.655 2145.13 739.684C2149.11 735.713 2151.84 730.659 2152.98 725.148C2153.48 722.686 2154.82 720.477 2156.78 718.907C2158.74 717.337 2161.18 716.505 2163.68 716.556C2166.52 716.556 2169.24 717.687 2171.25 719.702C2173.26 721.716 2174.39 724.448 2174.39 727.297C2174.49 728.117 2174.49 728.947 2174.39 729.767C2172.36 739.277 2167.61 747.988 2160.73 754.836C2153.85 761.684 2145.13 766.372 2135.64 768.327C2131.66 769.434 2127.56 770.047 2123.44 770.153V770.153Z" fill="#5EA7FF"/>
<path d="M2204.44 770.153C2196.66 770.205 2188.96 768.47 2181.95 765.082C2174.94 761.694 2168.79 756.742 2163.98 750.605C2159.26 744.629 2155.96 737.648 2154.35 730.197C2153.62 727.391 2154.04 724.411 2155.51 721.913C2156.97 719.416 2159.36 717.604 2162.16 716.878C2164.96 716.151 2167.93 716.569 2170.41 718.04C2172.9 719.51 2174.71 721.913 2175.43 724.719C2176.4 729.106 2178.34 733.218 2181.11 736.749C2184.65 741.257 2189.4 744.661 2194.8 746.563C2200.2 748.465 2206.03 748.786 2211.61 747.49C2217.11 746.369 2222.16 743.655 2226.13 739.684C2230.11 735.713 2232.84 730.659 2233.98 725.148C2234.48 722.686 2235.82 720.477 2237.78 718.907C2239.74 717.337 2242.18 716.505 2244.68 716.556C2247.52 716.556 2250.24 717.687 2252.25 719.702C2254.26 721.716 2255.39 724.448 2255.39 727.297C2255.49 728.117 2255.49 728.947 2255.39 729.767C2253.36 739.277 2248.61 747.988 2241.73 754.836C2234.85 761.684 2226.13 766.372 2216.64 768.327C2212.66 769.434 2208.56 770.047 2204.44 770.153V770.153Z" fill="#5EA7FF"/>
<path d="M1407.44 770C1399.66 770.051 1391.96 768.317 1384.95 764.929C1377.94 761.54 1371.79 756.588 1366.98 750.451C1362.26 744.476 1358.96 737.495 1357.35 730.043C1356.62 727.237 1357.04 724.258 1358.51 721.76C1359.97 719.262 1362.36 717.451 1365.16 716.724C1367.96 715.998 1370.93 716.416 1373.41 717.886C1375.9 719.357 1377.71 721.759 1378.43 724.565C1379.4 728.952 1381.34 733.064 1384.11 736.595C1387.65 741.104 1392.4 744.508 1397.8 746.409C1403.2 748.311 1409.03 748.633 1414.61 747.336C1420.11 746.215 1425.16 743.501 1429.13 739.53C1433.11 735.559 1435.84 730.506 1436.98 724.995C1437.48 722.532 1438.82 720.324 1440.78 718.754C1442.74 717.184 1445.18 716.351 1447.68 716.402C1450.52 716.402 1453.24 717.534 1455.25 719.548C1457.26 721.562 1458.39 724.294 1458.39 727.143C1458.49 727.963 1458.49 728.793 1458.39 729.614C1456.36 739.123 1451.61 747.835 1444.73 754.682C1437.85 761.53 1429.13 766.218 1419.64 768.174C1415.66 769.28 1411.56 769.893 1407.44 770V770Z" fill="#5EA7FF"/>
<path d="M1328.44 770C1320.66 770.051 1312.96 768.317 1305.95 764.929C1298.94 761.54 1292.79 756.588 1287.98 750.451C1283.26 744.476 1279.96 737.495 1278.35 730.043C1277.62 727.237 1278.04 724.258 1279.51 721.76C1280.97 719.262 1283.36 717.451 1286.16 716.724C1288.96 715.998 1291.93 716.416 1294.41 717.886C1296.9 719.357 1298.71 721.759 1299.43 724.565C1300.4 728.952 1302.34 733.064 1305.11 736.595C1308.65 741.104 1313.4 744.508 1318.8 746.409C1324.2 748.311 1330.03 748.633 1335.61 747.336C1341.11 746.215 1346.16 743.501 1350.13 739.53C1354.11 735.559 1356.84 730.506 1357.98 724.995C1358.48 722.532 1359.82 720.324 1361.78 718.754C1363.74 717.184 1366.18 716.351 1368.68 716.402C1371.52 716.402 1374.24 717.534 1376.25 719.548C1378.26 721.562 1379.39 724.294 1379.39 727.143C1379.49 727.963 1379.49 728.793 1379.39 729.614C1377.36 739.123 1372.61 747.835 1365.73 754.682C1358.85 761.53 1350.13 766.218 1340.64 768.174C1336.66 769.28 1332.56 769.893 1328.44 770V770Z" fill="#5EA7FF"/>
<path d="M1487.44 770C1479.66 770.051 1471.96 768.317 1464.95 764.929C1457.94 761.54 1451.79 756.588 1446.98 750.451C1442.26 744.476 1438.96 737.495 1437.35 730.043C1436.62 727.237 1437.04 724.258 1438.51 721.76C1439.97 719.262 1442.36 717.451 1445.16 716.724C1447.96 715.998 1450.93 716.416 1453.41 717.886C1455.9 719.357 1457.71 721.759 1458.43 724.565C1459.4 728.952 1461.34 733.064 1464.11 736.595C1467.65 741.104 1472.4 744.508 1477.8 746.409C1483.2 748.311 1489.03 748.633 1494.61 747.336C1500.11 746.215 1505.16 743.501 1509.13 739.53C1513.11 735.559 1515.84 730.506 1516.98 724.995C1517.48 722.532 1518.82 720.324 1520.78 718.754C1522.74 717.184 1525.18 716.351 1527.68 716.402C1530.52 716.402 1533.24 717.534 1535.25 719.548C1537.26 721.562 1538.39 724.294 1538.39 727.143C1538.49 727.963 1538.49 728.793 1538.39 729.614C1536.36 739.123 1531.61 747.835 1524.73 754.682C1517.85 761.53 1509.13 766.218 1499.64 768.174C1495.66 769.28 1491.56 769.893 1487.44 770V770Z" fill="#5EA7FF"/>
</g>
</svg>
