<svg width="3823" height="1700" viewBox="0 0 3823 1700" fill="none" xmlns="http://www.w3.org/2000/svg">
<path d="M1772 1067.77C2048.14 1067.77 2272 843.118 2272 565.998C2272 288.877 2048.14 64.2267 1772 64.2267C1495.86 64.2267 1272 288.877 1272 565.998C1272 843.118 1495.86 1067.77 1772 1067.77Z" fill="#B2E4FA"/>
<path d="M1847.01 545.748C1836.91 581.74 1830.78 618.74 1828.74 656.077L1826.62 692.971C1839.67 696.655 1858.88 701.367 1873.71 705.556L1927.92 501.278C1943.51 442.544 1948.81 436.826 1948.81 436.826L1945.98 430.811L1945.22 431.107C1921.51 441.879 1900.44 457.721 1883.48 477.524C1866.51 497.327 1854.07 520.612 1847.01 545.748Z" fill="#FED32F"/>
<path d="M1975.14 579.991C1966.07 616.259 1953.04 651.416 1936.31 684.825L1919.86 717.89C1906.72 714.576 1887.71 709.072 1872.77 705.305L1926.98 501.026C1942.57 442.293 1941.82 433.919 1941.82 433.919L1946.24 430.881L1946.76 431.519C1961.99 452.696 1972.42 476.957 1977.32 502.604C1982.22 528.251 1981.47 554.663 1975.14 579.991Z" fill="#FED32F"/>
<path d="M1878.13 689.243C1875.38 688.52 1873.04 686.731 1871.61 684.271C1870.17 681.811 1869.77 678.882 1870.5 676.126L1894.96 582.627C1895.68 579.872 1897.46 577.517 1899.92 576.08C1902.37 574.643 1905.29 574.243 1908.03 574.966C1910.78 575.69 1913.12 577.478 1914.56 579.938C1915.99 582.398 1916.39 585.328 1915.67 588.083L1891.2 681.582C1890.48 684.338 1888.7 686.693 1886.25 688.129C1883.79 689.566 1880.88 689.967 1878.13 689.243Z" fill="#F9B22A"/>
<path d="M1664.23 479.288L1715.19 693.393L1698.05 697.501L1647.09 483.396L1664.23 479.288Z" fill="#57565C"/>
<path d="M1618.84 326.097C1703.87 305.746 1788.98 353.643 1810.55 444.305C1811.7 449.069 1808.79 453.885 1804.04 455.041L1511.57 525.106C1506.82 526.227 1502.05 523.247 1500.94 518.476C1479.37 427.813 1533.75 346.499 1618.77 326.113L1620.78 334.577C1620.81 334.572 1620.83 334.567 1620.85 334.561L1618.84 326.097Z" fill="#E83030"/>
<path d="M1618.77 326.113C1618.77 326.113 1725.67 355.072 1752.37 467.296L1563.12 512.632C1536.43 400.408 1618.77 326.113 1618.77 326.113Z" fill="#FEF9E6"/>
<path d="M1499.42 787.16H2081.24C2017.75 675.648 1642.07 564.465 1499.42 787.16V787.16Z" fill="#F8E1C2"/>
<path d="M1499.42 787.16H1673.64L1800.35 660.002C1686.36 651.28 1566.85 681.879 1499.42 787.16V787.16Z" fill="#FCF1E2"/>
<g clip-path="url(#clip0_8_4)">
<path d="M1784.54 724.011C1784.14 723.904 1783.78 723.717 1783.46 723.462C1780.39 721.278 1776.65 720.231 1772.89 720.501C1772.37 720.558 1771.84 720.474 1771.36 720.258C1770.88 720.042 1770.47 719.702 1770.16 719.273C1769.72 718.44 1770.25 717.635 1771.37 717.487C1776.76 717.063 1782.12 718.566 1786.5 721.728C1787.38 722.436 1787.42 723.401 1786.61 723.882C1786.29 724.042 1785.94 724.136 1785.58 724.158C1785.23 724.18 1784.87 724.13 1784.54 724.011V724.011ZM1811.3 730.156L1806.27 728.748C1805.9 728.642 1805.58 728.39 1805.38 728.047C1805.19 727.704 1805.14 727.299 1805.25 726.92C1805.35 726.542 1805.61 726.221 1805.95 726.028C1806.29 725.835 1806.7 725.787 1807.07 725.893L1812.1 727.301C1812.48 727.407 1812.8 727.659 1812.99 728.002C1813.19 728.345 1813.23 728.75 1813.13 729.129C1813.02 729.507 1812.77 729.828 1812.43 730.021C1812.08 730.214 1811.68 730.262 1811.3 730.156V730.156ZM1750.66 713.16L1745.63 711.751C1745.25 711.645 1744.93 711.393 1744.74 711.05C1744.55 710.707 1744.5 710.302 1744.6 709.924C1744.71 709.545 1744.96 709.224 1745.3 709.031C1745.65 708.839 1746.05 708.79 1746.43 708.896L1751.46 710.304C1751.83 710.411 1752.16 710.663 1752.35 711.005C1752.54 711.348 1752.59 711.753 1752.48 712.132C1752.38 712.511 1752.13 712.832 1751.78 713.024C1751.44 713.217 1751.03 713.266 1750.66 713.16ZM1797.2 720.045L1762.93 710.442C1762.56 710.336 1762.23 710.084 1762.04 709.741C1761.85 709.398 1761.8 708.993 1761.91 708.614C1762.01 708.236 1762.27 707.915 1762.61 707.722C1762.95 707.529 1763.36 707.481 1763.73 707.587L1798 717.189C1798.38 717.296 1798.7 717.548 1798.89 717.891C1799.08 718.233 1799.13 718.639 1799.02 719.017C1798.92 719.396 1798.67 719.717 1798.32 719.909C1797.98 720.102 1797.58 720.151 1797.2 720.045Z" fill="#E83030"/>
<path d="M1774.45 718.783C1772.36 726.263 1760.4 735.969 1753.26 733.968C1746.12 731.968 1744.97 725.086 1747.07 717.605C1747.5 715.852 1748.28 714.201 1749.35 712.748C1750.42 711.295 1751.77 710.068 1753.32 709.137C1754.87 708.206 1756.59 707.59 1758.37 707.324C1760.16 707.058 1761.98 707.148 1763.73 707.587C1770.84 709.579 1776.58 711.188 1774.45 718.783ZM1807.02 734.438C1804.92 741.919 1800.36 747.2 1793.23 745.2C1786.09 743.199 1780.92 728.692 1783.01 721.212C1785.11 713.731 1790.92 715.205 1798 717.189C1799.72 717.725 1801.33 718.598 1802.72 719.756C1804.11 720.914 1805.26 722.335 1806.09 723.938C1806.93 725.541 1807.45 727.294 1807.6 729.096C1807.76 730.898 1807.57 732.713 1807.02 734.438V734.438Z" fill="#3C3B41"/>
<path d="M1812.1 727.301L1807.76 726.085C1806.93 723.939 1805.61 722.017 1803.9 720.47C1802.2 718.923 1800.16 717.795 1797.94 717.173L1763.68 707.571C1761.46 706.95 1759.13 706.853 1756.87 707.289C1754.61 707.724 1752.48 708.68 1750.66 710.08L1746.43 708.896C1746.05 708.79 1745.65 708.839 1745.3 709.031C1744.96 709.224 1744.71 709.545 1744.6 709.924C1744.5 710.302 1744.55 710.707 1744.74 711.05C1744.93 711.393 1745.25 711.645 1745.63 711.751L1748.26 712.487C1746.96 714.067 1746.01 715.897 1745.46 717.862C1742.95 726.798 1745.74 733.338 1752.88 735.339C1760.59 737.499 1772.67 728.567 1775.42 720.839C1776.43 720.705 1777.46 720.778 1778.44 721.053C1779.42 721.328 1780.33 721.8 1781.13 722.439C1779.41 730.456 1785.08 744.365 1792.85 746.542C1799.99 748.542 1805.77 744.403 1808.27 735.467C1808.82 733.5 1808.96 731.442 1808.67 729.42L1811.3 730.156C1811.68 730.262 1812.08 730.214 1812.43 730.021C1812.77 729.828 1813.02 729.507 1813.13 729.129C1813.23 728.75 1813.19 728.345 1812.99 728.002C1812.8 727.659 1812.48 727.407 1812.1 727.301ZM1753.68 732.483C1746.23 730.395 1747.12 722.916 1748.31 718.662C1749.16 715.633 1751.18 713.065 1753.92 711.524C1756.66 709.982 1759.91 709.593 1762.93 710.442C1771.21 712.763 1774.22 714.128 1772.75 719.353C1770.95 725.777 1759.84 734.212 1753.68 732.483ZM1782.15 719.554C1780.31 718.381 1778.17 717.779 1775.99 717.826C1776.15 716.497 1775.94 715.148 1775.38 713.931L1784.78 716.564C1783.64 717.293 1782.73 718.33 1782.15 719.554V719.554ZM1793.65 743.686C1787.48 741.958 1782.39 728.921 1784.18 722.554C1785.64 717.329 1788.92 717.724 1797.2 720.045C1800.23 720.894 1802.79 722.911 1804.33 725.653C1805.88 728.395 1806.27 731.637 1805.42 734.666C1804.2 739.006 1801.1 745.775 1793.65 743.686Z" fill="#E83030"/>
</g>
<defs>
<clipPath id="clip0_8_4">
<rect width="71.1651" height="71.1651" fill="white" transform="translate(1753.21 680) rotate(15.6565)"/>
</clipPath>
</defs>
</svg>
