<svg width="3823" height="1700" viewBox="0 0 3823 1700" fill="none" xmlns="http://www.w3.org/2000/svg">
<path d="M737 1039.54C737 1091.87 778.98 1134 831.125 1134L2713.62 1134C2765.77 1134 2807.75 1091.87 2807.75 1039.54V94.9598C2807.75 42.6299 2765.77 0.501434 2713.62 0.501434L831.125 0.501434C778.98 0.501434 737 42.6299 737 94.9598L737 1039.54ZM784.062 1039.54V874.242C784.056 873.472 784.086 872.702 784.154 871.935C784.236 871.13 784.358 870.33 784.522 869.537C784.67 868.791 784.854 868.052 785.073 867.323C785.312 866.572 785.588 865.833 785.901 865.11C786.199 864.355 786.537 863.616 786.912 862.896C787.309 862.23 787.738 861.583 788.199 860.959C788.625 860.29 789.086 859.644 789.577 859.022C790.101 858.441 790.653 857.887 791.232 857.361C791.788 856.809 792.371 856.286 792.978 855.793C793.598 855.299 794.242 854.838 794.909 854.409C795.562 853.976 796.237 853.576 796.931 853.21C797.62 852.868 798.326 852.56 799.045 852.288C799.798 852.002 800.565 851.756 801.343 851.549C802.099 851.326 802.866 851.142 803.641 850.996C804.402 850.865 805.169 850.772 805.939 850.717C806.489 850.668 807.041 850.638 807.594 850.627H831.125C857.198 850.627 878.188 829.563 878.188 803.398V331.106C878.188 304.941 857.198 283.877 831.125 283.877H809.34C809.31 283.877 809.279 283.877 809.248 283.877H807.594C806.827 283.883 806.06 283.851 805.296 283.782C804.493 283.701 803.696 283.578 802.906 283.414C802.131 283.268 801.364 283.083 800.608 282.86C799.859 282.621 799.123 282.343 798.402 282.03C797.681 281.727 796.975 281.389 796.288 281.016C795.624 280.617 794.979 280.186 794.357 279.724C793.691 279.296 793.047 278.834 792.427 278.34C791.819 277.847 791.237 277.324 790.681 276.772C790.16 276.183 789.669 275.567 789.21 274.928C788.721 274.336 788.261 273.72 787.831 273.083C787.397 272.397 786.998 271.689 786.636 270.961C786.264 270.271 785.927 269.563 785.625 268.84C785.344 268.115 785.098 267.376 784.89 266.626C784.698 265.866 784.545 265.096 784.43 264.32C784.297 263.526 784.205 262.725 784.154 261.922C784.104 261.37 784.074 260.816 784.062 260.262L784.063 94.9598C784.063 68.7949 805.052 47.7306 831.125 47.7306L2713.62 47.7306C2739.7 47.7306 2760.69 68.7949 2760.69 94.9598V1039.54C2760.69 1065.71 2739.7 1086.77 2713.62 1086.77L831.125 1086.77C805.052 1086.77 784.062 1065.71 784.062 1039.54Z" fill="#57565C"/>
<path d="M2666.56 779.783V354.72C2666.56 341.638 2677.06 331.106 2690.09 331.106C2703.13 331.106 2713.63 341.638 2713.63 354.72V779.783C2713.63 792.865 2703.13 803.398 2690.09 803.398C2677.06 803.398 2666.56 792.865 2666.56 779.783Z" fill="#57565C"/>
</svg>
