<svg width="3823" height="1700" viewBox="0 0 3823 1700" fill="none" xmlns="http://www.w3.org/2000/svg">
<path d="M1167.47 1638C1165.04 1635.41 1163.77 1632.02 1163.89 1628.47C1164.36 1614.63 1166.18 1603.61 1168.69 1594.8C1160.48 1596.07 1151.07 1596.95 1140.5 1597.08V1676.79C1140.5 1685.7 1147.72 1692.91 1156.62 1692.91C1165.52 1692.91 1172.74 1685.7 1172.74 1676.79V1641.46C1170.75 1640.75 1168.95 1639.59 1167.47 1638ZM1135.13 1597.08C1122.79 1596.92 1112.03 1595.75 1102.9 1594.11V1676.79C1102.9 1685.69 1110.12 1692.91 1119.02 1692.91C1127.92 1692.91 1135.13 1685.69 1135.13 1676.79V1597.08ZM1053.11 1541.94C1058.84 1542.69 1064.1 1538.65 1064.86 1532.92C1071.53 1482.37 1084.54 1455.7 1095.66 1441.7L1067.97 1577.76C1067.97 1577.76 1092.17 1592.27 1137.82 1592.27C1150.28 1592.27 1161.12 1591.18 1170.33 1589.61C1177.31 1569.66 1187.82 1563.22 1191.37 1561.56C1192.59 1560.74 1193.91 1560.17 1195.3 1559.87C1189.99 1554.28 1186.71 1546.76 1186.71 1538.46C1186.71 1530.16 1190 1522.63 1195.31 1517.04L1180 1441.77C1189.22 1453.43 1199.78 1473.86 1206.9 1509.37C1209.4 1508.43 1212.03 1507.78 1214.79 1507.51C1214.68 1492.38 1215.32 1478.62 1216.72 1466.27C1197.62 1414.55 1170.42 1406.97 1164.11 1405.89C1161.35 1405.2 1149.68 1402.47 1137.82 1402.47C1125.97 1402.47 1114.29 1405.2 1111.53 1405.89C1103.22 1407.31 1058.62 1420.01 1044.09 1530.18C1043.33 1535.92 1047.37 1541.18 1053.11 1541.94Z" fill="#41A8FC"/>
<path d="M1137.82 1395.23C1156.96 1395.23 1172.47 1379.71 1172.47 1360.58C1172.47 1341.44 1156.96 1325.92 1137.82 1325.92C1118.68 1325.92 1103.17 1341.44 1103.17 1360.58C1103.17 1379.71 1118.68 1395.23 1137.82 1395.23Z" fill="#41A8FC"/>
<path d="M1744.09 1467.81C1741.31 1470.37 1738.14 1472.51 1734.67 1474.13C1738.39 1474.69 1741.4 1475.43 1743.82 1476.22C1743.82 1476.09 1743.81 1475.96 1743.81 1475.82C1743.81 1473.16 1743.91 1470.49 1744.09 1467.81ZM1753.43 1426.77C1754.19 1424.84 1754.98 1422.92 1755.82 1421.02H1761.16C1759.08 1425.52 1757.25 1430.15 1755.66 1434.86C1755.94 1436.71 1756.09 1438.61 1756.09 1440.53C1756.09 1448.32 1753.67 1455.55 1749.55 1461.53C1748.98 1466.28 1748.65 1471.06 1748.65 1475.82C1748.65 1476.61 1748.69 1477.38 1748.71 1478.16C1760.8 1483.78 1781.08 1499.97 1792.73 1546.43C1808.14 1553.16 1826.32 1556.09 1845.1 1556.09C1851.27 1556.09 1857.38 1555.77 1863.35 1555.11C1858.03 1551.38 1854.61 1545.14 1854.81 1538.16C1856.66 1473.36 1869.34 1429.7 1892.49 1408.4C1902.89 1398.83 1912.88 1396.09 1918.89 1395.37C1912.31 1387.66 1908.32 1377.66 1908.32 1366.74C1908.32 1359.24 1910.2 1352.17 1913.52 1345.98C1903.76 1339.69 1894.83 1336.79 1888.92 1335.45C1879.32 1349.39 1863.26 1358.54 1845.1 1358.54C1826.94 1358.54 1810.88 1349.39 1801.28 1335.45C1791.24 1337.72 1772.48 1344.5 1755.76 1364.74C1746.27 1376.22 1738.92 1390.17 1733.74 1406.51C1742.67 1410.39 1749.79 1417.7 1753.43 1426.77ZM1798.18 1575.38C1799.23 1583.09 1793.8 1590.2 1786.1 1591.24C1785.47 1591.33 1784.83 1591.37 1784.2 1591.37H1784.2C1781.19 1591.37 1778.38 1590.41 1776.07 1588.76L1793.19 1675.09C1793.19 1685.72 1803.83 1694.34 1816.96 1694.34C1830.09 1694.34 1840.74 1685.72 1840.74 1675.09V1560.87C1823.27 1560.45 1807.51 1557.51 1794.09 1552.22C1795.66 1559.27 1797.05 1566.97 1798.18 1575.38ZM1859.41 1643.46L1874.26 1558.71C1874.23 1558.71 1874.21 1558.71 1874.18 1558.71C1873.75 1558.7 1873.34 1558.65 1872.92 1558.61C1865.52 1559.91 1857.68 1560.67 1849.45 1560.87V1675.1C1849.45 1685.72 1860.1 1694.34 1873.23 1694.34C1886.36 1694.34 1897.01 1685.72 1897.01 1675.1L1900.01 1659.94C1876.38 1654.03 1863.35 1645.96 1862.51 1645.42L1859.41 1643.46Z" fill="#41A8FC"/>
<path d="M1845.1 1353.71C1871.8 1353.71 1893.45 1332.06 1893.45 1305.35C1893.45 1278.65 1871.8 1257 1845.1 1257C1818.39 1257 1796.74 1278.65 1796.74 1305.35C1796.74 1332.06 1818.39 1353.71 1845.1 1353.71Z" fill="#41A8FC"/>
<path d="M1617.51 1338.51C1637.54 1338.51 1653.78 1322.28 1653.78 1302.25C1653.78 1282.22 1637.54 1265.98 1617.51 1265.98C1597.48 1265.98 1581.25 1282.22 1581.25 1302.25C1581.25 1322.28 1597.48 1338.51 1617.51 1338.51Z" fill="#41A8FC"/>
<path d="M1561.83 1520.74C1562.63 1519.44 1563.2 1517.98 1563.49 1516.43C1560.44 1499.54 1556.63 1485.97 1552.54 1475.08L1561.83 1520.74Z" fill="#41A8FC"/>
<path d="M1566.22 1432.64C1568.21 1416.66 1570.99 1404.92 1573.92 1396.33V1445.92C1583.53 1464.81 1592.16 1491.58 1597.16 1529.51C1598.29 1538.05 1592.25 1545.92 1583.7 1547.05C1583.02 1547.14 1582.33 1547.18 1581.65 1547.18C1578.85 1547.18 1576.21 1546.43 1573.92 1545.11V1580.17L1573.95 1580.31L1573.92 1580.33V1673.03C1573.92 1684.04 1582.84 1692.96 1593.84 1692.96C1604.85 1692.96 1613.77 1684.04 1613.77 1673.03V1510.88H1621.24V1673.03C1621.24 1684.04 1630.17 1692.96 1641.17 1692.96C1652.17 1692.96 1661.1 1684.04 1661.1 1673.03V1589.34C1658.96 1590.63 1656.47 1591.37 1653.84 1591.37C1653.21 1591.37 1652.57 1591.33 1651.95 1591.24C1644.23 1590.2 1638.81 1583.08 1639.85 1575.38C1644.25 1542.84 1652.31 1520.86 1661.1 1506.02V1395.99C1666.83 1412.75 1672.06 1441.71 1671.75 1491.48C1679.26 1483.3 1686.46 1479.21 1691.6 1477.18C1693.18 1476.53 1695.11 1475.88 1697.44 1475.29C1697.41 1473.71 1697.38 1472.13 1697.34 1470.57C1688.02 1463.83 1681.95 1452.88 1681.95 1440.53C1681.95 1430.59 1685.88 1421.56 1692.27 1414.9C1687.58 1388.32 1679.78 1369.33 1668.88 1358.12C1662.26 1351.32 1655.93 1348.95 1651.91 1348.15C1650.87 1347.86 1649.77 1347.7 1648.64 1347.7H1586.37C1585.23 1347.7 1584.13 1347.86 1583.08 1348.15C1579.05 1348.96 1572.75 1351.32 1566.13 1358.12C1556.07 1368.48 1548.64 1385.47 1543.86 1408.95C1550.69 1413.67 1558.54 1421.07 1566.22 1432.64Z" fill="#41A8FC"/>
<path d="M2269.21 1338.51C2289.24 1338.51 2305.47 1322.28 2305.47 1302.25C2305.47 1282.22 2289.24 1265.98 2269.21 1265.98C2249.18 1265.98 2232.94 1282.22 2232.94 1302.25C2232.94 1322.28 2249.18 1338.51 2269.21 1338.51Z" fill="#41A8FC"/>
<path d="M2206.4 1428.24C2206.4 1441.3 2199.81 1452.85 2189.77 1459.74C2189.74 1460.41 2189.72 1461.09 2189.69 1461.76H2192.39C2192.87 1461.72 2193.34 1461.69 2193.82 1461.69C2194.22 1461.69 2194.62 1461.72 2195.01 1461.75L2195.29 1461.76C2195.87 1461.76 2196.44 1461.8 2197 1461.87C2203.53 1462.48 2209.76 1465.14 2215.22 1469.57C2216.33 1433.26 2220.79 1410.51 2225.61 1396.33V1481.68C2237.26 1500.63 2242.3 1532.3 2240.22 1574.34C2239.83 1582.34 2233.49 1588.66 2225.61 1589.15V1673.03C2225.61 1684.04 2234.54 1692.96 2245.54 1692.96C2256.55 1692.96 2265.47 1684.04 2265.47 1673.03V1510.88H2272.94V1673.03C2272.94 1684.04 2281.87 1692.96 2292.87 1692.96C2303.87 1692.96 2312.8 1684.04 2312.8 1673.03V1550.36C2310.58 1551.48 2308.15 1552.15 2305.61 1552.3C2305.24 1552.32 2304.88 1552.33 2304.52 1552.33C2294.81 1552.33 2286.76 1544.73 2286.19 1535.03C2282.13 1465.69 2291.09 1419.97 2312.8 1399.09V1395.99C2313.06 1396.75 2313.31 1397.55 2313.57 1398.36C2322.55 1390.08 2331.48 1387.78 2337.05 1387.26C2332.71 1374.69 2327.22 1364.96 2320.58 1358.12C2313.96 1351.32 2307.63 1348.95 2303.61 1348.15C2302.56 1347.86 2301.47 1347.7 2300.34 1347.7H2238.07C2236.93 1347.7 2235.83 1347.86 2234.78 1348.15C2230.75 1348.96 2224.45 1351.32 2217.83 1358.12C2208.64 1367.58 2201.64 1382.6 2196.86 1403.03C2202.79 1409.76 2206.4 1418.58 2206.4 1428.24ZM1220.26 1507.48C1232.18 1508.41 1242.24 1516.08 1246.59 1526.7C1244.13 1474.24 1250.32 1445.79 1257.24 1431.39V1573.41C1263.97 1583.01 1270.76 1599.72 1271.73 1628.47C1271.85 1632.02 1270.58 1635.41 1268.16 1638C1265.73 1640.6 1262.44 1642.09 1258.89 1642.21L1258.44 1642.22C1258.03 1642.22 1257.63 1642.2 1257.24 1642.16V1673.2C1257.24 1684.21 1266.16 1693.13 1277.17 1693.13C1288.17 1693.13 1297.1 1684.21 1297.1 1673.2V1527.71H1304.57V1673.2C1304.57 1684.21 1313.49 1693.13 1324.49 1693.13C1335.5 1693.13 1344.42 1684.21 1344.42 1673.2V1588.37C1338.49 1586.37 1334.13 1580.93 1333.8 1574.34C1331.98 1537.45 1335.63 1508.54 1344.42 1489.21V1431.39C1348.52 1439.92 1352.36 1453.37 1354.31 1473.8C1354.5 1473.58 1354.69 1473.36 1354.89 1473.16C1361.19 1466.54 1368.88 1462.63 1377.14 1461.86C1377.59 1461.8 1378.16 1461.76 1378.74 1461.76L1378.92 1461.75C1378.57 1459.14 1378.19 1456.59 1377.76 1454.12C1371.48 1447.31 1367.63 1438.21 1367.63 1428.24C1367.63 1425.94 1367.84 1423.7 1368.23 1421.52C1364.62 1413.75 1360.26 1407.45 1355.17 1402.67C1346.12 1394.17 1337.29 1392.71 1332.75 1392.6C1332.49 1392.58 1332.23 1392.56 1331.97 1392.56H1269.7C1269.43 1392.56 1269.16 1392.59 1268.89 1392.6C1264.35 1392.72 1255.53 1394.18 1246.5 1402.67C1228.63 1419.45 1219.84 1454.66 1220.26 1507.48Z" fill="#41A8FC"/>
<path d="M1300.83 1383.37C1320.86 1383.37 1337.1 1367.14 1337.1 1347.11C1337.1 1327.08 1320.86 1310.84 1300.83 1310.84C1280.8 1310.84 1264.57 1327.08 1264.57 1347.11C1264.57 1367.14 1280.8 1383.37 1300.83 1383.37Z" fill="#41A8FC"/>
<path d="M1501.01 1597.08V1676.79C1501.01 1685.7 1508.23 1692.91 1517.13 1692.91C1526.03 1692.91 1533.24 1685.7 1533.24 1676.79V1594.11C1524.12 1595.75 1513.36 1596.92 1501.01 1597.08ZM1495.64 1597.08C1483.29 1596.92 1472.53 1595.75 1463.4 1594.11V1676.79C1463.4 1685.7 1470.62 1692.91 1479.52 1692.91C1488.42 1692.91 1495.64 1685.7 1495.64 1676.79V1597.08ZM1447.75 1579.44V1585.45C1449.95 1586.1 1452.34 1586.75 1454.91 1587.37C1451.68 1585.65 1449.13 1582.83 1447.75 1579.44ZM1424.12 1461.76H1430.02C1430.49 1461.72 1430.97 1461.69 1431.45 1461.69C1431.85 1461.69 1432.24 1461.72 1432.64 1461.75L1432.92 1461.76C1433.5 1461.76 1434.07 1461.8 1434.63 1461.87C1437.52 1462.14 1440.34 1462.82 1443.07 1463.86C1447.41 1454.22 1451.92 1447.04 1456.16 1441.7L1450.81 1468.02C1452.9 1469.5 1454.9 1471.19 1456.77 1473.16C1472.99 1490.2 1480.28 1525.19 1477.85 1574.34C1477.46 1582.33 1471.13 1588.65 1463.25 1589.15C1472.98 1590.97 1484.69 1592.27 1498.32 1592.27C1543.97 1592.27 1568.17 1577.76 1568.17 1577.76L1540.5 1441.77C1551.59 1455.8 1564.63 1482.5 1571.28 1532.92C1571.97 1538.19 1576.47 1542.03 1581.65 1542.03C1582.11 1542.03 1582.57 1542 1583.03 1541.93C1588.77 1541.18 1592.8 1535.91 1592.05 1530.18C1577.52 1420.01 1532.93 1407.31 1524.61 1405.89C1521.85 1405.2 1510.18 1402.47 1498.32 1402.47C1486.47 1402.47 1474.79 1405.2 1472.03 1405.89C1468.18 1406.55 1456.56 1409.63 1443.75 1423.66C1443.93 1425.16 1444.03 1426.69 1444.03 1428.24C1444.03 1442.68 1435.97 1455.27 1424.12 1461.76Z" fill="#41A8FC"/>
<path d="M1498.32 1395.23C1517.46 1395.23 1532.97 1379.71 1532.97 1360.58C1532.97 1341.44 1517.46 1325.92 1498.32 1325.92C1479.18 1325.92 1463.67 1341.44 1463.67 1360.58C1463.67 1379.71 1479.18 1395.23 1498.32 1395.23Z" fill="#41A8FC"/>
<path d="M1369.07 1498.28V1559.93H1442.59V1498.28C1447.68 1508.38 1453.91 1529.84 1451.77 1573.05C1451.49 1578.83 1455.94 1583.75 1461.72 1584.03C1461.9 1584.04 1462.07 1584.04 1462.24 1584.04C1467.79 1584.04 1472.42 1579.69 1472.7 1574.08C1475.06 1526.38 1468.25 1492.71 1453.03 1476.71C1447.56 1470.96 1441.04 1467.65 1434.04 1466.99C1433.67 1466.95 1433.3 1466.92 1432.92 1466.92H1432.74C1432.31 1466.9 1431.88 1466.85 1431.45 1466.85C1431.05 1466.85 1430.67 1466.88 1430.28 1466.92H1381.37C1380.99 1466.88 1380.6 1466.85 1380.2 1466.85C1379.77 1466.85 1379.34 1466.9 1378.91 1466.92H1378.73C1378.35 1466.92 1377.98 1466.95 1377.62 1466.99C1370.62 1467.65 1364.09 1470.96 1358.62 1476.71C1343.4 1492.7 1336.6 1526.38 1338.95 1574.08C1339.23 1579.69 1343.86 1584.04 1349.41 1584.04C1349.58 1584.04 1349.76 1584.04 1349.93 1584.03C1355.71 1583.75 1360.17 1578.83 1359.88 1573.05C1357.75 1529.84 1363.98 1508.38 1369.07 1498.28Z" fill="#41A8FC"/>
<path d="M1442.59 1564.77H1369.07V1676.25C1369.07 1685.49 1376.55 1692.97 1385.79 1692.97C1395.02 1692.97 1402.51 1685.49 1402.51 1676.25V1596.6H1409.14V1676.25C1409.14 1685.49 1416.63 1692.97 1425.87 1692.97C1435.1 1692.97 1442.59 1685.49 1442.59 1676.25V1564.77V1564.77Z" fill="#41A8FC"/>
<path d="M1405.83 1461.28C1424.08 1461.28 1438.87 1446.49 1438.87 1428.24C1438.87 1409.99 1424.08 1395.2 1405.83 1395.2C1387.58 1395.2 1372.79 1409.99 1372.79 1428.24C1372.79 1446.49 1387.58 1461.28 1405.83 1461.28Z" fill="#41A8FC"/>
<path d="M1714.48 1629.97C1704.31 1629.66 1695.51 1628.33 1688.26 1626.67V1679.46C1688.26 1686.7 1694.13 1692.57 1701.37 1692.57C1708.61 1692.57 1714.48 1686.7 1714.48 1679.46V1629.97V1629.97ZM1723.56 1629.97V1679.46C1723.56 1686.7 1729.43 1692.57 1736.67 1692.57C1743.91 1692.57 1749.78 1686.7 1749.78 1679.46V1626.67C1742.53 1628.33 1733.73 1629.66 1723.56 1629.97Z" fill="#41A8FC"/>
<path d="M1719.02 1472.77C1736.82 1472.77 1751.26 1458.34 1751.26 1440.53C1751.26 1422.73 1736.82 1408.3 1719.02 1408.3C1701.22 1408.3 1686.78 1422.73 1686.78 1440.53C1686.78 1458.34 1701.22 1472.77 1719.02 1472.77Z" fill="#41A8FC"/>
<path d="M1743.64 1481.27C1740.98 1480.28 1737.18 1479.27 1731.86 1478.62C1728.18 1478.02 1723.62 1477.49 1719.02 1477.49C1714.42 1477.49 1709.86 1478.02 1706.19 1478.62C1700.85 1479.27 1697.05 1480.28 1694.39 1481.28C1682.46 1485.46 1654.52 1502.99 1644.65 1576.03C1643.96 1581.1 1647.52 1585.77 1652.59 1586.45C1657.68 1587.13 1662.33 1583.58 1663.02 1578.51C1667.01 1548.99 1673.96 1530.29 1680.9 1518.45C1674.59 1547.65 1666.77 1589 1666.77 1614.82C1666.77 1614.82 1686.22 1626.02 1719.02 1626.02C1751.82 1626.02 1771.28 1614.82 1771.28 1614.82C1771.28 1589 1763.46 1547.65 1757.14 1518.45C1764.08 1530.28 1771.04 1548.99 1775.03 1578.51C1775.66 1583.16 1779.63 1586.54 1784.2 1586.53C1784.61 1586.53 1785.03 1586.51 1785.45 1586.45C1790.52 1585.77 1794.08 1581.1 1793.4 1576.03C1783.52 1502.95 1755.55 1485.44 1743.64 1481.27ZM1258.44 1637.38C1258.53 1637.38 1258.63 1637.38 1258.73 1637.38C1263.4 1637.22 1267.06 1633.31 1266.9 1628.63C1265.16 1577.19 1244.26 1566.81 1241.88 1565.8C1241.87 1565.79 1241.86 1565.79 1241.85 1565.79C1240.76 1564.96 1239.42 1564.44 1237.96 1564.44H1234.87C1229.96 1567.67 1224.11 1569.57 1217.81 1569.57C1211.52 1569.57 1205.66 1567.67 1200.76 1564.44H1197.67C1196.19 1564.44 1194.84 1564.97 1193.75 1565.81L1193.74 1565.8C1191.36 1566.81 1170.47 1577.19 1168.73 1628.64C1168.57 1633.31 1172.22 1637.22 1176.9 1637.38C1176.99 1637.38 1177.09 1637.39 1177.19 1637.39C1181.73 1637.39 1185.48 1633.78 1185.64 1629.21C1186.16 1613.74 1188.52 1603.08 1191.22 1595.81V1681.17C1191.22 1687.85 1196.63 1693.26 1203.31 1693.26C1209.98 1693.26 1215.39 1687.85 1215.39 1681.17V1642.49H1220.23V1681.17C1220.23 1687.85 1225.64 1693.26 1232.32 1693.26C1239 1693.26 1244.41 1687.85 1244.41 1681.17V1595.67C1247.09 1602.94 1249.46 1613.63 1249.99 1629.21C1250.14 1633.78 1253.9 1637.38 1258.44 1637.38Z" fill="#41A8FC"/>
<path d="M1217.81 1563.12C1231.43 1563.12 1242.47 1552.08 1242.47 1538.46C1242.47 1524.84 1231.43 1513.8 1217.81 1513.8C1204.19 1513.8 1193.15 1524.84 1193.15 1538.46C1193.15 1552.08 1204.19 1563.12 1217.81 1563.12Z" fill="#41A8FC"/>
<path d="M1874.36 1553.23C1874.51 1553.24 1874.65 1553.24 1874.79 1553.24C1875.16 1553.24 1875.52 1553.21 1875.88 1553.19L1887.87 1484.77C1885.98 1477.47 1886.67 1469.49 1890.45 1462.31C1892.09 1459.2 1894.19 1456.5 1896.6 1454.2C1896.01 1455.1 1895.46 1456.03 1894.95 1457C1886.55 1472.95 1892.67 1492.69 1908.62 1501.09C1917.82 1505.93 1928.27 1505.92 1937.08 1502.01C1927.68 1509.06 1914.7 1510.56 1903.61 1504.71C1898.32 1501.93 1894.18 1497.83 1891.32 1493.05L1865.44 1640.79C1865.44 1640.79 1896.86 1660.67 1952.48 1660.67C1981.3 1660.67 2003.61 1655.33 2018.43 1650.19V1538.92C2017.69 1541.57 2016.34 1544.05 2014.46 1546.17C2011.2 1549.84 2006.7 1552.02 2001.8 1552.3C2001.44 1552.32 2001.07 1552.33 2000.71 1552.33C1991 1552.34 1982.95 1544.74 1982.38 1535.03C1981.83 1525.52 1981.52 1516.47 1981.46 1507.86C1976.55 1507.02 1971.89 1505.03 1967.87 1502.01C1972.12 1503.9 1976.75 1504.87 1981.44 1504.83C1981.38 1459.35 1988.29 1426.65 2002.06 1407.21C1991.85 1400.52 1983.32 1400.54 1981.44 1400.64C1981.1 1400.65 1980.77 1400.7 1980.45 1400.74C1980.36 1400.74 1980.28 1400.73 1980.2 1400.73H1978.31C1971.13 1406.2 1962.18 1409.46 1952.47 1409.46C1942.77 1409.46 1933.81 1406.2 1926.63 1400.73H1924.75C1924.66 1400.73 1924.58 1400.74 1924.5 1400.74C1924.17 1400.7 1923.84 1400.65 1923.51 1400.64C1921.22 1400.51 1909.17 1400.49 1896.19 1412.44C1874.18 1432.7 1862.09 1475.05 1860.28 1538.32C1860.05 1546.33 1866.36 1553.01 1874.36 1553.23ZM1949.09 1665.47C1934.26 1665.26 1921.18 1663.69 1909.99 1661.5L1912.15 1678.79C1912.15 1687.04 1920.42 1693.74 1930.62 1693.74C1940.82 1693.74 1949.09 1687.04 1949.09 1678.79V1665.47ZM1955.86 1665.47V1678.79C1955.86 1687.04 1964.13 1693.74 1974.34 1693.74C1984.53 1693.74 1992.81 1687.04 1992.81 1678.79L1994.96 1661.5C1983.77 1663.69 1970.7 1665.26 1955.86 1665.47Z" fill="#41A8FC"/>
<path d="M1952.48 1405.43C1973.84 1405.43 1991.16 1388.11 1991.16 1366.74C1991.16 1345.38 1973.84 1328.06 1952.48 1328.06C1931.11 1328.06 1913.79 1345.38 1913.79 1366.74C1913.79 1388.11 1931.11 1405.43 1952.48 1405.43Z" fill="#41A8FC"/>
<path d="M1987.86 1534.71C1988.26 1541.56 1993.94 1546.85 2000.72 1546.85C2000.97 1546.85 2001.23 1546.84 2001.48 1546.83C2008.59 1546.41 2014.02 1540.31 2013.6 1533.2C2010.29 1476.56 2016.71 1446.37 2023.91 1431.39V1673.2C2023.91 1684.21 2032.84 1693.13 2043.84 1693.13C2054.85 1693.13 2063.77 1684.21 2063.77 1673.2V1527.71H2071.24V1673.2C2071.24 1684.21 2080.16 1693.13 2091.17 1693.13C2102.17 1693.13 2111.1 1684.21 2111.1 1673.2V1589.17C2103.07 1588.82 2096.58 1582.44 2096.18 1574.34C2094.08 1531.93 2099.23 1500.08 2111.1 1481.19V1431.39C2114.94 1439.39 2118.56 1451.71 2120.59 1470.05C2126.2 1465.33 2132.65 1462.5 2139.51 1461.86C2139.96 1461.8 2140.53 1461.76 2141.11 1461.76L2141.39 1461.75C2141.78 1461.72 2142.18 1461.69 2142.58 1461.69C2143.06 1461.69 2143.54 1461.72 2144.01 1461.76H2145.59C2145.45 1460.73 2145.31 1459.7 2145.16 1458.69C2135.96 1451.7 2130 1440.66 2130 1428.24C2130 1423.94 2130.72 1419.81 2132.04 1415.95C2129.05 1410.69 2125.65 1406.25 2121.84 1402.67C2112.79 1394.17 2103.96 1392.71 2099.42 1392.6C2099.16 1392.58 2098.9 1392.56 2098.64 1392.56H2036.37C2036.1 1392.56 2035.83 1392.59 2035.56 1392.6C2031.02 1392.72 2022.2 1394.18 2013.17 1402.67C1992.39 1422.19 1983.87 1466.62 1987.86 1534.71Z" fill="#41A8FC"/>
<path d="M2067.5 1383.37C2087.53 1383.37 2103.77 1367.14 2103.77 1347.11C2103.77 1327.08 2087.53 1310.84 2067.5 1310.84C2047.47 1310.84 2031.24 1327.08 2031.24 1347.11C2031.24 1367.14 2047.47 1383.37 2067.5 1383.37Z" fill="#41A8FC"/>
<path d="M2339.37 1392.6C2334.82 1392.71 2326 1394.18 2316.97 1402.66C2296.19 1422.19 2287.68 1466.62 2291.66 1534.71C2292.06 1541.56 2297.74 1546.85 2304.52 1546.85C2304.77 1546.85 2305.03 1546.85 2305.29 1546.83C2312.4 1546.41 2317.82 1540.31 2317.41 1533.2C2314.09 1476.57 2320.51 1446.38 2327.72 1431.39V1673.21C2327.72 1684.21 2336.64 1693.13 2347.64 1693.13C2358.65 1693.13 2367.57 1684.21 2367.57 1673.21V1527.71H2375.05V1673.21C2375.05 1684.21 2383.97 1693.13 2394.97 1693.13C2405.98 1693.13 2414.9 1684.21 2414.9 1673.21V1641.62C2413.65 1642.01 2412.32 1642.22 2410.94 1642.22L2410.5 1642.21C2406.94 1642.09 2403.65 1640.6 2401.22 1638C2398.8 1635.41 2397.53 1632.02 2397.65 1628.47C2398.76 1595.76 2407.39 1578.64 2414.9 1569.84V1431.39C2421.57 1445.27 2427.56 1472.2 2425.78 1521.08C2431.38 1512.81 2440.85 1507.35 2451.57 1507.35C2451.68 1507.35 2451.78 1507.37 2451.89 1507.37C2452.29 1454.61 2443.49 1419.44 2425.64 1402.66C2416.6 1394.17 2407.76 1392.71 2403.23 1392.6C2402.97 1392.58 2402.71 1392.56 2402.44 1392.56H2340.17C2339.9 1392.56 2339.63 1392.58 2339.37 1392.6Z" fill="#41A8FC"/>
<path d="M2371.31 1383.37C2391.34 1383.37 2407.57 1367.14 2407.57 1347.11C2407.57 1327.08 2391.34 1310.84 2371.31 1310.84C2351.28 1310.84 2335.04 1327.08 2335.04 1347.11C2335.04 1367.14 2351.28 1383.37 2371.31 1383.37Z" fill="#41A8FC"/>
<path d="M2131.44 1564.77V1676.25C2131.44 1685.49 2138.93 1692.97 2148.17 1692.97C2157.4 1692.97 2164.88 1685.49 2164.88 1676.25V1596.6H2171.51V1676.25C2171.51 1685.49 2179 1692.97 2188.24 1692.97C2197.47 1692.97 2204.96 1685.49 2204.96 1676.25V1564.77H2131.44V1564.77Z" fill="#41A8FC"/>
<path d="M2224.62 1584.04C2230.17 1584.04 2234.79 1579.69 2235.07 1574.08C2237.43 1526.38 2230.63 1492.71 2215.41 1476.71C2209.93 1470.96 2203.41 1467.65 2196.41 1466.99C2196.04 1466.95 2195.67 1466.92 2195.29 1466.92H2195.11C2194.68 1466.9 2194.26 1466.85 2193.82 1466.85C2193.43 1466.85 2193.04 1466.88 2192.65 1466.92H2143.74C2143.36 1466.88 2142.97 1466.85 2142.57 1466.85C2142.14 1466.85 2141.72 1466.9 2141.29 1466.92H2141.11C2140.73 1466.92 2140.35 1466.95 2139.99 1466.99C2132.99 1467.65 2126.46 1470.96 2120.99 1476.71C2105.77 1492.7 2098.97 1526.38 2101.33 1574.08C2101.6 1579.69 2106.23 1584.04 2111.78 1584.04C2111.95 1584.04 2112.13 1584.04 2112.31 1584.03C2118.09 1583.75 2122.54 1578.83 2122.25 1573.05C2120.12 1529.84 2126.35 1508.38 2131.44 1498.28V1559.93H2204.96V1498.28C2210.05 1508.38 2216.28 1529.84 2214.14 1573.05C2213.86 1578.83 2218.31 1583.74 2224.09 1584.03C2224.27 1584.04 2224.44 1584.04 2224.62 1584.04Z" fill="#41A8FC"/>
<path d="M2168.2 1461.28C2186.45 1461.28 2201.24 1446.49 2201.24 1428.24C2201.24 1409.99 2186.45 1395.2 2168.2 1395.2C2149.95 1395.2 2135.16 1409.99 2135.16 1428.24C2135.16 1446.49 2149.95 1461.28 2168.2 1461.28Z" fill="#41A8FC"/>
<path d="M2468.62 1564.44C2463.72 1567.67 2457.86 1569.57 2451.57 1569.57C2445.27 1569.57 2439.42 1567.67 2434.52 1564.44H2431.42C2429.94 1564.44 2428.6 1564.97 2427.5 1565.81L2427.5 1565.8C2425.12 1566.82 2404.23 1577.19 2402.48 1628.64C2402.32 1633.31 2405.98 1637.22 2410.65 1637.38C2410.75 1637.38 2410.85 1637.39 2410.94 1637.39C2415.48 1637.39 2419.24 1633.78 2419.4 1629.21C2419.92 1613.74 2422.28 1603.08 2424.97 1595.81V1681.17C2424.97 1687.85 2430.39 1693.26 2437.06 1693.26C2443.74 1693.26 2449.15 1687.85 2449.15 1681.17V1642.49H2453.99V1681.17C2453.99 1687.85 2459.4 1693.26 2466.08 1693.26C2472.75 1693.26 2478.16 1687.85 2478.16 1681.17V1595.67C2480.85 1602.94 2483.21 1613.63 2483.74 1629.21C2483.9 1633.78 2487.65 1637.39 2492.19 1637.39C2492.29 1637.39 2492.39 1637.38 2492.49 1637.38C2497.16 1637.22 2500.82 1633.31 2500.66 1628.64C2498.91 1577.19 2478.02 1566.82 2475.64 1565.8C2475.63 1565.8 2475.62 1565.79 2475.6 1565.79C2474.52 1564.96 2473.18 1564.45 2471.72 1564.45H2468.62V1564.44Z" fill="#41A8FC"/>
<path d="M2451.57 1563.12C2465.19 1563.12 2476.23 1552.08 2476.23 1538.46C2476.23 1524.84 2465.19 1513.8 2451.57 1513.8C2437.95 1513.8 2426.91 1524.84 2426.91 1538.46C2426.91 1552.08 2437.95 1563.12 2451.57 1563.12Z" fill="#41A8FC"/>
<path fill-rule="evenodd" clip-rule="evenodd" d="M3368.7 203.719H3734.27C3754.09 203.719 3770.25 219.939 3770.25 239.827V254.27C3770.25 274.158 3754.09 290.38 3734.27 290.378H3368.7L3306.81 254.52C3304.08 252.936 3302.51 250.216 3302.51 247.049C3302.51 243.882 3304.08 241.163 3306.81 239.579L3368.7 203.719Z" fill="#FBE158"/>
<path fill-rule="evenodd" clip-rule="evenodd" d="M3769.03 263.595C3764.92 278.989 3750.88 290.381 3734.27 290.381H3368.7L3322.47 263.595H3769.03Z" fill="#F3B607"/>
<path fill-rule="evenodd" clip-rule="evenodd" d="M3306.81 239.579L3368.7 203.719V290.38L3306.81 254.52C3304.08 252.936 3302.51 250.216 3302.51 247.049C3302.51 243.882 3304.08 241.163 3306.81 239.579Z" fill="#57565C"/>
<path fill-rule="evenodd" clip-rule="evenodd" d="M3188.62 930.271C3117.75 930.271 3060.3 872.616 3060.3 801.497V371.336H3797.68C3811.46 371.336 3822.7 382.615 3822.7 396.444V905.161C3822.7 918.99 3811.46 930.269 3797.68 930.269H3188.62V930.271Z" fill="#41A8FC"/>
<path fill-rule="evenodd" clip-rule="evenodd" d="M3159.58 926.959C3102.7 913.755 3060.3 862.596 3060.3 801.497V371.336H3159.58V926.959Z" fill="#60B7FF"/>
<path fill-rule="evenodd" clip-rule="evenodd" d="M3060.3 801.497V371.336C3060.3 312.179 3127.83 264.223 3167.03 264.223C3192.93 264.223 3201.06 266.504 3208.13 270.684C3215.98 275.326 3220.45 283.174 3220.45 292.316V672.359C3220.45 680.226 3217.21 686.998 3211.1 691.928C3204.99 696.858 3197.71 698.572 3190.05 696.881C3182.64 695.245 3174.94 694.382 3167.03 694.382C3108.08 694.384 3060.3 742.34 3060.3 801.497Z" fill="#8AC9FE"/>
<path fill-rule="evenodd" clip-rule="evenodd" d="M3259.04 783.516C3252.25 783.516 3246.75 777.99 3246.75 771.175C3246.75 764.36 3252.25 758.835 3259.04 758.835H3296.06C3302.85 758.835 3308.36 764.36 3308.36 771.175C3308.36 777.99 3302.85 783.516 3296.06 783.516H3259.04Z" fill="#FFE177"/>
<path fill-rule="evenodd" clip-rule="evenodd" d="M3339.61 783.516C3332.82 783.516 3327.31 777.99 3327.31 771.175C3327.31 764.36 3332.82 758.835 3339.61 758.835H3478.61C3485.4 758.835 3490.9 764.36 3490.9 771.175C3490.9 777.99 3485.4 783.516 3478.61 783.516H3339.61Z" fill="#ECEFF1"/>
<path fill-rule="evenodd" clip-rule="evenodd" d="M3259.04 836.348C3252.25 836.348 3246.75 830.822 3246.75 824.007C3246.75 817.192 3252.25 811.667 3259.04 811.667H3296.06C3302.85 811.667 3308.36 817.192 3308.36 824.007C3308.36 830.822 3302.85 836.348 3296.06 836.348H3259.04Z" fill="#6CF5C2"/>
<path fill-rule="evenodd" clip-rule="evenodd" d="M3339.61 836.348C3332.82 836.348 3327.31 830.823 3327.31 824.008C3327.31 817.193 3332.82 811.667 3339.61 811.667H3478.61C3485.4 811.667 3490.9 817.193 3490.9 824.008C3490.9 830.823 3485.4 836.348 3478.61 836.348H3339.61ZM3547.78 541.912C3540.99 541.912 3535.48 536.386 3535.48 529.571C3535.48 522.756 3540.99 517.231 3547.78 517.231H3655.57C3662.36 517.231 3667.87 522.756 3667.87 529.571C3667.87 536.386 3662.36 541.912 3655.57 541.912H3547.78Z" fill="#ECEFF1"/>
<path fill-rule="evenodd" clip-rule="evenodd" d="M3547.78 490.791C3540.99 490.791 3535.48 485.266 3535.48 478.451C3535.48 471.636 3540.99 466.11 3547.78 466.11H3763.36C3770.15 466.11 3775.66 471.636 3775.66 478.451C3775.66 485.266 3770.15 490.791 3763.36 490.791H3547.78Z" fill="#FFE177"/>
<path fill-rule="evenodd" clip-rule="evenodd" d="M3729.05 627.718H3755.67C3759.91 627.718 3763.36 631.182 3763.36 635.431V830.758C3763.36 835.006 3759.91 838.471 3755.67 838.471H3729.05C3724.82 838.471 3721.37 835.006 3721.37 830.758V635.429C3721.37 631.182 3724.82 627.718 3729.05 627.718Z" fill="#6CF5C2"/>
<path fill-rule="evenodd" clip-rule="evenodd" d="M3638.73 678.031C3647.6 678.031 3656.47 678.031 3665.35 678.031C3669.58 678.031 3673.03 681.496 3673.03 685.744C3673.03 734.083 3673.03 782.419 3673.03 830.758C3673.03 835.006 3669.58 838.471 3665.35 838.471C3656.47 838.471 3647.6 838.471 3638.73 838.471C3634.5 838.471 3631.04 835.006 3631.04 830.758C3631.04 782.419 3631.04 734.081 3631.04 685.744C3631.04 681.496 3634.5 678.031 3638.73 678.031Z" fill="#FFE177"/>
<path fill-rule="evenodd" clip-rule="evenodd" d="M3548.4 722.573C3557.27 722.573 3566.15 722.573 3575.02 722.573C3579.25 722.573 3582.71 726.037 3582.71 730.285C3582.71 763.776 3582.71 797.268 3582.71 830.758C3582.71 835.006 3579.25 838.471 3575.02 838.471C3566.15 838.471 3557.27 838.471 3548.4 838.471C3544.17 838.471 3540.72 835.006 3540.72 830.758C3540.72 797.266 3540.72 763.776 3540.72 730.285C3540.72 726.037 3544.17 722.573 3548.4 722.573Z" fill="#FE646F"/>
<path d="M3390.39 681.584C3454.06 681.584 3505.67 629.788 3505.67 565.893C3505.67 501.998 3454.06 450.201 3390.39 450.201C3326.72 450.201 3275.11 501.998 3275.11 565.893C3275.11 629.788 3326.72 681.584 3390.39 681.584Z" fill="#57565C"/>
<mask id="mask0_8_574" style="mask-type:alpha" maskUnits="userSpaceOnUse" x="3275" y="450" width="231" height="232">
<path d="M3390.39 681.584C3454.06 681.584 3505.67 629.788 3505.67 565.893C3505.67 501.998 3454.06 450.201 3390.39 450.201C3326.72 450.201 3275.11 501.998 3275.11 565.893C3275.11 629.788 3326.72 681.584 3390.39 681.584Z" fill="#837683"/>
</mask>
<g mask="url(#mask0_8_574)">
<path d="M3469.23 619.553C3466.49 624.321 3453.29 623.261 3449.62 627.353C3445.94 631.444 3448.37 644.51 3443.94 647.746C3439.5 650.982 3427.87 644.625 3422.85 646.865C3417.84 649.104 3414.77 662.032 3409.4 663.177C3404.03 664.322 3395.98 653.766 3390.5 653.766C3385.01 653.766 3376.96 664.322 3371.6 663.177C3366.23 662.032 3363.15 649.104 3358.14 646.865C3353.13 644.625 3341.5 650.982 3337.06 647.746C3332.62 644.51 3335.05 631.444 3331.38 627.353C3327.71 623.261 3314.51 624.321 3311.77 619.553C3309.02 614.785 3316.54 603.841 3314.84 598.605C3313.15 593.369 3300.66 588.948 3300.08 583.472C3299.51 577.997 3310.81 571.066 3311.39 565.591C3311.96 560.116 3302.34 550.978 3304.04 545.742C3305.73 540.506 3318.86 538.788 3321.61 534.02C3324.35 529.252 3319.27 516.979 3322.94 512.887C3326.61 508.796 3339.3 512.587 3343.74 509.351C3348.18 506.115 3348.51 492.827 3353.52 490.588C3358.53 488.349 3368.59 496.994 3373.96 495.849C3379.33 494.705 3385.01 482.7 3390.5 482.7C3395.98 482.7 3401.67 494.705 3407.04 495.849C3412.4 496.994 3422.46 488.349 3427.48 490.588C3432.49 492.827 3432.82 506.115 3437.26 509.351C3441.69 512.587 3454.39 508.796 3458.06 512.887C3461.73 516.979 3456.65 529.252 3459.39 534.02C3462.13 538.788 3475.27 540.506 3476.96 545.742C3478.66 550.978 3469.04 560.116 3469.61 565.591C3470.19 571.066 3481.49 577.997 3480.91 583.472C3480.34 588.948 3467.85 593.369 3466.15 598.605C3464.46 603.841 3471.97 614.785 3469.23 619.553V619.553Z" fill="#FED32F"/>
<path d="M3390.5 511.542C3398.54 511.542 3406.5 513.131 3413.93 516.218C3421.35 519.306 3428.1 523.831 3433.79 529.536C3439.47 535.241 3443.98 542.014 3447.06 549.468C3450.14 556.922 3451.72 564.911 3451.72 572.979C3451.72 589.273 3445.27 604.9 3433.79 616.422C3422.31 627.944 3406.74 634.417 3390.5 634.417C3382.46 634.417 3374.5 632.827 3367.07 629.74C3359.64 626.652 3352.89 622.127 3347.21 616.422C3341.52 610.717 3337.02 603.944 3333.94 596.49C3330.86 589.036 3329.28 581.047 3329.28 572.979C3329.28 564.911 3330.86 556.922 3333.94 549.468C3337.02 542.014 3341.52 535.241 3347.21 529.536C3352.89 523.831 3359.64 519.306 3367.07 516.218C3374.5 513.131 3382.46 511.541 3390.5 511.542V511.542Z" fill="#F9B22A"/>
<path d="M3299.48 598.501C3290.38 598.501 3281.28 606.648 3281.28 616.768V665.306C3281.28 675.426 3289.4 683.574 3299.48 683.574H3390.5H3481.51C3491.6 683.574 3499.72 675.426 3499.72 665.306V616.768C3499.72 606.648 3490.62 598.501 3481.51 598.501C3463.75 598.501 3458.3 616.779 3440.89 616.779C3423.48 616.779 3407.37 599.343 3390.56 599.343C3373.74 599.343 3357.51 616.779 3340.11 616.779C3322.7 616.779 3317.25 598.501 3299.48 598.501V598.501Z" fill="#D2E6FF"/>
<path d="M3299.48 626.918C3290.38 626.918 3281.28 635.065 3281.28 645.186V665.306C3281.28 675.427 3289.4 683.574 3299.48 683.574H3390.5H3481.51C3491.6 683.574 3499.72 675.427 3499.72 665.306V645.186C3499.72 635.065 3490.62 626.918 3481.51 626.918C3463.75 626.918 3458.3 645.196 3440.89 645.196C3423.48 645.196 3407.37 627.76 3390.56 627.76C3373.74 627.76 3357.51 645.196 3340.11 645.196C3322.7 645.196 3317.25 626.918 3299.48 626.918V626.918Z" fill="#5EA7FF"/>
</g>
<path fill-rule="evenodd" clip-rule="evenodd" d="M450 415.424C450 408.796 444.627 403.424 438 403.424H369C362.373 403.424 357 408.796 357 415.424V791.837C357 798.464 362.373 803.837 369 803.837H438C444.627 803.837 450 798.464 450 791.837V415.424Z" fill="#6CF5C2"/>
<path fill-rule="evenodd" clip-rule="evenodd" d="M311 587.03C311 580.402 305.627 575.03 299 575.03H229C222.373 575.03 217 580.402 217 587.03V791.837C217 798.464 222.373 803.837 229 803.837H299C305.627 803.837 311 798.464 311 791.837V587.03Z" fill="#FFE177"/>
<path d="M78 673.334C78 666.707 83.3726 661.334 90 661.334H159C165.627 661.334 171 666.707 171 673.334V791.837C171 798.465 165.627 803.837 159 803.837H90C83.3726 803.837 78 798.465 78 791.837V673.334Z" fill="#FE646F"/>
<path d="M31.0625 785.71V333.709C31.0625 329.575 29.4262 325.611 26.5135 322.688C23.6008 319.765 19.6504 318.123 15.5312 318.123C11.4121 318.123 7.46168 319.765 4.549 322.688C1.63633 325.611 0 329.575 0 333.709V816.883H481.469C485.588 816.883 489.538 815.241 492.451 812.318C495.364 809.395 497 805.43 497 801.297C497 797.163 495.364 793.198 492.451 790.275C489.538 787.352 485.588 785.71 481.469 785.71H31.0625Z" fill="#57565C"/>
<path d="M367.089 486.961C370.218 415.958 315.409 355.849 244.656 352.709C173.903 349.568 114.007 404.572 110.877 475.575C109.907 496.905 114.263 518.141 123.551 537.351L12.5259 649.058C21.4563 675.812 39.2551 693.634 65.9378 702.526L175.053 592.745C192.819 603.063 212.804 608.926 233.31 609.835C304.063 612.968 363.959 557.964 367.089 486.961V486.961Z" fill="#B2E4FA"/>
<path d="M244.656 352.709C173.903 349.56 114.007 404.572 110.878 475.575C109.907 496.905 114.264 518.141 123.551 537.351L12.5259 649.058C17.4959 663.966 25.3314 675.991 35.815 685.351L329.651 390.474C307.775 368.459 278.04 354.189 244.656 352.709Z" fill="#D2E6FF"/>
<path d="M238.987 573.184C289.574 573.184 330.583 532.03 330.583 481.264C330.583 430.498 289.574 389.344 238.987 389.344C188.4 389.344 147.392 430.498 147.392 481.264C147.392 532.03 188.4 573.184 238.987 573.184Z" fill="#5EA7FF"/>
<path d="M243.033 389.438C192.495 387.193 149.714 426.486 147.477 477.196C146.289 504.067 156.796 528.678 174.385 546.282L303.768 416.433C287.628 400.088 265.941 390.449 243.033 389.438V389.438Z" fill="#B2E4FA"/>
<path d="M123.551 537.351L12.5259 649.058C21.4563 675.812 39.2551 693.635 65.9378 702.527L175.053 592.745C152.758 579.856 134.82 560.563 123.551 537.351V537.351Z" fill="#84462D"/>
<path d="M123.551 537.351L12.5259 649.058C17.4959 663.967 25.3314 675.991 35.815 685.351L148.51 572.257C138.299 562.108 129.861 550.309 123.551 537.351V537.351Z" fill="#9C6144"/>
<path d="M151.476 616.452L175.045 592.737C152.75 579.855 134.814 560.563 123.551 537.351L98.0645 562.991L151.476 616.452Z" fill="#F3B607"/>
<path d="M123.551 537.351L98.0645 562.991L127.939 592.901L148.502 572.265C138.298 562.11 129.863 550.308 123.551 537.351Z" fill="#FBE158"/>
</svg>
