<svg width="108" height="108" viewBox="0 0 108 108" fill="none" xmlns="http://www.w3.org/2000/svg">
<path d="M53.5865 107.553C83.1815 107.553 107.173 83.4761 107.173 53.7763C107.173 24.0765 83.1815 0 53.5865 0C23.9915 0 0 24.0765 0 53.7763C0 83.4761 23.9915 107.553 53.5865 107.553Z" fill="#B2E4FA"/>
<path d="M61.6259 51.6059C60.5429 55.4633 59.8862 59.4286 59.6678 63.4302L59.4406 67.3842C60.8385 67.7791 62.8981 68.2841 64.4873 68.733L70.2973 46.8399C71.9678 40.5452 72.5352 39.9324 72.5352 39.9324L72.2325 39.2877L72.1506 39.3195C69.6101 40.4739 67.3517 42.1718 65.5337 44.2941C63.7157 46.4164 62.3819 48.912 61.6259 51.6059Z" fill="#FFE177"/>
<path d="M75.3572 55.2758C74.385 59.1628 72.9894 62.9306 71.1957 66.5112L69.4332 70.0548C68.0248 69.6997 65.9877 69.1098 64.3865 68.7061L70.1965 46.8129C71.867 40.5183 71.7861 39.6209 71.7861 39.6209L72.2606 39.2952L72.3159 39.3636C73.9478 41.6332 75.0655 44.2334 75.5909 46.982C76.1162 49.7307 76.0365 52.5613 75.3572 55.2758Z" fill="#FFE177"/>
<path d="M64.9609 66.9841C64.6667 66.9066 64.4152 66.7149 64.2617 66.4513C64.1083 66.1877 64.0655 65.8736 64.1428 65.5784L66.7648 55.5577C66.8421 55.2624 67.0331 55.01 67.2958 54.8561C67.5585 54.7021 67.8714 54.6592 68.1656 54.7367C68.4599 54.8142 68.7114 55.0059 68.8648 55.2695C69.0182 55.5332 69.061 55.8472 68.9838 56.1425L66.3617 66.1631C66.2845 66.4584 66.0935 66.7108 65.8308 66.8648C65.5681 67.0187 65.2552 67.0617 64.9609 66.9841Z" fill="#F9B22A"/>
<path d="M42.0364 44.4822L47.498 67.4285L45.6605 67.8687L40.1989 44.9224L42.0364 44.4822Z" fill="#57565C"/>
<path d="M37.1715 28.0645C46.2843 25.8834 55.4063 31.0167 57.7176 40.7332C57.841 41.2437 57.5295 41.7599 57.0206 41.8838L25.6755 49.3929C25.1658 49.513 24.6554 49.1937 24.5359 48.6823C22.2246 38.9657 28.0525 30.251 37.1643 28.0662L37.3801 28.9733C37.3826 28.9727 37.3848 28.9722 37.3873 28.9716L37.1715 28.0645Z" fill="#E83030"/>
<path d="M37.1641 28.0661C37.1641 28.0661 48.6213 31.1697 51.4823 43.1971L31.2002 48.0559C28.3392 36.0285 37.1641 28.0661 37.1641 28.0661Z" fill="#FEF9E6"/>
<path d="M24.373 77.4793H86.7282C79.9237 65.5283 39.6618 53.6124 24.373 77.4793V77.4793Z" fill="#F8E1C2"/>
<path d="M24.373 77.4797H43.0445L56.6243 63.8519C44.4085 62.9171 31.6004 66.1965 24.373 77.4797V77.4797Z" fill="#FCF1E2"/>
<g clip-path="url(#clip0_315_126)">
<path d="M54.9302 70.7113C54.8881 70.6998 54.8487 70.6798 54.8147 70.6525C54.4856 70.4184 54.0853 70.3062 53.6825 70.3352C53.6263 70.3412 53.5696 70.3323 53.518 70.3091C53.4665 70.286 53.4221 70.2495 53.3893 70.2035C53.3418 70.1143 53.3989 70.028 53.5189 70.0121C54.0963 69.9666 54.671 70.1277 55.1407 70.4666C55.2349 70.5425 55.239 70.646 55.1519 70.6975C55.1178 70.7146 55.0806 70.7247 55.0425 70.7271C55.0044 70.7294 54.9662 70.7241 54.9302 70.7113V70.7113ZM57.7985 71.3699L57.2599 71.219C57.2193 71.2076 57.1849 71.1806 57.1643 71.1439C57.1436 71.1071 57.1384 71.0637 57.1498 71.0231C57.1611 70.9825 57.1882 70.9481 57.2249 70.9275C57.2616 70.9068 57.3051 70.9016 57.3457 70.913L57.8842 71.0639C57.9248 71.0753 57.9592 71.1023 57.9798 71.1391C58.0005 71.1758 58.0057 71.2192 57.9943 71.2598C57.983 71.3004 57.9559 71.3348 57.9192 71.3554C57.8825 71.3761 57.839 71.3813 57.7985 71.3699V71.3699ZM51.299 69.5483L50.7605 69.3974C50.7199 69.386 50.6855 69.359 50.6648 69.3223C50.6442 69.2855 50.639 69.2421 50.6503 69.2015C50.6617 69.1609 50.6887 69.1265 50.7255 69.1059C50.7622 69.0852 50.8056 69.08 50.8462 69.0914L51.3848 69.2423C51.4254 69.2537 51.4598 69.2807 51.4804 69.3175C51.5011 69.3542 51.5063 69.3976 51.4949 69.4382C51.4835 69.4788 51.4565 69.5132 51.4198 69.5339C51.383 69.5545 51.3396 69.5597 51.299 69.5483ZM56.287 70.2862L52.615 69.2571C52.5744 69.2457 52.54 69.2187 52.5194 69.182C52.4987 69.1452 52.4935 69.1018 52.5049 69.0612C52.5162 69.0206 52.5433 68.9862 52.58 68.9656C52.6167 68.9449 52.6602 68.9397 52.7007 68.9511L56.3727 69.9802C56.4133 69.9916 56.4477 70.0186 56.4684 70.0554C56.489 70.0921 56.4942 70.1355 56.4829 70.1761C56.4715 70.2167 56.4445 70.2511 56.4077 70.2717C56.371 70.2924 56.3276 70.2976 56.287 70.2862Z" fill="#E83030"/>
<path d="M53.8498 70.1505C53.6251 70.9522 52.3435 71.9923 51.5785 71.7779C50.8135 71.5635 50.6901 70.826 50.9148 70.0243C50.9613 69.8363 51.0445 69.6594 51.1595 69.5037C51.2745 69.348 51.4191 69.2165 51.585 69.1167C51.7509 69.017 51.9349 68.951 52.1264 68.9224C52.3179 68.8939 52.5131 68.9035 52.7009 68.9506C53.4628 69.1641 54.0779 69.3365 53.8498 70.1505ZM57.34 71.8283C57.1153 72.63 56.6266 73.1961 55.8616 72.9816C55.0966 72.7672 54.5422 71.2125 54.7669 70.4108C54.9916 69.6091 55.614 69.767 56.3729 69.9797C56.5581 70.0372 56.7301 70.1306 56.879 70.2547C57.0279 70.3789 57.1508 70.5312 57.2407 70.703C57.3306 70.8748 57.3856 71.0626 57.4026 71.2557C57.4197 71.4489 57.3984 71.6435 57.34 71.8283V71.8283Z" fill="#3C3B41"/>
<path d="M57.8842 71.0639L57.4191 70.9336C57.3298 70.7036 57.1883 70.4976 57.0056 70.3318C56.8229 70.1661 56.6041 70.0451 56.3666 69.9785L52.6946 68.9494C52.4571 68.8828 52.2073 68.8725 51.9651 68.9191C51.7229 68.9658 51.4949 69.0683 51.2991 69.2183L50.8462 69.0914C50.8056 69.08 50.7622 69.0852 50.7255 69.1059C50.6887 69.1265 50.6617 69.1609 50.6503 69.2015C50.639 69.2421 50.6442 69.2855 50.6648 69.3223C50.6855 69.359 50.7199 69.386 50.7605 69.3974L51.042 69.4763C50.9034 69.6456 50.8012 69.8417 50.7419 70.0523C50.4735 71.0101 50.7721 71.7109 51.5371 71.9253C52.3633 72.1569 53.658 71.1996 53.9529 70.3713C54.0612 70.357 54.1713 70.3649 54.2765 70.3943C54.3817 70.4238 54.4798 70.4743 54.5649 70.5429C54.3802 71.402 54.9888 72.8927 55.8211 73.126C56.5861 73.3404 57.2055 72.8968 57.4739 71.939C57.5327 71.7283 57.5474 71.5077 57.5169 71.291L57.7985 71.3699C57.839 71.3813 57.8825 71.3761 57.9192 71.3554C57.9559 71.3348 57.983 71.3004 57.9943 71.2598C58.0057 71.2192 58.0005 71.1758 57.9798 71.1391C57.9592 71.1023 57.9248 71.0753 57.8842 71.0639ZM51.6229 71.6193C50.8242 71.3955 50.9202 70.594 51.0479 70.138C51.1389 69.8134 51.3551 69.5382 51.649 69.373C51.9429 69.2078 52.2904 69.1661 52.615 69.2571C53.5024 69.5058 53.8244 69.6522 53.6675 70.2121C53.4745 70.9006 52.2838 71.8046 51.6229 71.6193ZM54.6746 70.2337C54.4775 70.1079 54.2475 70.0435 54.0137 70.0484C54.0315 69.906 54.0092 69.7614 53.9491 69.631L54.9559 69.9132C54.8338 69.9914 54.7363 70.1025 54.6746 70.2337V70.2337ZM55.9069 72.82C55.2459 72.6348 54.7002 71.2376 54.8915 70.5552C55.0484 69.9952 55.3996 70.0375 56.287 70.2862C56.6116 70.3772 56.8868 70.5934 57.052 70.8873C57.2172 71.1812 57.2589 71.5287 57.1679 71.8533C57.0376 72.3184 56.7055 73.0438 55.9069 72.82Z" fill="#E83030"/>
</g>
<mask id="mask0_315_126" style="mask-type:alpha" maskUnits="userSpaceOnUse" x="0" y="0" width="108" height="108">
<path d="M53.5865 107.553C83.1815 107.553 107.173 83.4761 107.173 53.7763C107.173 24.0765 83.1815 0 53.5865 0C23.9915 0 0 24.0765 0 53.7763C0 83.4761 23.9915 107.553 53.5865 107.553Z" fill="#B2E4FA"/>
</mask>
<g mask="url(#mask0_315_126)">
<rect x="0.643066" y="73.3896" width="104.708" height="34.5097" fill="#5EA7FF"/>
<path d="M68.6375 93.1875C67.8035 93.193 66.9792 93.0072 66.2277 92.644C65.4762 92.2809 64.8174 91.7502 64.3016 91.0924C63.7956 90.452 63.4424 89.7038 63.2692 88.9052C63.1916 88.6045 63.2362 88.2852 63.3933 88.0175C63.5503 87.7498 63.8069 87.5557 64.1066 87.4778C64.4062 87.4 64.7244 87.4448 64.9912 87.6024C65.2579 87.7599 65.4514 88.0174 65.5289 88.3182C65.6324 88.7883 65.8402 89.229 66.1369 89.6074C66.517 90.0907 67.0261 90.4554 67.605 90.6593C68.1838 90.8631 68.8085 90.8975 69.4061 90.7586C69.9952 90.6384 70.5363 90.3476 70.9624 89.922C71.3885 89.4964 71.681 88.9548 71.8035 88.3642C71.8571 88.1003 72.0013 87.8636 72.2109 87.6953C72.4205 87.527 72.6822 87.4378 72.9506 87.4433C73.2548 87.4433 73.5466 87.5646 73.7617 87.7804C73.9768 87.9963 74.0977 88.2891 74.0977 88.5944C74.1088 88.6823 74.1088 88.7713 74.0977 88.8592C73.8804 89.8784 73.372 90.812 72.6345 91.5459C71.8971 92.2798 70.9626 92.7823 69.9452 92.9918C69.5189 93.1104 69.0798 93.1761 68.6375 93.1875V93.1875Z" fill="#D2E6FF"/>
<path d="M77.3187 93.1875C76.4846 93.193 75.6604 93.0072 74.9089 92.644C74.1574 92.2809 73.4985 91.7502 72.9827 91.0924C72.4767 90.452 72.1236 89.7038 71.9503 88.9052C71.8728 88.6045 71.9174 88.2852 72.0744 88.0175C72.2315 87.7498 72.488 87.5557 72.7877 87.4778C73.0874 87.4 73.4056 87.4448 73.6723 87.6024C73.9391 87.7599 74.1325 88.0174 74.2101 88.3182C74.3135 88.7883 74.5213 89.229 74.8181 89.6074C75.1981 90.0907 75.7073 90.4554 76.2861 90.6593C76.865 90.8631 77.4896 90.8975 78.0872 90.7586C78.6764 90.6384 79.2175 90.3476 79.6436 89.922C80.0697 89.4964 80.3621 88.9548 80.4847 88.3642C80.5383 88.1003 80.6824 87.8636 80.892 87.6953C81.1016 87.527 81.3634 87.4378 81.6317 87.4433C81.936 87.4433 82.2277 87.5646 82.4429 87.7804C82.658 87.9963 82.7788 88.2891 82.7788 88.5944C82.79 88.6823 82.79 88.7713 82.7788 88.8592C82.5616 89.8784 82.0531 90.812 81.3157 91.5459C80.5783 92.2798 79.6438 92.7823 78.6264 92.9918C78.2001 93.1104 77.7609 93.1761 77.3187 93.1875V93.1875Z" fill="#D2E6FF"/>
<path d="M25.2328 87.4873C24.3987 87.4929 23.5744 87.307 22.8229 86.9439C22.0714 86.5807 21.4126 86.05 20.8968 85.3922C20.3908 84.7518 20.0376 84.0036 19.8644 83.205C19.7868 82.9043 19.8315 82.585 19.9885 82.3173C20.1455 82.0496 20.4021 81.8555 20.7018 81.7776C21.0014 81.6998 21.3196 81.7446 21.5864 81.9022C21.8531 82.0598 22.0466 82.3172 22.1242 82.618C22.2276 83.0881 22.4354 83.5289 22.7321 83.9072C23.1122 84.3905 23.6214 84.7553 24.2002 84.9591C24.779 85.1629 25.4037 85.1974 26.0013 85.0584C26.5904 84.9383 27.1315 84.6474 27.5576 84.2218C27.9837 83.7963 28.2762 83.2546 28.3987 82.664C28.4523 82.4001 28.5965 82.1634 28.8061 81.9951C29.0157 81.8268 29.2774 81.7377 29.5458 81.7431C29.85 81.7431 30.1418 81.8644 30.3569 82.0802C30.572 82.2961 30.6929 82.5889 30.6929 82.8942C30.704 82.9821 30.704 83.0711 30.6929 83.159C30.4756 84.1782 29.9672 85.1118 29.2298 85.8457C28.4923 86.5797 27.5578 87.0821 26.5404 87.2916C26.1141 87.4102 25.675 87.476 25.2328 87.4873V87.4873Z" fill="#D2E6FF"/>
<path d="M33.9139 87.4873C33.0799 87.4929 32.2556 87.307 31.5041 86.9439C30.7526 86.5807 30.0937 86.05 29.5779 85.3922C29.0719 84.7518 28.7188 84.0036 28.5456 83.205C28.468 82.9043 28.5126 82.585 28.6697 82.3173C28.8267 82.0496 29.0833 81.8555 29.3829 81.7776C29.6826 81.6998 30.0008 81.7446 30.2675 81.9022C30.5343 82.0598 30.7277 82.3172 30.8053 82.618C30.9087 83.0881 31.1165 83.5289 31.4133 83.9072C31.7933 84.3905 32.3025 84.7553 32.8813 84.9591C33.4602 85.1629 34.0848 85.1974 34.6825 85.0584C35.2716 84.9383 35.8127 84.6474 36.2388 84.2218C36.6649 83.7963 36.9573 83.2546 37.0799 82.664C37.1335 82.4001 37.2777 82.1634 37.4872 81.9951C37.6968 81.8268 37.9586 81.7377 38.227 81.7431C38.5312 81.7431 38.8229 81.8644 39.0381 82.0802C39.2532 82.2961 39.374 82.5889 39.374 82.8942C39.3852 82.9821 39.3852 83.0711 39.374 83.159C39.1568 84.1782 38.6484 85.1118 37.9109 85.8457C37.1735 86.5797 36.239 87.0821 35.2216 87.2916C34.7953 87.4102 34.3561 87.476 33.9139 87.4873V87.4873Z" fill="#D2E6FF"/>
<path d="M82.7886 75.64C82.384 75.6377 81.9805 75.5953 81.5842 75.5133C80.3691 75.2608 79.2788 74.5937 78.4985 73.6254C77.9774 74.2476 77.3269 74.7478 76.5928 75.091C75.8586 75.4342 75.0585 75.612 74.2486 75.612C73.4387 75.612 72.6386 75.4342 71.9044 75.091C71.1702 74.7478 70.5197 74.2476 69.9986 73.6254C69.4854 74.2603 68.8364 74.771 68.0997 75.1198C67.363 75.4685 66.5575 75.6463 65.7429 75.64V75.64C64.9302 75.6491 64.1259 75.4748 63.3893 75.1301C62.6527 74.7855 62.0027 74.2791 61.4872 73.6485C60.9718 74.2791 60.3218 74.7855 59.5852 75.1301C58.8486 75.4748 58.0442 75.6491 57.2315 75.64V75.64C55.9828 75.6534 54.7674 75.2351 53.7898 74.4553C52.8122 73.6754 52.1319 72.5816 51.8632 71.3577C51.8189 71.0715 51.8838 70.7791 52.0448 70.5388C52.2059 70.2984 52.4512 70.1278 52.732 70.061C53.0129 69.9942 53.3084 70.0361 53.5599 70.1782C53.8113 70.3204 54 70.5525 54.0885 70.8282C54.2403 71.5477 54.6371 72.1918 55.2106 72.6498C55.7842 73.1077 56.4987 73.3509 57.2315 73.3377V73.3377C57.963 73.3505 58.6759 73.1068 59.2476 72.6487C59.8192 72.1906 60.2137 71.5468 60.3631 70.8282C60.3794 70.7444 60.4064 70.6632 60.4434 70.5864C60.5426 70.3376 60.7252 70.1313 60.9597 70.0031C61.1943 69.8749 61.466 69.8329 61.7281 69.8842C61.9527 69.9345 62.157 70.0514 62.3145 70.2197C62.4721 70.3881 62.5755 70.6001 62.6114 70.8282C62.7624 71.5438 63.1558 72.1849 63.7246 72.6424C64.2934 73.0999 65.0025 73.3456 65.7315 73.3377V73.3377C66.4629 73.3505 67.1758 73.1068 67.7475 72.6487C68.3191 72.1906 68.7136 71.5468 68.863 70.8282C68.8793 70.7444 68.9063 70.6632 68.9433 70.5864C69.0432 70.333 69.2294 70.1233 69.4688 69.9947C69.7083 69.8661 69.9855 69.827 70.251 69.8842C70.4756 69.9345 70.6799 70.0514 70.8374 70.2197C70.9949 70.3881 71.0983 70.6001 71.1342 70.8282C71.3141 71.5301 71.7236 72.1511 72.2972 72.5916C72.8708 73.032 73.5751 73.2664 74.2973 73.2571C75.0195 73.2478 75.7176 72.9954 76.2798 72.5403C76.8419 72.0853 77.2355 71.4539 77.3973 70.7476C77.4136 70.6639 77.4406 70.5826 77.4776 70.5058C77.5799 70.2933 77.7448 70.1175 77.95 70.0022C78.1552 69.8869 78.3907 69.8377 78.6247 69.8612C78.8623 69.8862 79.0862 69.9851 79.2651 70.144C79.444 70.3029 79.569 70.5139 79.6227 70.7476C79.736 71.3533 80.0269 71.9113 80.4581 72.3501C80.8892 72.789 81.4411 73.0887 82.043 73.211C82.6407 73.3472 83.2645 73.3114 83.8428 73.1078C84.421 72.9041 84.9304 72.5409 85.3122 72.0599C85.588 71.6873 85.7905 71.2654 85.9087 70.8166C85.9745 70.5192 86.1552 70.2601 86.4111 70.0961C86.6669 69.9321 86.9772 69.8766 87.2737 69.9418C87.5688 69.9953 87.8312 70.1626 88.0049 70.4078C88.1786 70.6531 88.2496 70.9569 88.2029 71.2541V71.3116C88.0239 72.1019 87.6841 72.8465 87.2049 73.4988C86.6843 74.1746 86.0144 74.7198 85.248 75.0913C84.4816 75.4629 83.6397 75.6507 82.7886 75.64V75.64Z" fill="#5EA7FF"/>
<path d="M48.6972 75.6399C47.4714 75.6508 46.278 75.2449 45.3115 74.4882C44.345 73.7315 43.6624 72.6686 43.3747 71.4728C43.3306 71.3509 43.3074 71.2225 43.3059 71.0929C43.2709 70.7876 43.3582 70.4808 43.5486 70.2401C43.739 69.9994 44.0168 69.8445 44.3211 69.8093C44.6253 69.7742 44.931 69.8618 45.1708 70.0529C45.4107 70.244 45.5651 70.5228 45.6001 70.8281C45.748 71.5389 46.1357 72.1768 46.6979 72.634C47.26 73.0912 47.9622 73.3397 48.6857 73.3376C49.4143 73.3547 50.1262 73.1172 50.6995 72.6658C51.2728 72.2143 51.672 71.5769 51.8288 70.8626C51.8824 70.5987 52.0265 70.362 52.2361 70.1937C52.4457 70.0255 52.7075 69.9363 52.9758 69.9417C53.2801 69.9417 53.5718 70.063 53.7869 70.2789C54.0021 70.4948 54.1229 70.7876 54.1229 71.0929C54.1348 71.1846 54.1348 71.2774 54.1229 71.3692C53.85 72.6008 53.1602 73.6994 52.171 74.4781C51.1817 75.2568 49.9542 75.6673 48.6972 75.6399V75.6399Z" fill="#5EA7FF"/>
<path d="M40.1744 75.6402C38.9246 75.658 37.7071 75.2413 36.7285 74.4607C35.75 73.6802 35.0708 72.5839 34.8061 71.3579C34.7618 71.0717 34.8266 70.7793 34.9877 70.539C35.1487 70.2987 35.3941 70.1281 35.6749 70.0612C35.9557 69.9944 36.2513 70.0363 36.5027 70.1785C36.7541 70.3207 36.9429 70.5527 37.0314 70.8284C37.1981 71.5378 37.5986 72.1699 38.168 72.6222C38.7374 73.0746 39.4424 73.3207 40.1687 73.3207C40.8949 73.3207 41.5999 73.0746 42.1693 72.6222C42.7388 72.1699 43.1393 71.5378 43.306 70.8284C43.3596 70.5644 43.5037 70.3277 43.7133 70.1595C43.9229 69.9912 44.1847 69.902 44.453 69.9075C44.7573 69.9075 45.049 70.0287 45.2642 70.2446C45.4793 70.4605 45.6001 70.7533 45.6001 71.0586C45.6113 71.1465 45.6113 71.2355 45.6001 71.3234C45.3406 72.5656 44.6558 73.6774 43.6648 74.4659C42.6737 75.2544 41.4388 75.6699 40.1744 75.6402V75.6402Z" fill="#5EA7FF"/>
<path d="M31.6629 75.6396C30.8289 75.6452 30.0046 75.4593 29.2531 75.0962C28.5016 74.733 27.8428 74.2023 27.327 73.5446C26.821 72.9041 26.4678 72.156 26.2946 71.3574C26.217 71.0567 26.2616 70.7373 26.4187 70.4696C26.5757 70.2019 26.8323 70.0078 27.1319 69.93C27.4316 69.8521 27.7498 69.8969 28.0166 70.0545C28.2833 70.2121 28.4768 70.4696 28.5543 70.7703C28.6578 71.2405 28.8656 71.6812 29.1623 72.0596C29.5424 72.5428 30.0515 72.9076 30.6304 73.1114C31.2092 73.3152 31.8339 73.3497 32.4315 73.2107C33.0206 73.0906 33.5617 72.7997 33.9878 72.3742C34.4139 71.9486 34.7063 71.407 34.8289 70.8163C34.8825 70.5524 35.0267 70.3157 35.2363 70.1474C35.4459 69.9792 35.7076 69.89 35.976 69.8954C36.2802 69.8954 36.572 70.0167 36.7871 70.2326C37.0022 70.4485 37.1231 70.7413 37.1231 71.0466C37.1342 71.1345 37.1342 71.2234 37.1231 71.3113C36.9058 72.3305 36.3974 73.2641 35.6599 73.998C34.9225 74.732 33.988 75.2344 32.9706 75.4439C32.5443 75.5625 32.1052 75.6283 31.6629 75.6396V75.6396Z" fill="#5EA7FF"/>
<path d="M91.2513 75.6563C90.4173 75.6618 89.593 75.4759 88.8415 75.1128C88.09 74.7497 87.4311 74.2189 86.9153 73.5612C86.4093 72.9208 86.0562 72.1726 85.883 71.374C85.8054 71.0733 85.85 70.7539 86.0071 70.4862C86.1641 70.2185 86.4207 70.0244 86.7203 69.9466C87.02 69.8687 87.3382 69.9135 87.6049 70.0711C87.8717 70.2287 88.0651 70.4862 88.1427 70.7869C88.2461 71.2571 88.4539 71.6978 88.7507 72.0762C89.1307 72.5594 89.6399 72.9242 90.2187 73.128C90.7976 73.3318 91.4223 73.3663 92.0199 73.2273C92.609 73.1072 93.1501 72.8163 93.5762 72.3908C94.0023 71.9652 94.2947 71.4236 94.4173 70.8329C94.4709 70.569 94.6151 70.3323 94.8246 70.164C95.0342 69.9958 95.296 69.9066 95.5644 69.912C95.8686 69.912 96.1603 70.0333 96.3755 70.2492C96.5906 70.4651 96.7114 70.7579 96.7114 71.0632C96.7226 71.1511 96.7226 71.24 96.7114 71.3279C96.4942 72.3471 95.9858 73.2807 95.2483 74.0147C94.5109 74.7486 93.5764 75.251 92.559 75.4606C92.1327 75.5792 91.6935 75.6449 91.2513 75.6563V75.6563Z" fill="#5EA7FF"/>
<path d="M99.9325 75.6563C99.0984 75.6618 98.2741 75.4759 97.5226 75.1128C96.7711 74.7497 96.1123 74.2189 95.5965 73.5612C95.0905 72.9208 94.7373 72.1726 94.5641 71.374C94.4865 71.0733 94.5312 70.7539 94.6882 70.4862C94.8452 70.2185 95.1018 70.0244 95.4015 69.9466C95.7011 69.8687 96.0193 69.9135 96.2861 70.0711C96.5528 70.2287 96.7463 70.4862 96.8239 70.7869C96.9273 71.2571 97.1351 71.6978 97.4318 72.0762C97.8119 72.5594 98.3211 72.9242 98.8999 73.128C99.4787 73.3318 100.103 73.3663 100.701 73.2273C101.29 73.1072 101.831 72.8163 102.257 72.3908C102.683 71.9652 102.976 71.4236 103.098 70.8329C103.152 70.569 103.296 70.3323 103.506 70.164C103.715 69.9958 103.977 69.9066 104.246 69.912C104.55 69.912 104.842 70.0333 105.057 70.2492C105.272 70.4651 105.393 70.7579 105.393 71.0632C105.404 71.1511 105.404 71.24 105.393 71.3279C105.175 72.3471 104.667 73.2807 103.929 74.0147C103.192 74.7486 102.258 75.251 101.24 75.4606C100.814 75.5792 100.375 75.6449 99.9325 75.6563V75.6563Z" fill="#5EA7FF"/>
<path d="M14.5155 75.6396C13.6814 75.6452 12.8571 75.4593 12.1056 75.0962C11.3541 74.733 10.6953 74.2023 10.1795 73.5446C9.67349 72.9041 9.32034 72.156 9.14712 71.3574C9.06954 71.0567 9.11418 70.7373 9.27122 70.4696C9.42825 70.2019 9.68483 70.0078 9.98449 69.93C10.2842 69.8521 10.6024 69.8969 10.8691 70.0545C11.1359 70.2121 11.3293 70.4696 11.4069 70.7703C11.5103 71.2405 11.7181 71.6812 12.0148 72.0596C12.3949 72.5428 12.9041 72.9076 13.4829 73.1114C14.0618 73.3152 14.6864 73.3497 15.284 73.2107C15.8731 73.0906 16.4142 72.7997 16.8404 72.3742C17.2665 71.9486 17.5589 71.407 17.6814 70.8163C17.7351 70.5524 17.8792 70.3157 18.0888 70.1474C18.2984 69.9792 18.5602 69.89 18.8285 69.8954C19.1327 69.8954 19.4245 70.0167 19.6396 70.2326C19.8547 70.4485 19.9756 70.7413 19.9756 71.0466C19.9868 71.1345 19.9868 71.2234 19.9756 71.3113C19.7583 72.3305 19.2499 73.2641 18.5125 73.998C17.775 74.732 16.8405 75.2344 15.8232 75.4439C15.3969 75.5625 14.9577 75.6283 14.5155 75.6396V75.6396Z" fill="#5EA7FF"/>
<path d="M6.04868 75.6396C5.21462 75.6452 4.39035 75.4593 3.63884 75.0962C2.88734 74.733 2.22851 74.2023 1.71269 73.5446C1.2067 72.9041 0.853546 72.156 0.680318 71.3574C0.602741 71.0567 0.647381 70.7373 0.804418 70.4696C0.961456 70.2019 1.21803 70.0078 1.51769 69.93C1.81735 69.8521 2.13556 69.8969 2.40231 70.0545C2.66906 70.2121 2.8625 70.4696 2.94008 70.7703C3.0435 71.2405 3.25131 71.6812 3.54803 72.0596C3.92811 72.5428 4.43727 72.9076 5.01611 73.1114C5.59495 73.3152 6.21962 73.3497 6.81723 73.2107C7.40635 73.0906 7.94745 72.7997 8.37356 72.3742C8.79967 71.9486 9.09209 71.407 9.21464 70.8163C9.26826 70.5524 9.41242 70.3157 9.62201 70.1474C9.83161 69.9792 10.0934 69.89 10.3617 69.8954C10.6659 69.8954 10.9577 70.0167 11.1728 70.2326C11.388 70.4485 11.5088 70.7413 11.5088 71.0466C11.52 71.1345 11.52 71.2234 11.5088 71.3113C11.2915 72.3305 10.7831 73.2641 10.0457 73.998C9.30824 74.732 8.37373 75.2344 7.35636 75.4439C6.93007 75.5625 6.4909 75.6283 6.04868 75.6396V75.6396Z" fill="#5EA7FF"/>
<path d="M23.0892 75.6396C22.2552 75.6452 21.4309 75.4593 20.6794 75.0962C19.9279 74.733 19.269 74.2023 18.7532 73.5446C18.2472 72.9041 17.8941 72.156 17.7208 71.3574C17.6433 71.0567 17.6879 70.7373 17.8449 70.4696C18.002 70.2019 18.2586 70.0078 18.5582 69.93C18.8579 69.8521 19.1761 69.8969 19.4428 70.0545C19.7096 70.2121 19.903 70.4696 19.9806 70.7703C20.084 71.2405 20.2918 71.6812 20.5886 72.0596C20.9686 72.5428 21.4778 72.9076 22.0566 73.1114C22.6355 73.3152 23.2601 73.3497 23.8578 73.2107C24.4469 73.0906 24.988 72.7997 25.4141 72.3742C25.8402 71.9486 26.1326 71.407 26.2552 70.8163C26.3088 70.5524 26.4529 70.3157 26.6625 70.1474C26.8721 69.9792 27.1339 69.89 27.4022 69.8954C27.7065 69.8954 27.9982 70.0167 28.2134 70.2326C28.4285 70.4485 28.5493 70.7413 28.5493 71.0466C28.5605 71.1345 28.5605 71.2234 28.5493 71.3113C28.3321 72.3305 27.8236 73.2641 27.0862 73.998C26.3488 74.732 25.4143 75.2344 24.3969 75.4439C23.9706 75.5625 23.5314 75.6283 23.0892 75.6396V75.6396Z" fill="#5EA7FF"/>
</g>
<defs>
<clipPath id="clip0_315_126">
<rect width="7.62698" height="7.62698" fill="white" transform="translate(51.5723 65.9941) rotate(15.6565)"/>
</clipPath>
</defs>
</svg>
