<svg width="408" height="199" viewBox="0 0 408 199" fill="none" xmlns="http://www.w3.org/2000/svg">
<path d="M184.04 95.6582C182.778 96.8189 181.338 97.7879 179.767 98.523C181.455 98.7782 182.82 99.1132 183.919 99.4745C183.919 99.4123 183.915 99.3531 183.915 99.2909C183.915 98.0849 183.96 96.873 184.04 95.6582ZM188.278 77.0333C188.622 76.1579 188.981 75.2868 189.363 74.4245H191.784C190.844 76.4672 190.014 78.5684 189.29 80.7069C189.419 81.5458 189.487 82.4052 189.487 83.2799C189.487 86.8138 188.389 90.0955 186.519 92.8059C186.259 94.9641 186.11 97.1297 186.11 99.2909C186.11 99.6522 186.128 99.9989 186.136 100.354C191.621 102.904 200.826 110.25 206.11 131.333C213.105 134.388 221.353 135.716 229.875 135.716C232.676 135.716 235.448 135.571 238.155 135.27C235.74 133.577 234.188 130.744 234.279 127.579C235.122 98.1741 240.876 78.3644 251.378 68.7009C256.098 64.3573 260.631 63.1133 263.359 62.7871C260.37 59.286 258.56 54.7501 258.56 49.7973C258.56 46.3928 259.416 43.1858 260.92 40.3752C256.49 37.5221 252.44 36.2035 249.76 35.5986C245.404 41.9205 238.117 46.0754 229.876 46.0754C221.635 46.0754 214.349 41.9205 209.992 35.5986C205.437 36.6262 196.924 39.7045 189.334 48.8875C185.027 54.097 181.696 60.4255 179.342 67.843C183.397 69.6041 186.626 72.9194 188.278 77.0333ZM208.586 144.467C209.059 147.965 206.598 151.194 203.102 151.666C202.815 151.705 202.525 151.724 202.239 151.724H202.239C200.877 151.724 199.601 151.286 198.552 150.54L206.32 189.714C206.32 194.537 211.15 198.446 217.106 198.446C223.066 198.446 227.897 194.536 227.897 189.714V137.882C219.968 137.693 212.817 136.359 206.729 133.957C207.443 137.159 208.07 140.652 208.586 144.467ZM236.368 175.359L243.105 136.905C243.093 136.905 243.082 136.905 243.071 136.904C242.877 136.898 242.687 136.876 242.496 136.859C239.139 137.447 235.582 137.794 231.851 137.883V189.715C231.851 194.538 236.682 198.447 242.641 198.447C248.598 198.447 253.429 194.537 253.429 189.715L254.793 182.837C244.068 180.155 238.157 176.492 237.775 176.25L236.368 175.359Z" fill="#8AC9FE"/>
<path d="M229.874 43.8818C241.992 43.8818 251.815 34.0585 251.815 21.9409C251.815 9.82328 241.992 0 229.874 0C217.757 0 207.934 9.82328 207.934 21.9409C207.934 34.0585 217.757 43.8818 229.874 43.8818Z" fill="#8AC9FE"/>
<path d="M101.337 119.676C101.7 119.085 101.958 118.424 102.093 117.721C100.708 110.056 98.9788 103.896 97.1211 98.9561L101.337 119.676Z" fill="#BFDBF7"/>
<path d="M103.329 79.6957C104.233 72.445 105.497 67.1184 106.823 63.2232V85.7214C111.187 94.2974 115.102 106.441 117.372 123.651C117.882 127.53 115.143 131.101 111.265 131.612C110.956 131.653 110.642 131.674 110.332 131.674C109.063 131.674 107.865 131.329 106.823 130.731V146.641L106.836 146.704L106.823 146.712V188.779C106.823 193.774 110.873 197.82 115.865 197.82C120.859 197.82 124.908 193.774 124.908 188.779V115.2H128.298V188.778C128.298 193.773 132.348 197.82 137.34 197.82C142.334 197.82 146.383 193.773 146.383 188.778V150.802C145.415 151.388 144.285 151.723 143.09 151.723C142.804 151.723 142.515 151.704 142.23 151.666C138.731 151.192 136.272 147.963 136.743 144.467C138.739 129.702 142.395 119.73 146.383 112.995V63.0674C148.983 70.6729 151.357 83.8155 151.219 106.396C154.625 102.684 157.891 100.831 160.225 99.9099C160.943 99.6122 161.815 99.3174 162.873 99.052C162.86 98.333 162.845 97.6163 162.826 96.9105C158.6 93.852 155.843 88.8823 155.843 83.2786C155.843 78.7691 157.63 74.6712 160.529 71.6478C158.4 59.589 154.859 50.9692 149.914 45.8855C146.912 42.7999 144.039 41.7226 142.213 41.3576C141.74 41.2289 141.245 41.1543 140.731 41.1543H112.475C111.957 41.1543 111.457 41.2296 110.981 41.3605C109.153 41.7248 106.296 42.7969 103.292 45.8855C98.7242 50.5823 95.3518 58.2938 93.1855 68.9476C96.2843 71.0919 99.8468 74.4482 103.329 79.6957Z" fill="#BFDBF7"/>
<path d="M126.604 36.9875C135.692 36.9875 143.06 29.6201 143.06 20.5319C143.06 11.4436 135.692 4.07617 126.604 4.07617C117.516 4.07617 110.148 11.4436 110.148 20.5319C110.148 29.6201 117.516 36.9875 126.604 36.9875Z" fill="#BFDBF7"/>
<path d="M73.7413 154.314V190.487C73.7413 194.526 77.017 197.801 81.0549 197.801C85.0942 197.801 88.3685 194.526 88.3685 190.487V152.969C84.2261 153.713 79.3435 154.245 73.7413 154.314ZM71.3029 154.314C65.7006 154.245 60.8181 153.712 56.6756 152.969V190.486C56.6756 194.525 59.9529 197.8 63.9893 197.8C68.0293 197.8 71.3029 194.525 71.3029 190.486V154.314ZM49.5733 146.31V149.039C50.5731 149.335 51.6577 149.629 52.825 149.911C51.3572 149.13 50.2009 147.851 49.5733 146.31ZM38.8516 92.9142H41.5298C41.7441 92.8944 41.9606 92.8827 42.1793 92.8827C42.3599 92.8827 42.5384 92.8937 42.7175 92.9069L42.8448 92.9142C43.1074 92.9142 43.3655 92.9317 43.6215 92.961C44.9314 93.0839 46.2135 93.3947 47.4524 93.8672C49.4183 89.4914 51.4668 86.2332 53.3911 83.8116L50.9607 95.7548C51.9093 96.424 52.8184 97.1927 53.6668 98.0835C61.0265 105.816 64.3352 121.693 63.2338 143.996C63.0546 147.625 60.181 150.492 56.6061 150.718C61.0228 151.542 66.3348 152.131 72.5221 152.131C93.2343 152.131 104.214 145.549 104.214 145.549L91.6589 83.8409C96.6936 90.2089 102.609 102.322 105.626 125.201C105.942 127.593 107.984 129.334 110.334 129.334C110.541 129.334 110.75 129.32 110.96 129.292C113.564 128.949 115.395 126.561 115.052 123.958C108.46 73.966 88.2237 68.2036 84.4521 67.5622C83.1985 67.2485 77.9005 66.0088 72.5214 66.0088C67.1429 66.0088 61.8442 67.2485 60.5906 67.5622C58.8448 67.8591 53.5717 69.2568 47.7574 75.6255C47.8393 76.3064 47.8861 76.9983 47.8861 77.7011C47.8861 84.2541 44.23 89.9683 38.8516 92.9142Z" fill="#8AC9FE"/>
<path d="M72.5212 62.7221C81.2055 62.7221 88.2455 55.6821 88.2455 46.9978C88.2455 38.3135 81.2055 31.2734 72.5212 31.2734C63.8369 31.2734 56.7969 38.3135 56.7969 46.9978C56.7969 55.6821 63.8369 62.7221 72.5212 62.7221Z" fill="#8AC9FE"/>
<path d="M47.2349 139.652H13.873V190.239C13.873 194.429 17.271 197.827 21.4631 197.827C25.6517 197.827 29.0496 194.429 29.0496 190.239V154.098H32.0577V190.239C32.0577 194.429 35.4556 197.827 39.647 197.827C43.837 197.827 47.2349 194.429 47.2349 190.239V139.652V139.652Z" fill="#EDD4B9"/>
<path d="M13.8711 109.483V137.459H47.233V109.483C49.5426 114.068 52.3679 123.806 51.3996 143.411C51.2701 146.033 53.2909 148.264 55.9136 148.394C55.9933 148.397 56.073 148.399 56.1513 148.399C58.6693 148.399 60.7698 146.422 60.8956 143.88C61.9649 122.232 58.8785 106.954 51.9715 99.6964C49.4885 97.0884 46.5287 95.5839 43.3517 95.2856C43.1849 95.2665 43.016 95.2541 42.8441 95.2541H42.7629C42.5676 95.2453 42.3753 95.2227 42.1785 95.2227C41.9986 95.2227 41.8224 95.2344 41.6476 95.2541H19.4544C19.2796 95.2351 19.1033 95.2227 18.9234 95.2227C18.7267 95.2227 18.5343 95.2446 18.339 95.2541H18.2571C18.0852 95.2541 17.9163 95.2665 17.7503 95.2856C14.574 95.5839 11.6134 97.0884 9.13116 99.6964C2.22416 106.953 -0.862192 122.232 0.207061 143.88C0.332856 146.422 2.43333 148.399 4.95142 148.399C5.02967 148.399 5.11012 148.398 5.18911 148.394C7.81178 148.264 9.83253 146.033 9.70308 143.411C8.73549 123.806 11.5615 114.068 13.8711 109.483Z" fill="#EDD4B9"/>
<path d="M30.5535 92.6929C38.8339 92.6929 45.5464 85.9804 45.5464 77.7C45.5464 69.4196 38.8339 62.707 30.5535 62.707C22.2731 62.707 15.5605 69.4196 15.5605 77.7C15.5605 85.9804 22.2731 92.6929 30.5535 92.6929Z" fill="#EDD4B9"/>
<path d="M170.605 169.24C165.989 169.099 161.997 168.495 158.709 167.742V191.696C158.709 194.981 161.372 197.645 164.657 197.645C167.942 197.645 170.605 194.981 170.605 191.696V169.24V169.24ZM174.724 169.24V191.696C174.724 194.98 177.388 197.644 180.673 197.644C183.957 197.644 186.621 194.98 186.621 191.696V167.741C183.333 168.495 179.341 169.099 174.724 169.24Z" fill="#EDD4B9"/>
<path d="M183.837 101.767C182.629 101.314 180.905 100.857 178.492 100.563C176.822 100.292 174.753 100.052 172.667 100.052C170.58 100.052 168.512 100.292 166.842 100.563C164.423 100.858 162.695 101.316 161.488 101.77C156.078 103.668 143.398 111.622 138.919 144.762C138.608 147.064 140.222 149.182 142.523 149.493C144.834 149.802 146.944 148.189 147.255 145.889C149.065 132.494 152.221 124.007 155.369 118.638C152.504 131.887 148.957 150.651 148.957 162.365C148.957 162.365 157.783 167.447 172.667 167.447C187.551 167.447 196.377 162.365 196.377 162.365C196.377 150.65 192.829 131.885 189.964 118.636C193.113 124.005 196.269 132.492 198.08 145.889C198.365 147.999 200.169 149.531 202.242 149.531C202.429 149.531 202.619 149.518 202.81 149.493C205.111 149.182 206.725 147.064 206.415 144.762C201.933 111.605 189.242 103.66 183.837 101.767Z" fill="#EDD4B9"/>
<path d="M172.664 97.9079C180.743 97.9079 187.292 91.359 187.292 83.2806C187.292 75.2022 180.743 68.6533 172.664 68.6533C164.586 68.6533 158.037 75.2022 158.037 83.2806C158.037 91.359 164.586 97.9079 172.664 97.9079Z" fill="#EDD4B9"/>
<path d="M243.155 134.419C243.22 134.421 243.283 134.422 243.348 134.422C243.515 134.422 243.679 134.41 243.843 134.397L249.283 103.352C248.428 100.042 248.738 96.4213 250.456 93.1594C251.199 91.7486 252.153 90.5243 253.247 89.4828C252.978 89.8895 252.727 90.3115 252.495 90.751C248.683 97.9901 251.461 106.946 258.699 110.758C262.874 112.956 267.614 112.952 271.615 111.174C267.348 114.376 261.458 115.054 256.424 112.403C254.023 111.139 252.147 109.279 250.851 107.109L239.105 174.149C239.105 174.149 253.361 183.17 278.599 183.17C291.679 183.17 301.801 180.747 308.526 178.412V127.923C308.19 129.129 307.58 130.251 306.723 131.214C305.244 132.878 303.203 133.866 300.98 133.997C300.816 134.006 300.651 134.011 300.488 134.011C296.082 134.012 292.427 130.564 292.17 126.161C291.917 121.846 291.78 117.739 291.749 113.828C289.524 113.448 287.406 112.544 285.582 111.174C287.512 112.032 289.611 112.473 291.74 112.454C291.716 91.8196 294.849 76.9809 301.097 68.1585C296.464 65.1241 292.595 65.1314 291.741 65.176C291.589 65.184 291.44 65.2052 291.291 65.2235C291.253 65.2228 291.217 65.2177 291.179 65.2177H290.322C287.063 67.7006 283.001 69.1795 278.597 69.1795C274.194 69.1795 270.131 67.7006 266.873 65.2177H266.016C265.978 65.2177 265.942 65.2228 265.904 65.2235C265.755 65.2052 265.606 65.184 265.454 65.176C264.415 65.1204 258.949 65.1116 253.059 70.5318C243.07 79.7235 237.586 98.9416 236.762 127.652C236.66 131.285 239.521 134.315 243.155 134.419ZM277.063 185.347C270.331 185.251 264.398 184.54 259.321 183.545L260.3 191.39C260.3 195.137 264.053 198.174 268.681 198.174C273.309 198.174 277.063 195.137 277.063 191.39V185.347ZM280.135 185.347V191.39C280.135 195.137 283.889 198.174 288.518 198.174C293.146 198.174 296.9 195.137 296.9 191.39L297.879 183.545C292.801 184.54 286.867 185.251 280.135 185.347Z" fill="#BFDBF7"/>
<path d="M278.6 67.3496C288.294 67.3496 296.152 59.491 296.152 49.7969C296.152 40.1028 288.294 32.2441 278.6 32.2441C268.905 32.2441 261.047 40.1028 261.047 49.7969C261.047 59.491 268.905 67.3496 278.6 67.3496Z" fill="#BFDBF7"/>
<path d="M294.653 126.013C294.835 129.123 297.413 131.522 300.489 131.522C300.604 131.522 300.72 131.519 300.836 131.512C304.062 131.323 306.524 128.555 306.336 125.329C304.832 99.6289 307.745 85.9298 311.014 79.1303V188.856C311.014 193.851 315.063 197.898 320.056 197.898C325.05 197.898 329.1 193.851 329.1 188.856V122.835H332.49V188.856C332.49 193.851 336.539 197.898 341.532 197.898C346.525 197.898 350.575 193.851 350.575 188.856V150.723C346.935 150.565 343.987 147.671 343.805 143.995C342.855 124.751 345.191 110.298 350.575 101.726V79.1317C352.318 82.7586 353.96 88.3491 354.885 96.6749C357.427 94.5328 360.355 93.247 363.467 92.9545C363.671 92.9304 363.929 92.9128 364.193 92.9128L364.321 92.9055C364.5 92.8923 364.678 92.8814 364.859 92.8814C365.078 92.8814 365.294 92.8931 365.508 92.9128H366.227C366.165 92.444 366.102 91.9745 366.034 91.5159C361.857 88.3484 359.153 83.3349 359.153 77.7004C359.153 75.7499 359.481 73.8754 360.079 72.1238C358.723 69.7366 357.18 67.7247 355.448 66.0966C351.344 62.2409 347.336 61.5775 345.277 61.5293C345.159 61.522 345.042 61.5117 344.922 61.5117H316.666C316.543 61.5117 316.422 61.5227 316.3 61.53C314.238 61.5812 310.236 62.2475 306.139 66.0966C296.711 74.9549 292.845 95.1142 294.653 126.013Z" fill="#8AC9FE"/>
<path d="M330.796 57.344C339.884 57.344 347.251 49.9765 347.251 40.8883C347.251 31.8001 339.884 24.4326 330.796 24.4326C321.707 24.4326 314.34 31.8001 314.34 40.8883C314.34 49.9765 321.707 57.344 330.796 57.344Z" fill="#8AC9FE"/>
<path d="M359.809 139.652V190.239C359.809 194.429 363.207 197.827 367.399 197.827C371.587 197.827 374.985 194.429 374.985 190.239V154.098H377.993V190.239C377.993 194.429 381.391 197.827 385.583 197.827C389.773 197.827 393.17 194.429 393.17 190.239V139.652H359.809V139.652Z" fill="#EDD4B9"/>
<path d="M402.087 148.399C404.605 148.399 406.705 146.422 406.831 143.88C407.9 122.232 404.814 106.954 397.907 99.6964C395.424 97.0884 392.464 95.5839 389.287 95.2856C389.12 95.2665 388.951 95.2541 388.78 95.2541H388.698C388.503 95.2453 388.311 95.2227 388.114 95.2227C387.934 95.2227 387.758 95.2344 387.583 95.2541H365.39C365.215 95.2351 365.039 95.2227 364.859 95.2227C364.662 95.2227 364.47 95.2446 364.275 95.2541H364.193C364.021 95.2541 363.852 95.2665 363.686 95.2856C360.51 95.5839 357.549 97.0884 355.067 99.6964C348.16 106.953 345.073 122.232 346.143 143.88C346.268 146.422 348.369 148.399 350.887 148.399C350.965 148.399 351.046 148.398 351.125 148.394C353.747 148.264 355.768 146.033 355.639 143.411C354.67 123.805 357.496 114.068 359.805 109.482V137.458H393.167V109.482C395.477 114.068 398.302 123.805 397.334 143.41C397.204 146.032 399.225 148.263 401.848 148.393C401.93 148.398 402.009 148.399 402.087 148.399Z" fill="#EDD4B9"/>
<path d="M376.487 92.6929C384.767 92.6929 391.48 85.9804 391.48 77.7C391.48 69.4196 384.767 62.707 376.487 62.707C368.207 62.707 361.494 69.4196 361.494 77.7C361.494 85.9804 368.207 92.6929 376.487 92.6929Z" fill="#EDD4B9"/>
</svg>
