<svg width="776" height="1541" viewBox="0 0 776 1541" fill="none" xmlns="http://www.w3.org/2000/svg">
<g clip-path="url(#clip0_77_28)">
<path d="M171.979 1277.99C443.797 1188.86 589.944 900.095 500.811 628.277C411.678 356.459 122.917 210.312 -148.901 299.445C-420.719 388.578 -566.866 677.339 -477.733 949.157C-388.6 1220.97 -99.8387 1367.12 171.979 1277.99ZM-77.5941 516.899C70.9996 468.173 234.631 550.99 283.357 699.584C332.083 848.177 249.266 1011.81 100.672 1060.53C-47.9213 1109.26 -211.552 1026.44 -260.279 877.85C-309.005 729.256 -226.188 565.625 -77.5941 516.899Z" fill="#F4FAFF"/>
<path d="M267.848 664.53C264.283 653.657 263.153 637.971 259.588 627.099C210.862 478.505 47.2307 395.688 -101.363 444.414C-249.957 493.141 -332.774 656.772 -284.048 805.365C-280.482 816.238 -275.728 830.735 -268.539 840.419C-294.39 700.38 -215.315 562.06 -77.5942 516.899C60.1268 471.738 205.755 536.375 267.848 664.53ZM148.21 1205.5C-109.111 1289.88 -384.681 1159.48 -485.993 911.726C-482.428 922.599 -481.298 938.284 -477.733 949.157C-388.6 1220.97 -99.8387 1367.12 171.979 1277.99C443.797 1188.86 589.944 900.095 500.811 628.277C497.246 617.404 492.492 602.907 485.302 593.223C550.372 852.862 405.531 1121.12 148.21 1205.5Z" fill="#D5E5F2"/>
<path d="M283.357 699.584C295.241 735.826 298.689 770.821 294.888 808.193L524.168 785.19C523.215 733.321 517.449 679.016 500.811 628.277C484.173 577.538 460.286 529.175 426.715 488.002L228.335 605.236C253.528 633.1 271.472 663.341 283.357 699.584V699.584ZM-289.175 373.541L-171.942 571.921C-144.078 546.728 -113.837 528.784 -77.5941 516.899C-41.3518 505.015 -6.35677 501.567 31.0151 505.368L8.01208 276.088C-43.8568 277.041 -98.1615 282.807 -148.901 299.445C-199.64 316.083 -248.003 339.97 -289.175 373.541V373.541ZM-260.279 877.85C-272.163 841.608 -275.611 806.613 -271.81 769.241L-501.089 792.244C-500.137 844.113 -494.371 898.417 -477.733 949.157C-461.095 999.896 -437.208 1048.26 -403.637 1089.43L-205.257 972.198C-230.45 944.334 -248.394 914.093 -260.279 877.85V877.85ZM100.672 1060.53C64.43 1072.42 29.435 1075.87 -7.9369 1072.07L15.0662 1301.35C68.1235 1304.02 121.24 1294.63 171.979 1277.99C222.718 1261.35 271.081 1237.46 312.254 1203.89L195.02 1005.51C167.156 1030.71 136.915 1048.65 100.672 1060.53Z" fill="#EF4A4C"/>
<path d="M178.923 1091.07C199.244 1128.56 186.947 1176.75 149.458 1197.07C125.276 1209.01 101.095 1220.95 75.7256 1229.27C53.9802 1236.4 31.0463 1239.91 9.30086 1247.04L16.2548 1304.97C68.1237 1304.02 121.24 1294.63 171.979 1277.99C222.719 1261.35 271.081 1237.46 312.254 1203.89L195.021 1005.51C179.276 1018.7 162.343 1028.27 145.411 1037.84L178.923 1091.07V1091.07ZM-290.814 956.1C-328.304 976.422 -376.49 964.125 -396.811 926.635C-408.754 902.454 -420.698 878.273 -429.017 852.903C-436.147 831.158 -439.654 808.224 -446.785 786.478L-504.713 793.432C-503.761 845.301 -497.995 899.606 -481.357 950.345C-464.719 1001.08 -440.832 1049.45 -407.261 1090.62L-208.881 973.387C-222.072 957.642 -231.638 940.71 -241.204 923.777L-290.814 956.1V956.1ZM-155.844 486.363C-176.166 448.874 -163.869 400.688 -126.379 380.367C-102.198 368.423 -78.0167 356.48 -52.647 348.161C-30.9016 341.03 -7.96775 337.524 13.7777 330.393L6.82376 272.464C-45.0451 273.417 -99.3498 279.182 -150.089 295.821C-200.828 312.459 -249.191 336.346 -290.364 369.917L-173.13 568.297C-157.386 555.106 -140.453 545.54 -123.521 535.973L-155.844 486.363V486.363ZM313.893 621.333C351.383 601.012 399.568 613.309 419.89 650.798C431.833 674.98 443.776 699.161 452.095 724.531C459.226 746.276 462.732 769.21 469.863 790.955L527.792 784.001C526.839 732.132 521.074 677.828 504.436 627.088C487.797 576.349 463.911 527.987 430.34 486.814L231.959 604.047C245.15 619.791 254.717 636.724 264.283 653.657L313.893 621.333Z" fill="#E83030"/>
</g>
<defs>
<clipPath id="clip0_77_28">
<rect width="1220.52" height="1220.52" fill="white" transform="translate(-384.13 1540.62) rotate(-108.155)"/>
</clipPath>
</defs>
</svg>
