<svg width="3823" height="1139" viewBox="0 0 3823 1139" fill="none" xmlns="http://www.w3.org/2000/svg">
<path d="M1766 1070.77C2042.14 1070.77 2266 846.118 2266 568.998C2266 291.877 2042.14 67.2267 1766 67.2267C1489.86 67.2267 1266 291.877 1266 568.998C1266 846.118 1489.86 1070.77 1766 1070.77Z" fill="#B2E4FA"/>
<path d="M1841.01 548.748C1830.91 584.74 1824.78 621.74 1822.74 659.077L1820.62 695.971C1833.67 699.655 1852.88 704.367 1867.71 708.556L1921.93 504.278C1937.51 445.544 1942.81 439.826 1942.81 439.826L1939.98 433.811L1939.22 434.107C1915.51 444.879 1894.44 460.721 1877.48 480.524C1860.51 500.327 1848.07 523.612 1841.01 548.748Z" fill="#FED32F"/>
<path d="M1969.14 582.991C1960.07 619.259 1947.04 654.416 1930.31 687.825L1913.86 720.89C1900.72 717.576 1881.71 712.072 1866.77 708.305L1920.98 504.026C1936.57 445.293 1935.82 436.919 1935.82 436.919L1940.24 433.881L1940.76 434.519C1955.99 455.696 1966.42 479.957 1971.32 505.604C1976.22 531.251 1975.48 557.663 1969.14 582.991Z" fill="#FED32F"/>
<path d="M1872.13 692.243C1869.38 691.52 1867.04 689.731 1865.61 687.271C1864.18 684.811 1863.78 681.882 1864.5 679.126L1888.96 585.627C1889.68 582.872 1891.47 580.517 1893.92 579.08C1896.37 577.643 1899.29 577.243 1902.03 577.966C1904.78 578.69 1907.13 580.478 1908.56 582.938C1909.99 585.398 1910.39 588.328 1909.67 591.083L1885.2 684.582C1884.48 687.338 1882.7 689.693 1880.25 691.129C1877.8 692.566 1874.88 692.967 1872.13 692.243Z" fill="#F9B22A"/>
<path d="M1658.23 482.288L1709.19 696.393L1692.05 700.501L1641.09 486.396L1658.23 482.288Z" fill="#57565C"/>
<path d="M1612.84 329.097C1697.87 308.746 1782.98 356.643 1804.55 447.305C1805.7 452.069 1802.79 456.885 1798.04 458.041L1505.57 528.106C1500.82 529.227 1496.05 526.247 1494.94 521.476C1473.37 430.813 1527.75 349.499 1612.77 329.113L1614.78 337.577C1614.81 337.572 1614.83 337.567 1614.85 337.561L1612.84 329.097Z" fill="#E83030"/>
<path d="M1612.77 329.113C1612.77 329.113 1719.68 358.072 1746.37 470.296L1557.12 515.632C1530.43 403.408 1612.77 329.113 1612.77 329.113Z" fill="#FEF9E6"/>
<path d="M1493.42 790.16H2075.24C2011.75 678.648 1636.07 567.465 1493.42 790.16Z" fill="#F8E1C2"/>
<path d="M1493.42 790.16H1667.64L1794.35 663.002C1680.36 654.28 1560.85 684.879 1493.42 790.16Z" fill="#FCF1E2"/>
<g clip-path="url(#clip0_20_123)">
<path d="M1778.54 727.011C1778.14 726.904 1777.78 726.717 1777.46 726.462C1774.39 724.278 1770.65 723.231 1766.89 723.501C1766.37 723.558 1765.84 723.474 1765.36 723.258C1764.88 723.042 1764.47 722.702 1764.16 722.273C1763.72 721.44 1764.25 720.635 1765.37 720.487C1770.76 720.063 1776.12 721.566 1780.5 724.728C1781.38 725.436 1781.42 726.401 1780.61 726.882C1780.29 727.042 1779.94 727.136 1779.58 727.158C1779.23 727.18 1778.87 727.13 1778.54 727.011ZM1805.3 733.156L1800.27 731.748C1799.9 731.642 1799.58 731.39 1799.38 731.047C1799.19 730.704 1799.14 730.299 1799.25 729.92C1799.35 729.542 1799.61 729.221 1799.95 729.028C1800.29 728.835 1800.7 728.787 1801.07 728.893L1806.1 730.301C1806.48 730.407 1806.8 730.659 1806.99 731.002C1807.19 731.345 1807.23 731.75 1807.13 732.129C1807.02 732.507 1806.77 732.828 1806.43 733.021C1806.08 733.214 1805.68 733.262 1805.3 733.156ZM1744.66 716.16L1739.63 714.751C1739.25 714.645 1738.93 714.393 1738.74 714.05C1738.55 713.707 1738.5 713.302 1738.6 712.924C1738.71 712.545 1738.96 712.224 1739.3 712.031C1739.65 711.839 1740.05 711.79 1740.43 711.896L1745.46 713.304C1745.83 713.411 1746.16 713.663 1746.35 714.005C1746.54 714.348 1746.59 714.754 1746.48 715.132C1746.38 715.511 1746.13 715.832 1745.78 716.024C1745.44 716.217 1745.03 716.266 1744.66 716.16ZM1791.2 723.045L1756.93 713.442C1756.56 713.336 1756.23 713.084 1756.04 712.741C1755.85 712.398 1755.8 711.993 1755.91 711.614C1756.01 711.236 1756.27 710.915 1756.61 710.722C1756.95 710.529 1757.36 710.481 1757.73 710.587L1792 720.189C1792.38 720.296 1792.7 720.548 1792.89 720.891C1793.08 721.233 1793.13 721.639 1793.02 722.017C1792.92 722.396 1792.67 722.717 1792.32 722.909C1791.98 723.102 1791.58 723.151 1791.2 723.045Z" fill="#E83030"/>
<path d="M1768.45 721.783C1766.36 729.263 1754.4 738.969 1747.26 736.968C1740.12 734.968 1738.97 728.086 1741.07 720.605C1741.5 718.852 1742.28 717.201 1743.35 715.748C1744.42 714.295 1745.77 713.068 1747.32 712.137C1748.87 711.206 1750.59 710.59 1752.37 710.324C1754.16 710.058 1755.98 710.148 1757.73 710.587C1764.84 712.579 1770.58 714.188 1768.45 721.783ZM1801.02 737.438C1798.92 744.919 1794.36 750.2 1787.23 748.2C1780.09 746.199 1774.92 731.692 1777.01 724.212C1779.11 716.731 1784.92 718.205 1792 720.189C1793.72 720.725 1795.33 721.598 1796.72 722.756C1798.11 723.914 1799.26 725.335 1800.09 726.938C1800.93 728.541 1801.45 730.294 1801.6 732.096C1801.76 733.898 1801.57 735.713 1801.02 737.438Z" fill="#3C3B41"/>
<path d="M1806.1 730.301L1801.76 729.085C1800.93 726.939 1799.61 725.017 1797.9 723.47C1796.2 721.923 1794.16 720.795 1791.94 720.173L1757.68 710.571C1755.46 709.95 1753.13 709.853 1750.87 710.289C1748.61 710.724 1746.48 711.68 1744.66 713.08L1740.43 711.896C1740.05 711.79 1739.65 711.839 1739.3 712.031C1738.96 712.224 1738.71 712.545 1738.6 712.924C1738.5 713.302 1738.55 713.707 1738.74 714.05C1738.93 714.393 1739.25 714.645 1739.63 714.751L1742.26 715.487C1740.96 717.067 1740.01 718.897 1739.46 720.862C1736.95 729.798 1739.74 736.338 1746.88 738.339C1754.59 740.499 1766.67 731.567 1769.42 723.839C1770.43 723.705 1771.46 723.778 1772.44 724.053C1773.42 724.328 1774.33 724.8 1775.13 725.439C1773.41 733.456 1779.08 747.365 1786.85 749.542C1793.99 751.542 1799.77 747.403 1802.27 738.467C1802.82 736.5 1802.96 734.442 1802.67 732.42L1805.3 733.156C1805.68 733.262 1806.08 733.214 1806.43 733.021C1806.77 732.828 1807.02 732.507 1807.13 732.129C1807.23 731.75 1807.19 731.345 1806.99 731.002C1806.8 730.659 1806.48 730.407 1806.1 730.301ZM1747.68 735.483C1740.23 733.395 1741.12 725.916 1742.31 721.662C1743.16 718.633 1745.18 716.065 1747.92 714.524C1750.66 712.982 1753.91 712.593 1756.93 713.442C1765.21 715.763 1768.22 717.128 1766.75 722.353C1764.95 728.777 1753.84 737.212 1747.68 735.483ZM1776.15 722.554C1774.31 721.381 1772.17 720.779 1769.99 720.826C1770.15 719.497 1769.94 718.148 1769.38 716.931L1778.78 719.564C1777.64 720.293 1776.73 721.33 1776.15 722.554ZM1787.65 746.686C1781.48 744.958 1776.39 731.921 1778.18 725.554C1779.64 720.329 1782.92 720.724 1791.2 723.045C1794.23 723.894 1796.79 725.911 1798.33 728.653C1799.88 731.395 1800.27 734.637 1799.42 737.666C1798.2 742.006 1795.1 748.775 1787.65 746.686Z" fill="#E83030"/>
</g>
<mask id="mask0_20_123" style="mask-type:alpha" maskUnits="userSpaceOnUse" x="1266" y="67" width="1000" height="1004">
<path d="M1766 1070.77C2042.14 1070.77 2266 846.118 2266 568.998C2266 291.877 2042.14 67.2267 1766 67.2267C1489.86 67.2267 1266 291.877 1266 568.998C1266 846.118 1489.86 1070.77 1766 1070.77Z" fill="#B2E4FA"/>
</mask>
<g mask="url(#mask0_20_123)">
<rect x="1272" y="752" width="977" height="322" fill="#5EA7FF"/>
<path d="M1906.44 936.731C1898.66 936.782 1890.96 935.048 1883.95 931.66C1876.94 928.271 1870.79 923.319 1865.98 917.182C1861.26 911.206 1857.96 904.225 1856.35 896.774C1855.62 893.968 1856.04 890.988 1857.51 888.491C1858.97 885.993 1861.36 884.182 1864.16 883.455C1866.96 882.729 1869.93 883.147 1872.41 884.617C1874.9 886.088 1876.71 888.49 1877.43 891.296C1878.4 895.683 1880.34 899.795 1883.11 903.326C1886.65 907.835 1891.4 911.239 1896.8 913.14C1902.2 915.042 1908.03 915.364 1913.61 914.067C1919.11 912.946 1924.16 910.232 1928.13 906.261C1932.11 902.29 1934.84 897.237 1935.98 891.726C1936.48 889.263 1937.82 887.054 1939.78 885.484C1941.74 883.914 1944.18 883.082 1946.68 883.133C1949.52 883.133 1952.24 884.265 1954.25 886.279C1956.26 888.293 1957.39 891.025 1957.39 893.874C1957.49 894.694 1957.49 895.524 1957.39 896.344C1955.36 905.854 1950.61 914.565 1943.73 921.413C1936.85 928.261 1928.13 932.949 1918.64 934.905C1914.66 936.011 1910.56 936.624 1906.44 936.731Z" fill="#D2E6FF"/>
<path d="M1987.44 936.731C1979.66 936.782 1971.96 935.048 1964.95 931.66C1957.94 928.271 1951.79 923.319 1946.98 917.182C1942.26 911.206 1938.96 904.225 1937.35 896.774C1936.62 893.968 1937.04 890.988 1938.51 888.491C1939.97 885.993 1942.36 884.182 1945.16 883.455C1947.96 882.729 1950.93 883.147 1953.41 884.617C1955.9 886.088 1957.71 888.49 1958.43 891.296C1959.4 895.683 1961.34 899.795 1964.11 903.326C1967.65 907.835 1972.4 911.239 1977.8 913.14C1983.2 915.042 1989.03 915.364 1994.61 914.067C2000.11 912.946 2005.16 910.232 2009.13 906.261C2013.11 902.29 2015.84 897.237 2016.98 891.726C2017.48 889.263 2018.82 887.054 2020.78 885.484C2022.74 883.914 2025.18 883.082 2027.68 883.133C2030.52 883.133 2033.24 884.265 2035.25 886.279C2037.26 888.293 2038.39 891.025 2038.39 893.874C2038.49 894.694 2038.49 895.524 2038.39 896.344C2036.36 905.854 2031.61 914.565 2024.73 921.413C2017.85 928.261 2009.13 932.949 1999.64 934.905C1995.66 936.011 1991.56 936.624 1987.44 936.731Z" fill="#D2E6FF"/>
<path d="M1501.44 883.543C1493.66 883.595 1485.96 881.86 1478.95 878.472C1471.94 875.084 1465.79 870.132 1460.98 863.994C1456.26 858.019 1452.96 851.038 1451.35 843.586C1450.62 840.78 1451.04 837.801 1452.51 835.303C1453.97 832.805 1456.36 830.994 1459.16 830.267C1461.96 829.541 1464.93 829.959 1467.41 831.429C1469.9 832.9 1471.71 835.302 1472.43 838.108C1473.4 842.495 1475.34 846.608 1478.11 850.138C1481.65 854.647 1486.4 858.051 1491.8 859.953C1497.2 861.854 1503.03 862.176 1508.61 860.879C1514.11 859.758 1519.16 857.044 1523.13 853.073C1527.11 849.103 1529.84 844.049 1530.98 838.538C1531.48 836.075 1532.82 833.867 1534.78 832.297C1536.74 830.726 1539.18 829.894 1541.68 829.945C1544.52 829.945 1547.24 831.077 1549.25 833.091C1551.26 835.105 1552.39 837.837 1552.39 840.686C1552.49 841.506 1552.49 842.336 1552.39 843.157C1550.36 852.666 1545.61 861.378 1538.73 868.226C1531.85 875.074 1523.13 879.762 1513.64 881.717C1509.66 882.824 1505.56 883.437 1501.44 883.543Z" fill="#D2E6FF"/>
<path d="M1582.44 883.543C1574.66 883.595 1566.96 881.86 1559.95 878.472C1552.94 875.084 1546.79 870.132 1541.98 863.994C1537.26 858.019 1533.96 851.038 1532.35 843.586C1531.62 840.78 1532.04 837.801 1533.51 835.303C1534.97 832.805 1537.36 830.994 1540.16 830.267C1542.96 829.541 1545.93 829.959 1548.41 831.429C1550.9 832.9 1552.71 835.302 1553.43 838.108C1554.4 842.495 1556.34 846.608 1559.11 850.138C1562.65 854.647 1567.4 858.051 1572.8 859.953C1578.2 861.854 1584.03 862.176 1589.61 860.879C1595.11 859.758 1600.16 857.044 1604.13 853.073C1608.11 849.103 1610.84 844.049 1611.98 838.538C1612.48 836.075 1613.82 833.867 1615.78 832.297C1617.74 830.726 1620.18 829.894 1622.68 829.945C1625.52 829.945 1628.24 831.077 1630.25 833.091C1632.26 835.105 1633.39 837.837 1633.39 840.686C1633.49 841.506 1633.49 842.336 1633.39 843.157C1631.36 852.666 1626.61 861.378 1619.73 868.226C1612.85 875.074 1604.13 879.762 1594.64 881.717C1590.66 882.824 1586.56 883.437 1582.44 883.543Z" fill="#D2E6FF"/>
<path d="M2038.48 773C2034.7 772.979 2030.94 772.583 2027.24 771.818C2015.9 769.462 2005.73 763.237 1998.45 754.203C1993.58 760.008 1987.52 764.676 1980.67 767.878C1973.81 771.08 1966.35 772.739 1958.79 772.739C1951.24 772.739 1943.77 771.08 1936.92 767.878C1930.07 764.676 1924 760.008 1919.14 754.203C1914.35 760.126 1908.29 764.892 1901.42 768.146C1894.54 771.4 1887.03 773.059 1879.43 773C1871.85 773.085 1864.34 771.459 1857.47 768.243C1850.59 765.026 1844.53 760.302 1839.72 754.418C1834.91 760.302 1828.85 765.026 1821.97 768.243C1815.1 771.459 1807.59 773.085 1800.01 773C1788.36 773.125 1777.02 769.222 1767.9 761.946C1758.78 754.669 1752.43 744.463 1749.92 733.043C1749.51 730.373 1750.11 727.644 1751.62 725.402C1753.12 723.159 1755.41 721.568 1758.03 720.944C1760.65 720.321 1763.41 720.711 1765.75 722.038C1768.1 723.365 1769.86 725.53 1770.68 728.102C1772.1 734.816 1775.8 740.826 1781.15 745.099C1786.51 749.372 1793.17 751.641 1800.01 751.518C1806.84 751.637 1813.49 749.364 1818.82 745.089C1824.16 740.815 1827.84 734.808 1829.23 728.102C1829.38 727.321 1829.63 726.563 1829.98 725.846C1830.91 723.525 1832.61 721.6 1834.8 720.404C1836.99 719.208 1839.52 718.815 1841.97 719.294C1844.06 719.764 1845.97 720.854 1847.44 722.425C1848.91 723.996 1849.87 725.974 1850.21 728.102C1851.62 734.78 1855.29 740.761 1860.6 745.03C1865.9 749.299 1872.52 751.591 1879.32 751.518C1886.15 751.637 1892.8 749.364 1898.13 745.089C1903.47 740.815 1907.15 734.808 1908.54 728.102C1908.69 727.321 1908.94 726.563 1909.29 725.846C1910.22 723.482 1911.96 721.525 1914.19 720.325C1916.43 719.126 1919.01 718.76 1921.49 719.294C1923.59 719.764 1925.49 720.854 1926.96 722.425C1928.43 723.996 1929.4 725.974 1929.73 728.102C1931.41 734.652 1935.23 740.446 1940.58 744.556C1945.94 748.666 1952.51 750.852 1959.25 750.766C1965.99 750.679 1972.5 748.324 1977.74 744.078C1982.99 739.832 1986.66 733.941 1988.17 727.35C1988.32 726.569 1988.58 725.811 1988.92 725.095C1989.88 723.112 1991.41 721.472 1993.33 720.396C1995.24 719.32 1997.44 718.86 1999.62 719.08C2001.84 719.313 2003.93 720.236 2005.6 721.719C2007.27 723.201 2008.44 725.17 2008.94 727.35C2009.99 733.002 2012.71 738.208 2016.73 742.303C2020.75 746.398 2025.9 749.195 2031.52 750.336C2037.1 751.606 2042.92 751.272 2048.31 749.372C2053.71 747.472 2058.46 744.083 2062.02 739.595C2064.6 736.119 2066.49 732.181 2067.59 727.995C2068.2 725.22 2069.89 722.802 2072.28 721.272C2074.66 719.742 2077.56 719.224 2080.33 719.832C2083.08 720.331 2085.53 721.892 2087.15 724.18C2088.77 726.469 2089.43 729.303 2089 732.076V732.613C2087.33 739.987 2084.16 746.935 2079.68 753.021C2074.83 759.327 2068.58 764.414 2061.42 767.881C2054.27 771.348 2046.42 773.1 2038.48 773Z" fill="#5EA7FF"/>
<path d="M1720.38 773C1708.94 773.102 1697.81 769.314 1688.79 762.253C1679.77 755.192 1673.4 745.275 1670.72 734.117C1670.31 732.98 1670.09 731.782 1670.07 730.572C1669.75 727.724 1670.56 724.862 1672.34 722.616C1674.12 720.37 1676.71 718.924 1679.55 718.596C1682.39 718.269 1685.24 719.086 1687.48 720.869C1689.71 722.651 1691.15 725.253 1691.48 728.102C1692.86 734.734 1696.48 740.686 1701.72 744.952C1706.97 749.218 1713.52 751.537 1720.27 751.517C1727.07 751.677 1733.71 749.461 1739.06 745.249C1744.41 741.036 1748.14 735.089 1749.6 728.424C1750.1 725.962 1751.44 723.753 1753.4 722.183C1755.36 720.613 1757.8 719.781 1760.3 719.831C1763.14 719.831 1765.86 720.963 1767.87 722.977C1769.88 724.992 1771 727.724 1771 730.572C1771.12 731.428 1771.12 732.295 1771 733.15C1768.46 744.642 1762.02 754.893 1752.79 762.159C1743.56 769.424 1732.11 773.255 1720.38 773Z" fill="#5EA7FF"/>
<path d="M1640.85 773C1629.19 773.166 1617.83 769.277 1608.7 761.994C1599.57 754.711 1593.23 744.482 1590.76 733.043C1590.35 730.373 1590.96 727.644 1592.46 725.402C1593.96 723.159 1596.25 721.568 1598.87 720.944C1601.49 720.321 1604.25 720.711 1606.6 722.038C1608.94 723.365 1610.7 725.53 1611.53 728.102C1613.08 734.721 1616.82 740.619 1622.13 744.84C1627.45 749.061 1634.02 751.358 1640.8 751.358C1647.58 751.358 1654.16 749.061 1659.47 744.84C1664.78 740.619 1668.52 734.721 1670.07 728.102C1670.57 725.639 1671.92 723.431 1673.88 721.861C1675.83 720.291 1678.27 719.459 1680.78 719.509C1683.62 719.509 1686.34 720.641 1688.35 722.655C1690.35 724.67 1691.48 727.402 1691.48 730.25C1691.58 731.07 1691.58 731.901 1691.48 732.721C1689.06 744.311 1682.67 754.686 1673.42 762.043C1664.18 769.4 1652.65 773.277 1640.85 773Z" fill="#5EA7FF"/>
<path d="M1561.44 773C1553.66 773.051 1545.96 771.317 1538.95 767.929C1531.94 764.54 1525.79 759.588 1520.98 753.451C1516.26 747.476 1512.96 740.495 1511.35 733.043C1510.62 730.237 1511.04 727.258 1512.51 724.76C1513.97 722.262 1516.36 720.451 1519.16 719.724C1521.96 718.998 1524.93 719.416 1527.41 720.886C1529.9 722.357 1531.71 724.759 1532.43 727.565C1533.4 731.952 1535.34 736.064 1538.11 739.595C1541.65 744.104 1546.4 747.508 1551.8 749.409C1557.2 751.311 1563.03 751.633 1568.61 750.336C1574.11 749.215 1579.16 746.501 1583.13 742.53C1587.11 738.559 1589.84 733.506 1590.98 727.995C1591.48 725.532 1592.82 723.324 1594.78 721.754C1596.74 720.184 1599.18 719.351 1601.68 719.402C1604.52 719.402 1607.24 720.534 1609.25 722.548C1611.26 724.562 1612.39 727.294 1612.39 730.143C1612.49 730.963 1612.49 731.793 1612.39 732.614C1610.36 742.123 1605.61 750.835 1598.73 757.682C1591.85 764.53 1583.13 769.218 1573.64 771.174C1569.66 772.28 1565.56 772.893 1561.44 773Z" fill="#5EA7FF"/>
<path d="M2117.44 773.153C2109.66 773.205 2101.96 771.47 2094.95 768.082C2087.94 764.694 2081.79 759.742 2076.98 753.605C2072.26 747.629 2068.96 740.648 2067.35 733.197C2066.62 730.391 2067.04 727.411 2068.51 724.913C2069.97 722.416 2072.36 720.604 2075.16 719.878C2077.96 719.151 2080.93 719.569 2083.41 721.04C2085.9 722.51 2087.71 724.913 2088.43 727.719C2089.4 732.106 2091.34 736.218 2094.11 739.749C2097.65 744.257 2102.4 747.661 2107.8 749.563C2113.2 751.465 2119.03 751.786 2124.61 750.49C2130.11 749.369 2135.16 746.655 2139.13 742.684C2143.11 738.713 2145.84 733.659 2146.98 728.148C2147.48 725.686 2148.82 723.477 2150.78 721.907C2152.74 720.337 2155.18 719.505 2157.68 719.556C2160.52 719.556 2163.24 720.687 2165.25 722.702C2167.26 724.716 2168.39 727.448 2168.39 730.297C2168.49 731.117 2168.49 731.947 2168.39 732.767C2166.36 742.277 2161.61 750.988 2154.73 757.836C2147.85 764.684 2139.13 769.372 2129.64 771.327C2125.66 772.434 2121.56 773.047 2117.44 773.153Z" fill="#5EA7FF"/>
<path d="M2198.44 773.153C2190.66 773.205 2182.96 771.47 2175.95 768.082C2168.94 764.694 2162.79 759.742 2157.98 753.605C2153.26 747.629 2149.96 740.648 2148.35 733.197C2147.62 730.391 2148.04 727.411 2149.51 724.913C2150.97 722.416 2153.36 720.604 2156.16 719.878C2158.96 719.151 2161.93 719.569 2164.41 721.04C2166.9 722.51 2168.71 724.913 2169.43 727.719C2170.4 732.106 2172.34 736.218 2175.11 739.749C2178.65 744.257 2183.4 747.661 2188.8 749.563C2194.2 751.465 2200.03 751.786 2205.61 750.49C2211.11 749.369 2216.16 746.655 2220.13 742.684C2224.11 738.713 2226.84 733.659 2227.98 728.148C2228.48 725.686 2229.82 723.477 2231.78 721.907C2233.74 720.337 2236.18 719.505 2238.68 719.556C2241.52 719.556 2244.24 720.687 2246.25 722.702C2248.26 724.716 2249.39 727.448 2249.39 730.297C2249.49 731.117 2249.49 731.947 2249.39 732.767C2247.36 742.277 2242.61 750.988 2235.73 757.836C2228.85 764.684 2220.13 769.372 2210.64 771.327C2206.66 772.434 2202.56 773.047 2198.44 773.153Z" fill="#5EA7FF"/>
<path d="M1401.44 773C1393.66 773.051 1385.96 771.317 1378.95 767.929C1371.94 764.54 1365.79 759.588 1360.98 753.451C1356.26 747.476 1352.96 740.495 1351.35 733.043C1350.62 730.237 1351.04 727.258 1352.51 724.76C1353.97 722.262 1356.36 720.451 1359.16 719.724C1361.96 718.998 1364.93 719.416 1367.41 720.886C1369.9 722.357 1371.71 724.759 1372.43 727.565C1373.4 731.952 1375.34 736.064 1378.11 739.595C1381.65 744.104 1386.4 747.508 1391.8 749.409C1397.2 751.311 1403.03 751.633 1408.61 750.336C1414.11 749.215 1419.16 746.501 1423.13 742.53C1427.11 738.559 1429.84 733.506 1430.98 727.995C1431.48 725.532 1432.82 723.324 1434.78 721.754C1436.74 720.184 1439.18 719.351 1441.68 719.402C1444.52 719.402 1447.24 720.534 1449.25 722.548C1451.26 724.562 1452.39 727.294 1452.39 730.143C1452.49 730.963 1452.49 731.793 1452.39 732.614C1450.36 742.123 1445.61 750.835 1438.73 757.682C1431.85 764.53 1423.13 769.218 1413.64 771.174C1409.66 772.28 1405.56 772.893 1401.44 773Z" fill="#5EA7FF"/>
<path d="M1322.44 773C1314.66 773.051 1306.96 771.317 1299.95 767.929C1292.94 764.54 1286.79 759.588 1281.98 753.451C1277.26 747.476 1273.96 740.495 1272.35 733.043C1271.62 730.237 1272.04 727.258 1273.51 724.76C1274.97 722.262 1277.36 720.451 1280.16 719.724C1282.96 718.998 1285.93 719.416 1288.41 720.886C1290.9 722.357 1292.71 724.759 1293.43 727.565C1294.4 731.952 1296.34 736.064 1299.11 739.595C1302.65 744.104 1307.4 747.508 1312.8 749.409C1318.2 751.311 1324.03 751.633 1329.61 750.336C1335.11 749.215 1340.16 746.501 1344.13 742.53C1348.11 738.559 1350.84 733.506 1351.98 727.995C1352.48 725.532 1353.82 723.324 1355.78 721.754C1357.74 720.184 1360.18 719.351 1362.68 719.402C1365.52 719.402 1368.24 720.534 1370.25 722.548C1372.26 724.562 1373.39 727.294 1373.39 730.143C1373.49 730.963 1373.49 731.793 1373.39 732.614C1371.36 742.123 1366.61 750.835 1359.73 757.682C1352.85 764.53 1344.13 769.218 1334.64 771.174C1330.66 772.28 1326.56 772.893 1322.44 773Z" fill="#5EA7FF"/>
<path d="M1481.44 773C1473.66 773.051 1465.96 771.317 1458.95 767.929C1451.94 764.54 1445.79 759.588 1440.98 753.451C1436.26 747.476 1432.96 740.495 1431.35 733.043C1430.62 730.237 1431.04 727.258 1432.51 724.76C1433.97 722.262 1436.36 720.451 1439.16 719.724C1441.96 718.998 1444.93 719.416 1447.41 720.886C1449.9 722.357 1451.71 724.759 1452.43 727.565C1453.4 731.952 1455.34 736.064 1458.11 739.595C1461.65 744.104 1466.4 747.508 1471.8 749.409C1477.2 751.311 1483.03 751.633 1488.61 750.336C1494.11 749.215 1499.16 746.501 1503.13 742.53C1507.11 738.559 1509.84 733.506 1510.98 727.995C1511.48 725.532 1512.82 723.324 1514.78 721.754C1516.74 720.184 1519.18 719.351 1521.68 719.402C1524.52 719.402 1527.24 720.534 1529.25 722.548C1531.26 724.562 1532.39 727.294 1532.39 730.143C1532.49 730.963 1532.49 731.793 1532.39 732.614C1530.36 742.123 1525.61 750.835 1518.73 757.682C1511.85 764.53 1503.13 769.218 1493.64 771.174C1489.66 772.28 1485.56 772.893 1481.44 773Z" fill="#5EA7FF"/>
</g>
<defs>
<clipPath id="clip0_20_123">
<rect width="71.1651" height="71.1651" fill="white" transform="translate(1747.21 683) rotate(15.6565)"/>
</clipPath>
</defs>
</svg>
