<svg width="198" height="199" viewBox="0 0 198 199" fill="none" xmlns="http://www.w3.org/2000/svg">
<path fill-rule="evenodd" clip-rule="evenodd" d="M179.275 45.9834C179.275 39.356 173.902 33.9834 167.275 33.9834H154.225C147.597 33.9834 142.225 39.356 142.225 45.9834V181.504C142.225 188.132 147.597 193.504 154.225 193.504H167.275C173.902 193.504 179.275 188.132 179.275 181.504V45.9834Z" fill="#6CF5C2"/>
<path fill-rule="evenodd" clip-rule="evenodd" d="M123.9 114.349C123.9 107.721 118.527 102.349 111.9 102.349H98.4512C91.8238 102.349 86.4512 107.721 86.4512 114.349V181.503C86.4512 188.131 91.8238 193.503 98.4512 193.503H111.9C118.527 193.503 123.9 188.131 123.9 181.503V114.349Z" fill="#FFE177"/>
<path d="M31.0742 148.732C31.0742 142.105 36.4468 136.732 43.0742 136.732H56.1245C62.7519 136.732 68.1245 142.105 68.1245 148.732V181.504C68.1245 188.132 62.7519 193.504 56.1245 193.504H43.0742C36.4468 193.504 31.0742 188.132 31.0742 181.504V148.732Z" fill="#FE646F"/>
<path d="M12.375 186.282V6.20941C12.375 4.56257 11.7231 2.98319 10.5627 1.8187C9.40234 0.654205 7.82853 0 6.1875 0C4.54647 0 2.97266 0.654205 1.81228 1.8187C0.651897 2.98319 0 4.56257 0 6.20941V198.701H191.812C193.454 198.701 195.027 198.047 196.188 196.883C197.348 195.718 198 194.139 198 192.492C198 190.845 197.348 189.266 196.188 188.101C195.027 186.937 193.454 186.282 191.812 186.282H12.375Z" fill="#57565C"/>
<path d="M146.245 67.2633C147.491 38.9764 125.656 15.0298 97.4686 13.7786C69.2814 12.5274 45.4194 34.4404 44.1726 62.7274C43.7858 71.2251 45.5214 79.6851 49.2216 87.3384L4.99023 131.841C8.54805 142.5 15.6389 149.6 26.269 153.143L69.7393 109.407C76.8171 113.517 84.779 115.853 92.9486 116.215C121.136 117.463 144.998 95.5503 146.245 67.2633V67.2633Z" fill="#B2E4FA"/>
<path d="M97.4686 13.7788C69.2814 12.5245 45.4194 34.4406 44.1726 62.7276C43.7861 71.2253 45.5216 79.6853 49.2216 87.3387L4.99023 131.842C6.97023 137.781 10.0918 142.571 14.2684 146.3L131.33 28.8242C122.615 20.0534 110.769 14.3687 97.4686 13.7788Z" fill="#D2E6FF"/>
<path d="M95.2115 101.614C115.365 101.614 131.702 85.2187 131.702 64.994C131.702 44.7694 115.365 28.374 95.2115 28.374C75.0582 28.374 58.7207 44.7694 58.7207 64.994C58.7207 85.2187 75.0582 101.614 95.2115 101.614Z" fill="#5EA7FF"/>
<path d="M96.8217 28.4115C76.6876 27.5173 59.6441 43.1713 58.7531 63.3736C58.2798 74.0786 62.4656 83.8833 69.473 90.8969L121.018 39.1662C114.588 32.6545 105.948 28.8144 96.8217 28.4115V28.4115Z" fill="#B2E4FA"/>
<path d="M49.2216 87.3389L4.99023 131.842C8.54805 142.5 15.6389 149.601 26.269 153.143L69.7393 109.407C60.8574 104.272 53.7112 96.5862 49.2216 87.3389V87.3389Z" fill="#84462D"/>
<path d="M49.2216 87.3389L4.99023 131.842C6.97023 137.781 10.0918 142.572 14.2684 146.301L59.1649 101.245C55.0969 97.2019 51.7356 92.5009 49.2216 87.3389V87.3389Z" fill="#9C6144"/>
<path d="M60.3472 118.852L69.7367 109.404C60.8545 104.272 53.7088 96.5864 49.222 87.3389L39.0684 97.5534L60.3472 118.852Z" fill="#F3B607"/>
<path d="M49.2221 87.3389L39.0684 97.5534L50.97 109.469L59.1623 101.248C55.0968 97.2024 51.7367 92.5007 49.2221 87.3389Z" fill="#FBE158"/>
</svg>
