<svg width="241" height="357" viewBox="0 0 241 357" fill="none" xmlns="http://www.w3.org/2000/svg">
<path d="M-17.2474 250.479C-20.2689 234.855 -11.146 219.396 3.95656 214.419L132.624 172.144C160.69 162.933 190.479 180.476 196.059 209.489C201.64 238.501 180.424 265.813 150.992 267.631L15.8454 276.047C-0.144947 277.111 -14.2562 266.166 -17.2474 250.479Z" fill="#FFB790"/>
<path d="M-0.0849291 269.171C-10.4738 257.091 -10.3155 239.218 0.314026 227.352L90.7591 126.539C110.482 104.538 145.046 104.9 164.37 127.271C183.694 149.641 178.938 183.853 154.32 200.153L41.3303 274.868C28.0172 283.652 10.3343 281.188 -0.0849291 269.171Z" fill="#FF846D"/>
<path d="M22.8393 269.922C36.9798 262.622 43.472 245.887 38.0303 230.945L-8.4603 103.792C-18.602 76.0487 -50.8216 63.5161 -77.06 77.0956C-103.298 90.6751 -111.612 124.245 -94.8182 148.483L-17.7573 259.826C-8.66314 272.979 8.66841 277.285 22.8393 269.922Z" fill="#FFB790"/>
<path d="M-2.46499 268.017C13.4529 268.697 27.3909 257.507 30.1284 241.814L53.3034 108.372C58.37 79.2625 36.6873 52.3434 7.15586 51.018C-22.3756 49.6926 -46.298 74.6083 -43.8574 104.032L-32.579 239.02C-31.2355 254.914 -18.3525 267.274 -2.46499 268.017Z" fill="#FF846D"/>
<path d="M0.0313125 265.9C-14.3121 258.943 -21.2362 242.432 -16.1564 227.333L27.0056 98.9435C36.3828 70.9962 68.2587 57.5978 94.816 70.4788C121.373 83.3598 130.586 116.687 114.414 141.416L40.3101 254.798C31.6279 268.073 14.3748 272.857 0.0313125 265.9Z" fill="#FFB790"/>
<path d="M30.3963 305.387L-49.7767 266.501C-60.8631 261.124 -65.4756 247.823 -60.0984 236.737C-54.7212 225.65 -41.4201 221.038 -30.3337 226.415L49.8393 265.301C60.9257 270.678 65.5382 283.979 60.161 295.066C54.7838 306.152 41.4827 310.765 30.3963 305.387Z" fill="#FFB790"/>
</svg>
