<svg width="219" height="430" viewBox="0 0 219 430" fill="none" xmlns="http://www.w3.org/2000/svg">
<path fill-rule="evenodd" clip-rule="evenodd" d="M156.979 65.0267C176.098 57.1414 249.63 126.962 249.63 126.962C249.63 126.962 346.931 98.4327 360.337 114.178C373.742 129.923 330.061 221.432 330.061 221.432C330.061 221.432 387.268 305.159 376.435 322.774C365.602 340.388 265.073 327.122 265.073 327.122C265.073 327.122 203.123 407.398 183.022 402.541C162.922 397.685 144.473 297.972 144.473 297.972C144.473 297.972 48.9838 263.86 47.3924 243.243C45.8011 222.626 134.925 174.269 134.925 174.269C134.925 174.269 137.859 72.9119 156.979 65.0267Z" fill="#F9B22A"/>
<path fill-rule="evenodd" clip-rule="evenodd" d="M165.645 86.0405C168.651 87.4522 172.318 89.2955 175.186 91.1094C202.085 108.132 236.44 140.854 236.44 140.854C241.394 145.549 248.465 147.259 255.013 145.339C255.013 145.339 300.525 131.92 332.231 129.07C335.604 128.762 339.706 128.797 343.027 128.912C342.613 132.211 341.992 136.264 341.152 139.552C333.283 170.396 312.78 213.182 312.78 213.182C309.84 219.346 310.401 226.599 314.25 232.234C314.25 232.234 341.073 271.369 353.587 300.642C354.921 303.758 356.156 307.675 357.072 310.867C353.807 311.488 349.758 312.15 346.376 312.371C314.606 314.412 267.579 308.136 267.579 308.136C260.811 307.247 254.084 310.021 249.911 315.422C249.911 315.422 220.98 353.026 197.009 373.974C194.454 376.201 191.115 378.586 188.361 380.447C186.761 377.537 184.876 373.889 183.625 370.738C171.866 341.154 163.302 294.488 163.302 294.488C162.06 287.778 157.345 282.238 150.915 279.939C150.915 279.939 106.211 264.046 78.8863 247.716C75.973 245.977 72.6753 243.539 70.0562 241.491C72.3301 239.069 75.2151 236.153 77.8248 233.993C102.321 213.664 144.061 191.098 144.061 191.098C150.059 187.844 153.869 181.646 154.073 174.823C154.073 174.823 155.373 127.397 162.451 96.3614C163.207 93.0532 164.508 89.1607 165.645 86.0405Z" fill="#FFD541"/>
<path fill-rule="evenodd" clip-rule="evenodd" d="M179.652 136.594L218.771 231.447C219.779 233.89 222.579 235.055 225.022 234.048C227.465 233.04 228.631 230.24 227.623 227.797L188.503 132.943C187.496 130.5 184.695 129.335 182.252 130.343C179.809 131.35 178.644 134.151 179.652 136.594Z" fill="#F9B22A"/>
<path fill-rule="evenodd" clip-rule="evenodd" d="M298.597 159.389L220.177 225.965C218.161 227.673 217.916 230.695 219.624 232.711C221.332 234.727 224.354 234.972 226.37 233.264L304.796 166.685C306.812 164.977 307.057 161.955 305.349 159.939C303.635 157.926 300.613 157.68 298.597 159.389Z" fill="#F9B22A"/>
<path fill-rule="evenodd" clip-rule="evenodd" d="M313.612 280.609L225.77 225.563C223.53 224.167 220.576 224.84 219.174 227.082C217.769 229.318 218.445 232.278 220.687 233.68L308.526 288.721C310.763 290.125 313.72 289.444 315.125 287.208C316.527 284.965 315.848 282.014 313.612 280.609Z" fill="#F9B22A"/>
<path fill-rule="evenodd" clip-rule="evenodd" d="M203.947 328.752L227.854 230.766C228.481 228.202 226.906 225.606 224.335 224.981C221.771 224.354 219.183 225.932 218.55 228.5L194.644 326.485C194.017 329.05 195.597 331.643 198.162 332.27C200.727 332.897 203.322 331.322 203.947 328.752Z" fill="#F9B22A"/>
<path fill-rule="evenodd" clip-rule="evenodd" d="M122.185 241.652L223.573 234.382C226.208 234.193 228.195 231.896 228.006 229.26C227.817 226.625 225.528 224.641 222.89 224.825L121.498 232.103C118.863 232.292 116.876 234.59 117.065 237.225C117.254 239.861 119.549 241.842 122.185 241.652Z" fill="#F9B22A"/>
</svg>
