<svg width="216" height="216" viewBox="0 0 216 216" fill="none" xmlns="http://www.w3.org/2000/svg">
<path d="M108 216C167.647 216 216 167.647 216 108C216 48.3532 167.647 0 108 0C48.3532 0 0 48.3532 0 108C0 167.647 48.3532 216 108 216Z" fill="#B2E4FA"/>
<path d="M124.201 104.008C122.018 111.783 120.695 119.774 120.254 127.839L119.796 135.808C122.614 136.604 126.765 137.622 129.968 138.527L141.677 94.4027C145.044 81.7163 146.188 80.4811 146.188 80.4811L145.578 79.1819L145.413 79.2458C140.292 81.5725 135.741 84.9944 132.077 89.2719C128.413 93.5493 125.725 98.5789 124.201 104.008Z" fill="#FFE177"/>
<path d="M151.875 111.405C149.916 119.239 147.103 126.833 143.488 134.049L139.936 141.191C137.097 140.475 132.992 139.286 129.765 138.473L141.474 94.3484C144.841 81.662 144.678 79.8533 144.678 79.8533L145.634 79.197L145.746 79.3348C149.035 83.909 151.287 89.1495 152.346 94.6892C153.405 100.229 153.244 105.934 151.875 111.405Z" fill="#FFE177"/>
<path d="M130.922 135.003C130.329 134.846 129.822 134.46 129.513 133.929C129.203 133.397 129.117 132.765 129.273 132.169L134.557 111.973C134.713 111.378 135.098 110.87 135.627 110.559C136.157 110.249 136.788 110.162 137.381 110.319C137.974 110.475 138.481 110.861 138.79 111.393C139.099 111.924 139.185 112.557 139.029 113.152L133.745 133.348C133.589 133.943 133.204 134.452 132.675 134.762C132.145 135.072 131.515 135.159 130.922 135.003Z" fill="#F9B22A"/>
<path d="M84.7221 89.6539L95.7297 135.901L92.0263 136.788L81.0188 90.5411L84.7221 89.6539Z" fill="#57565C"/>
<path d="M74.9172 56.5643C93.2832 52.1684 111.668 62.5142 116.326 82.0973C116.575 83.1261 115.947 84.1666 114.922 84.4162L51.7477 99.5502C50.7204 99.7924 49.6918 99.1488 49.4508 98.1181C44.7925 78.535 56.5383 60.9711 74.9026 56.5678L75.3375 58.396C75.3425 58.3948 75.347 58.3937 75.352 58.3925L74.9172 56.5643Z" fill="#E83030"/>
<path d="M74.9032 56.5682C74.9032 56.5682 97.9944 62.8233 103.761 87.0636L62.8833 96.8562C57.1172 72.6159 74.9032 56.5682 74.9032 56.5682Z" fill="#FEF9E6"/>
<path d="M49.123 156.153H174.796C161.082 132.066 79.9364 108.051 49.123 156.153Z" fill="#F8E1C2"/>
<path d="M49.123 156.153H86.7542L114.123 128.687C89.5033 126.803 63.6893 133.412 49.123 156.153Z" fill="#FCF1E2"/>
<g clip-path="url(#clip0_155_20)">
<path d="M110.709 142.514C110.624 142.491 110.545 142.451 110.476 142.396C109.813 141.924 109.006 141.698 108.195 141.756C108.081 141.769 107.967 141.75 107.863 141.704C107.759 141.657 107.67 141.584 107.604 141.491C107.508 141.311 107.623 141.137 107.865 141.105C109.029 141.014 110.187 141.338 111.134 142.021C111.323 142.174 111.332 142.383 111.156 142.487C111.087 142.521 111.012 142.541 110.936 142.546C110.859 142.551 110.782 142.54 110.709 142.514ZM116.49 143.842L115.405 143.538C115.323 143.515 115.254 143.46 115.212 143.386C115.17 143.312 115.16 143.225 115.183 143.143C115.206 143.061 115.26 142.992 115.334 142.95C115.408 142.908 115.496 142.898 115.577 142.921L116.663 143.225C116.745 143.248 116.814 143.302 116.856 143.376C116.897 143.451 116.908 143.538 116.885 143.62C116.862 143.702 116.807 143.771 116.733 143.813C116.659 143.854 116.572 143.865 116.49 143.842ZM103.391 140.17L102.305 139.866C102.224 139.843 102.154 139.789 102.113 139.715C102.071 139.641 102.061 139.553 102.084 139.471C102.106 139.39 102.161 139.32 102.235 139.279C102.309 139.237 102.397 139.227 102.478 139.25L103.564 139.554C103.646 139.577 103.715 139.631 103.756 139.705C103.798 139.779 103.809 139.867 103.786 139.949C103.763 140.03 103.708 140.1 103.634 140.141C103.56 140.183 103.473 140.193 103.391 140.17ZM113.444 141.658L106.043 139.583C105.961 139.561 105.892 139.506 105.85 139.432C105.809 139.358 105.798 139.27 105.821 139.189C105.844 139.107 105.899 139.038 105.973 138.996C106.047 138.954 106.134 138.944 106.216 138.967L113.617 141.041C113.698 141.064 113.768 141.118 113.809 141.192C113.851 141.266 113.861 141.354 113.839 141.436C113.816 141.518 113.761 141.587 113.687 141.628C113.613 141.67 113.526 141.681 113.444 141.658Z" fill="#E83030"/>
<path d="M108.532 141.385C108.079 143.001 105.496 145.097 103.954 144.665C102.412 144.233 102.163 142.746 102.616 141.131C102.71 140.752 102.878 140.395 103.109 140.081C103.341 139.768 103.633 139.503 103.967 139.302C104.301 139.1 104.672 138.967 105.058 138.91C105.444 138.853 105.838 138.872 106.216 138.967C107.752 139.397 108.991 139.744 108.532 141.385ZM115.566 144.767C115.113 146.382 114.128 147.523 112.586 147.091C111.044 146.659 109.927 143.525 110.38 141.91C110.833 140.294 112.087 140.612 113.617 141.041C113.99 141.157 114.337 141.345 114.637 141.595C114.937 141.845 115.185 142.152 115.366 142.499C115.547 142.845 115.658 143.223 115.692 143.613C115.726 144.002 115.683 144.394 115.566 144.767Z" fill="#3C3B41"/>
<path d="M116.663 143.225L115.725 142.962C115.546 142.499 115.26 142.084 114.892 141.75C114.524 141.415 114.083 141.172 113.604 141.037L106.204 138.963C105.725 138.829 105.222 138.808 104.733 138.902C104.245 138.996 103.786 139.203 103.391 139.505L102.478 139.25C102.397 139.227 102.309 139.237 102.235 139.279C102.161 139.32 102.106 139.39 102.084 139.471C102.061 139.553 102.071 139.641 102.113 139.715C102.154 139.789 102.224 139.843 102.305 139.866L102.873 140.025C102.593 140.366 102.388 140.762 102.268 141.186C101.727 143.116 102.329 144.529 103.871 144.961C105.536 145.428 108.145 143.498 108.74 141.829C108.958 141.8 109.18 141.816 109.392 141.876C109.604 141.935 109.801 142.037 109.973 142.175C109.601 143.906 110.827 146.911 112.505 147.381C114.047 147.813 115.295 146.919 115.836 144.989C115.954 144.564 115.984 144.119 115.923 143.683L116.49 143.842C116.572 143.865 116.659 143.854 116.733 143.813C116.807 143.771 116.862 143.702 116.885 143.62C116.908 143.538 116.897 143.451 116.856 143.376C116.814 143.302 116.745 143.248 116.663 143.225ZM104.044 144.344C102.434 143.893 102.627 142.278 102.885 141.359C103.068 140.705 103.504 140.15 104.096 139.817C104.689 139.484 105.389 139.4 106.043 139.583C107.832 140.085 108.481 140.38 108.164 141.508C107.775 142.896 105.376 144.718 104.044 144.344ZM110.194 141.552C109.797 141.298 109.333 141.168 108.862 141.178C108.898 140.891 108.853 140.6 108.732 140.337L110.761 140.906C110.515 141.063 110.318 141.287 110.194 141.552ZM112.678 146.764C111.346 146.391 110.246 143.575 110.631 142.2C110.948 141.071 111.655 141.156 113.444 141.658C114.098 141.841 114.653 142.277 114.986 142.869C115.319 143.461 115.403 144.162 115.219 144.816C114.957 145.753 114.287 147.215 112.678 146.764Z" fill="#E83030"/>
</g>
<mask id="mask0_155_20" style="mask-type:alpha" maskUnits="userSpaceOnUse" x="0" y="0" width="216" height="216">
<path d="M108 216C167.647 216 216 167.647 216 108C216 48.3532 167.647 0 108 0C48.3532 0 0 48.3532 0 108C0 167.647 48.3532 216 108 216Z" fill="#B2E4FA"/>
</mask>
<g mask="url(#mask0_155_20)">
<rect x="1.94531" y="156.335" width="211.032" height="69.552" fill="#5EA7FF"/>
<path d="M131.209 194.509C129.528 194.52 127.867 194.145 126.352 193.413C124.838 192.681 123.51 191.612 122.47 190.286C121.45 188.995 120.739 187.488 120.39 185.878C120.233 185.272 120.323 184.628 120.64 184.089C120.956 183.549 121.473 183.158 122.077 183.001C122.681 182.844 123.322 182.935 123.86 183.252C124.398 183.57 124.788 184.089 124.944 184.695C125.152 185.642 125.571 186.531 126.169 187.293C126.935 188.267 127.961 189.002 129.128 189.413C130.295 189.824 131.554 189.893 132.758 189.613C133.945 189.371 135.036 188.785 135.895 187.927C136.754 187.07 137.343 185.978 137.59 184.788C137.698 184.256 137.988 183.779 138.411 183.439C138.833 183.1 139.361 182.921 139.902 182.932C140.515 182.932 141.103 183.176 141.536 183.611C141.97 184.046 142.214 184.636 142.214 185.252C142.236 185.429 142.236 185.608 142.214 185.785C141.776 187.839 140.751 189.721 139.265 191.2C137.779 192.679 135.895 193.692 133.845 194.114C132.985 194.353 132.1 194.486 131.209 194.509Z" fill="#D2E6FF"/>
<path d="M148.705 194.509C147.024 194.52 145.363 194.145 143.848 193.413C142.334 192.681 141.006 191.612 139.966 190.286C138.947 188.995 138.235 187.488 137.886 185.878C137.729 185.272 137.819 184.628 138.136 184.089C138.452 183.549 138.969 183.158 139.573 183.001C140.177 182.844 140.819 182.935 141.356 183.252C141.894 183.57 142.284 184.089 142.44 184.695C142.648 185.642 143.067 186.531 143.665 187.293C144.431 188.267 145.458 189.002 146.624 189.413C147.791 189.824 149.05 189.893 150.254 189.613C151.441 189.371 152.532 188.785 153.391 187.927C154.25 187.07 154.839 185.978 155.086 184.788C155.194 184.256 155.485 183.779 155.907 183.439C156.329 183.1 156.857 182.921 157.398 182.932C158.011 182.932 158.599 183.176 159.033 183.611C159.466 184.046 159.71 184.636 159.71 185.252C159.732 185.429 159.732 185.608 159.71 185.785C159.272 187.839 158.247 189.721 156.761 191.2C155.275 192.679 153.391 193.692 151.341 194.114C150.482 194.353 149.596 194.486 148.705 194.509Z" fill="#D2E6FF"/>
<path d="M53.4474 182.804C51.7664 182.815 50.1051 182.44 48.5905 181.708C47.0759 180.976 45.7481 179.907 44.7085 178.581C43.6887 177.29 42.9769 175.782 42.6278 174.173C42.4715 173.567 42.5614 172.923 42.8779 172.384C43.1944 171.844 43.7115 171.453 44.3155 171.296C44.9194 171.139 45.5608 171.229 46.0984 171.547C46.636 171.865 47.0259 172.384 47.1822 172.99C47.3906 173.937 47.8095 174.826 48.4075 175.588C49.1735 176.562 50.1997 177.297 51.3663 177.708C52.5329 178.119 53.7919 178.188 54.9963 177.908C56.1837 177.666 57.2742 177.08 58.133 176.222C58.9918 175.364 59.5812 174.273 59.8282 173.083C59.9362 172.551 60.2268 172.074 60.6492 171.734C61.0716 171.395 61.5992 171.215 62.14 171.226C62.7532 171.226 63.3412 171.471 63.7748 171.906C64.2083 172.341 64.4519 172.931 64.4519 173.547C64.4744 173.724 64.4744 173.903 64.4519 174.08C64.014 176.134 62.9893 178.016 61.5031 179.495C60.0168 180.974 58.1334 181.987 56.0829 182.409C55.2238 182.648 54.3387 182.781 53.4474 182.804Z" fill="#D2E6FF"/>
<path d="M70.9435 182.804C69.2625 182.815 67.6012 182.44 66.0866 181.708C64.572 180.976 63.2442 179.907 62.2046 178.581C61.1848 177.29 60.473 175.782 60.1239 174.173C59.9676 173.567 60.0575 172.923 60.374 172.384C60.6905 171.844 61.2076 171.453 61.8116 171.296C62.4155 171.139 63.0568 171.229 63.5945 171.547C64.1321 171.865 64.5219 172.384 64.6783 172.99C64.8867 173.937 65.3056 174.826 65.9036 175.588C66.6696 176.562 67.6958 177.297 68.8624 177.708C70.029 178.119 71.288 178.188 72.4924 177.908C73.6798 177.666 74.7703 177.08 75.6291 176.222C76.4879 175.364 77.0773 174.273 77.3243 173.083C77.4323 172.551 77.7229 172.074 78.1453 171.734C78.5677 171.395 79.0953 171.215 79.6361 171.226C80.2493 171.226 80.8373 171.471 81.2709 171.906C81.7044 172.341 81.948 172.931 81.948 173.547C81.9705 173.724 81.9705 173.903 81.948 174.08C81.5101 176.134 80.4854 178.016 78.9992 179.495C77.5129 180.974 75.6295 181.987 73.579 182.409C72.7199 182.648 71.8347 182.781 70.9435 182.804Z" fill="#D2E6FF"/>
<path d="M167.504 160.87C166.688 160.866 165.875 160.78 165.076 160.615C162.628 160.106 160.43 158.761 158.858 156.81C157.807 158.064 156.496 159.072 155.017 159.764C153.537 160.455 151.924 160.814 150.292 160.814C148.66 160.814 147.047 160.455 145.567 159.764C144.088 159.072 142.777 158.064 141.727 156.81C140.692 158.09 139.384 159.119 137.899 159.822C136.415 160.525 134.791 160.883 133.149 160.87C131.512 160.889 129.89 160.537 128.406 159.843C126.921 159.148 125.611 158.127 124.572 156.856C123.534 158.127 122.224 159.148 120.739 159.843C119.254 160.537 117.633 160.889 115.995 160.87C113.479 160.897 111.029 160.054 109.059 158.482C107.088 156.911 105.717 154.706 105.176 152.24C105.087 151.663 105.217 151.073 105.542 150.589C105.866 150.105 106.361 149.761 106.927 149.626C107.493 149.492 108.089 149.576 108.595 149.862C109.102 150.149 109.483 150.617 109.661 151.172C109.967 152.623 110.766 153.921 111.922 154.844C113.078 155.767 114.518 156.257 115.995 156.23C117.469 156.256 118.906 155.765 120.058 154.842C121.211 153.918 122.006 152.621 122.307 151.172C122.34 151.004 122.394 150.84 122.469 150.685C122.669 150.184 123.037 149.768 123.509 149.509C123.982 149.251 124.53 149.166 125.058 149.27C125.511 149.371 125.922 149.607 126.24 149.946C126.557 150.285 126.766 150.713 126.838 151.172C127.142 152.615 127.935 153.907 129.082 154.829C130.228 155.751 131.657 156.246 133.126 156.23C134.6 156.256 136.037 155.765 137.189 154.842C138.342 153.918 139.137 152.621 139.438 151.172C139.471 151.004 139.525 150.84 139.6 150.685C139.801 150.174 140.176 149.752 140.659 149.493C141.141 149.233 141.7 149.154 142.235 149.27C142.688 149.371 143.1 149.607 143.417 149.946C143.735 150.285 143.943 150.713 144.015 151.172C144.378 152.587 145.203 153.839 146.359 154.726C147.515 155.614 148.935 156.086 150.39 156.068C151.846 156.049 153.253 155.54 154.386 154.623C155.519 153.706 156.312 152.434 156.638 151.01C156.671 150.841 156.725 150.677 156.8 150.523C157.006 150.094 157.339 149.74 157.752 149.508C158.166 149.275 158.64 149.176 159.112 149.223C159.591 149.274 160.042 149.473 160.403 149.793C160.763 150.114 161.015 150.539 161.123 151.01C161.352 152.231 161.938 153.355 162.807 154.24C163.676 155.124 164.788 155.728 166.001 155.975C167.206 156.249 168.463 156.177 169.628 155.767C170.794 155.356 171.82 154.624 172.59 153.655C173.146 152.904 173.554 152.053 173.792 151.149C173.925 150.55 174.289 150.027 174.805 149.697C175.32 149.366 175.946 149.255 176.543 149.386C177.138 149.494 177.667 149.831 178.017 150.325C178.367 150.82 178.51 151.432 178.416 152.031V152.147C178.055 153.739 177.371 155.24 176.405 156.555C175.355 157.917 174.005 159.016 172.461 159.764C170.916 160.513 169.219 160.892 167.504 160.87Z" fill="#5EA7FF"/>
<path d="M98.7951 160.871C96.3246 160.893 93.9194 160.075 91.9715 158.55C90.0236 157.025 88.6477 154.882 88.068 152.472C87.9792 152.227 87.9323 151.968 87.9293 151.707C87.8588 151.091 88.0347 150.473 88.4184 149.988C88.8021 149.503 89.3622 149.191 89.9753 149.12C90.5885 149.049 91.2045 149.226 91.6879 149.611C92.1713 149.996 92.4825 150.558 92.5531 151.173C92.8511 152.606 93.6326 153.891 94.7656 154.813C95.8986 155.734 97.3137 156.235 98.772 156.231C100.24 156.265 101.675 155.787 102.831 154.877C103.986 153.967 104.791 152.682 105.107 151.243C105.215 150.711 105.505 150.234 105.928 149.895C106.35 149.555 106.878 149.376 107.418 149.387C108.032 149.387 108.62 149.631 109.053 150.066C109.487 150.501 109.73 151.091 109.73 151.707C109.754 151.891 109.754 152.079 109.73 152.263C109.18 154.746 107.79 156.96 105.796 158.529C103.803 160.099 101.328 160.926 98.7951 160.871Z" fill="#5EA7FF"/>
<path d="M81.6184 160.871C79.0994 160.907 76.6456 160.067 74.6735 158.494C72.7013 156.921 71.3323 154.711 70.7988 152.24C70.7096 151.663 70.8403 151.074 71.1649 150.59C71.4895 150.105 71.984 149.761 72.55 149.627C73.1159 149.492 73.7117 149.577 74.2184 149.863C74.7251 150.15 75.1055 150.617 75.2839 151.173C75.6198 152.603 76.427 153.877 77.5747 154.788C78.7223 155.7 80.1431 156.196 81.6069 156.196C83.0706 156.196 84.4914 155.7 85.6391 154.788C86.7867 153.877 87.5939 152.603 87.9298 151.173C88.0379 150.641 88.3285 150.164 88.7509 149.825C89.1733 149.486 89.7009 149.306 90.2417 149.317C90.8549 149.317 91.4429 149.561 91.8764 149.996C92.31 150.432 92.5536 151.022 92.5536 151.637C92.5761 151.814 92.5761 151.993 92.5536 152.171C92.0304 154.674 90.6504 156.915 88.653 158.504C86.6555 160.093 84.1667 160.931 81.6184 160.871Z" fill="#5EA7FF"/>
<path d="M64.463 160.871C62.782 160.882 61.1208 160.507 59.6061 159.776C58.0915 159.044 56.7637 157.974 55.7241 156.648C54.7043 155.358 53.9926 153.85 53.6434 152.24C53.4871 151.634 53.5771 150.991 53.8936 150.451C54.2101 149.912 54.7272 149.52 55.3311 149.363C55.9351 149.207 56.5764 149.297 57.114 149.614C57.6516 149.932 58.0415 150.451 58.1978 151.057C58.4063 152.005 58.8251 152.893 59.4231 153.656C60.1891 154.629 61.2153 155.365 62.3819 155.775C63.5486 156.186 64.8075 156.256 66.012 155.976C67.1993 155.733 68.2899 155.147 69.1486 154.29C70.0074 153.432 70.5968 152.34 70.8438 151.15C70.9519 150.618 71.2424 150.141 71.6648 149.802C72.0872 149.463 72.6148 149.283 73.1557 149.294C73.7688 149.294 74.3568 149.538 74.7904 149.973C75.224 150.408 75.4675 150.999 75.4675 151.614C75.49 151.791 75.49 151.97 75.4675 152.147C75.0296 154.202 74.005 156.083 72.5187 157.562C71.0324 159.042 69.149 160.054 67.0985 160.476C66.2394 160.716 65.3543 160.848 64.463 160.871Z" fill="#5EA7FF"/>
<path d="M184.559 160.904C182.878 160.915 181.216 160.541 179.702 159.809C178.187 159.077 176.859 158.007 175.82 156.682C174.8 155.391 174.088 153.883 173.739 152.274C173.583 151.667 173.673 151.024 173.989 150.484C174.306 149.945 174.823 149.554 175.427 149.397C176.031 149.24 176.672 149.33 177.21 149.648C177.747 149.965 178.137 150.484 178.294 151.09C178.502 152.038 178.921 152.926 179.519 153.689C180.285 154.663 181.311 155.398 182.478 155.809C183.644 156.219 184.903 156.289 186.108 156.009C187.295 155.767 188.386 155.18 189.244 154.323C190.103 153.465 190.692 152.373 190.939 151.183C191.048 150.651 191.338 150.174 191.761 149.835C192.183 149.496 192.711 149.316 193.251 149.327C193.865 149.327 194.453 149.571 194.886 150.007C195.32 150.442 195.563 151.032 195.563 151.647C195.586 151.824 195.586 152.004 195.563 152.181C195.125 154.235 194.101 156.116 192.614 157.596C191.128 159.075 189.245 160.087 187.194 160.51C186.335 160.749 185.45 160.881 184.559 160.904Z" fill="#5EA7FF"/>
<path d="M202.055 160.904C200.374 160.915 198.713 160.541 197.198 159.809C195.683 159.077 194.356 158.007 193.316 156.682C192.296 155.391 191.584 153.883 191.235 152.274C191.079 151.667 191.169 151.024 191.485 150.484C191.802 149.945 192.319 149.554 192.923 149.397C193.527 149.24 194.168 149.33 194.706 149.648C195.243 149.965 195.633 150.484 195.79 151.09C195.998 152.038 196.417 152.926 197.015 153.689C197.781 154.663 198.807 155.398 199.974 155.809C201.14 156.219 202.399 156.289 203.604 156.009C204.791 155.767 205.882 155.18 206.74 154.323C207.599 153.465 208.189 152.373 208.436 151.183C208.544 150.651 208.834 150.174 209.257 149.835C209.679 149.496 210.207 149.316 210.747 149.327C211.361 149.327 211.949 149.571 212.382 150.007C212.816 150.442 213.059 151.032 213.059 151.647C213.082 151.824 213.082 152.004 213.059 152.181C212.621 154.235 211.597 156.116 210.11 157.596C208.624 159.075 206.741 160.087 204.69 160.51C203.831 160.749 202.946 160.881 202.055 160.904Z" fill="#5EA7FF"/>
<path d="M29.9025 160.871C28.2215 160.882 26.5602 160.507 25.0456 159.776C23.531 159.044 22.2032 157.974 21.1636 156.648C20.1438 155.358 19.432 153.85 19.0829 152.24C18.9265 151.634 19.0165 150.991 19.333 150.451C19.6495 149.912 20.1666 149.52 20.7706 149.363C21.3745 149.207 22.0158 149.297 22.5534 149.614C23.0911 149.932 23.4809 150.451 23.6373 151.057C23.8457 152.005 24.2646 152.893 24.8626 153.656C25.6286 154.629 26.6548 155.365 27.8214 155.775C28.988 156.186 30.247 156.256 31.4514 155.976C32.6388 155.733 33.7293 155.147 34.5881 154.29C35.4469 153.432 36.0362 152.34 36.2832 151.15C36.3913 150.618 36.6819 150.141 37.1043 149.802C37.5267 149.463 38.0543 149.283 38.5951 149.294C39.2083 149.294 39.7963 149.538 40.2299 149.973C40.6634 150.408 40.907 150.999 40.907 151.614C40.9295 151.791 40.9295 151.97 40.907 152.147C40.4691 154.202 39.4444 156.083 37.9582 157.562C36.4719 159.042 34.5885 160.054 32.538 160.476C31.6788 160.716 30.7937 160.848 29.9025 160.871Z" fill="#5EA7FF"/>
<path d="M12.84 160.871C11.159 160.882 9.4977 160.507 7.9831 159.776C6.4685 159.044 5.14066 157.974 4.10108 156.648C3.08127 155.358 2.36952 153.85 2.02039 152.24C1.86404 151.634 1.95401 150.991 2.27051 150.451C2.58701 149.912 3.10411 149.52 3.70806 149.363C4.31201 149.207 4.95333 149.297 5.49095 149.614C6.02856 149.932 6.41843 150.451 6.57478 151.057C6.78322 152.005 7.20205 152.893 7.80008 153.656C8.5661 154.629 9.59227 155.365 10.7589 155.775C11.9255 156.186 13.1845 156.256 14.3889 155.976C15.5763 155.733 16.6668 155.147 17.5256 154.29C18.3844 153.432 18.9737 152.34 19.2207 151.15C19.3288 150.618 19.6194 150.141 20.0418 149.802C20.4642 149.463 20.9918 149.283 21.5326 149.294C22.1458 149.294 22.7338 149.538 23.1674 149.973C23.6009 150.408 23.8445 150.999 23.8445 151.614C23.867 151.791 23.867 151.97 23.8445 152.147C23.4066 154.202 22.3819 156.083 20.8957 157.562C19.4094 159.042 17.526 160.054 15.4755 160.476C14.6163 160.716 13.7312 160.848 12.84 160.871Z" fill="#5EA7FF"/>
<path d="M47.1837 160.871C45.5027 160.882 43.8415 160.507 42.3269 159.776C40.8123 159.044 39.4844 157.974 38.4448 156.648C37.425 155.358 36.7133 153.85 36.3641 152.24C36.2078 151.634 36.2978 150.991 36.6143 150.451C36.9308 149.912 37.4479 149.52 38.0518 149.363C38.6558 149.207 39.2971 149.297 39.8347 149.614C40.3723 149.932 40.7622 150.451 40.9185 151.057C41.127 152.005 41.5458 152.893 42.1438 153.656C42.9098 154.629 43.936 155.365 45.1026 155.775C46.2693 156.186 47.5282 156.256 48.7327 155.976C49.92 155.733 51.0106 155.147 51.8694 154.29C52.7281 153.432 53.3175 152.34 53.5645 151.15C53.6726 150.618 53.9631 150.141 54.3855 149.802C54.808 149.463 55.3355 149.283 55.8764 149.294C56.4895 149.294 57.0775 149.538 57.5111 149.973C57.9447 150.408 58.1882 150.999 58.1882 151.614C58.2107 151.791 58.2107 151.97 58.1882 152.147C57.7503 154.202 56.7257 156.083 55.2394 157.562C53.7531 159.042 51.8697 160.054 49.8193 160.476C48.9601 160.716 48.075 160.848 47.1837 160.871Z" fill="#5EA7FF"/>
</g>
<defs>
<clipPath id="clip0_155_20">
<rect width="15.3717" height="15.3717" fill="white" transform="translate(103.941 133.008) rotate(15.6565)"/>
</clipPath>
</defs>
</svg>
